<?xml version="1.0" encoding="UTF-8" standalone="no"?>
<svg
   version="1.2"
   viewBox="0 0 768 768"
   width="768"
   height="768"
   id="svg16"
   sodipodi:docname="BDDLogo-v2.svg"
   inkscape:version="1.3.2 (091e20e, 2023-11-25, custom)"
   xmlns:inkscape="http://www.inkscape.org/namespaces/inkscape"
   xmlns:sodipodi="http://sodipodi.sourceforge.net/DTD/sodipodi-0.dtd"
   xmlns="http://www.w3.org/2000/svg"
   xmlns:svg="http://www.w3.org/2000/svg"
   xmlns:rdf="http://www.w3.org/1999/02/22-rdf-syntax-ns#"
   xmlns:cc="http://creativecommons.org/ns#"
   xmlns:dc="http://purl.org/dc/elements/1.1/">
  <sodipodi:namedview
     id="namedview16"
     pagecolor="#ffffff"
     bordercolor="#000000"
     borderopacity="0.25"
     inkscape:showpageshadow="2"
     inkscape:pageopacity="0.0"
     inkscape:pagecheckerboard="0"
     inkscape:deskcolor="#d1d1d1"
     inkscape:zoom="2.3684896"
     inkscape:cx="599.96041"
     inkscape:cy="422.42111"
     inkscape:window-width="3840"
     inkscape:window-height="2054"
     inkscape:window-x="-11"
     inkscape:window-y="-11"
     inkscape:window-maximized="1"
     inkscape:current-layer="svg16" />
  <title
     id="title1">BDDLogo</title>
  <defs
     id="defs14">
    <linearGradient
       id="g1"
       x2="1"
       gradientUnits="userSpaceOnUse"
       gradientTransform="matrix(148.021,.305,1.292,191.218,210.212,338.855)">
      <stop
         offset=".108"
         stop-color="#d8a570"
         id="stop1" />
      <stop
         offset=".165"
         stop-color="#ffeed0"
         id="stop2" />
      <stop
         offset=".988"
         stop-color="#d8a570"
         id="stop3" />
    </linearGradient>
    <linearGradient
       id="g2"
       x2="1"
       gradientUnits="userSpaceOnUse"
       gradientTransform="matrix(148.021,.305,1.292,191.218,404.212,338.855)">
      <stop
         offset=".108"
         stop-color="#d8a570"
         id="stop4" />
      <stop
         offset=".165"
         stop-color="#ffeed0"
         id="stop5" />
      <stop
         offset=".988"
         stop-color="#d8a570"
         id="stop6" />
    </linearGradient>
    <linearGradient
       id="g3"
       x2="1"
       gradientUnits="userSpaceOnUse"
       gradientTransform="matrix(143.655,-0.449,-0.161,148.921,212.681,382.673)">
      <stop
         offset=".858"
         stop-color="#ffc580"
         id="stop7" />
      <stop
         offset="1"
         stop-color="#be773d"
         id="stop8" />
    </linearGradient>
    <linearGradient
       id="g4"
       x2="1"
       gradientUnits="userSpaceOnUse"
       gradientTransform="matrix(143.655,-0.449,-0.161,148.921,410.681,382.673)">
      <stop
         offset=".858"
         stop-color="#ffc580"
         id="stop9" />
      <stop
         offset="1"
         stop-color="#be773d"
         id="stop10" />
    </linearGradient>
    <linearGradient
       id="g5"
       x2="1"
       gradientUnits="userSpaceOnUse"
       gradientTransform="matrix(.334,.001,.334,49.447,216.955,480.236)">
      <stop
         offset="0"
         stop-color="#ffffff"
         id="stop11" />
      <stop
         offset="1"
         stop-color="#d8a570"
         stop-opacity="0"
         id="stop12" />
    </linearGradient>
    <linearGradient
       id="g6"
       x2="1"
       gradientUnits="userSpaceOnUse"
       gradientTransform="matrix(83.25,0,0,0,233.25,344)">
      <stop
         offset="0"
         stop-color="#ffffff"
         id="stop13" />
      <stop
         offset="1"
         stop-color="#fffcf6"
         stop-opacity="0"
         id="stop14" />
    </linearGradient>
  </defs>
  <style
     id="style14">
		.s0 { fill: #ffeed0 } 
		.s1 { fill: #01373e } 
		.s2 { fill: none;stroke: #01373e;stroke-linecap: round;stroke-miterlimit:10;stroke-width: 6 } 
		.s3 { fill: url(#g1) } 
		.s4 { fill: url(#g2) } 
		.s5 { fill: url(#g3) } 
		.s6 { fill: url(#g4) } 
		.s7 { fill: url(#g5) } 
		.s8 { fill: none;stroke: #01373e;stroke-linecap: round;stroke-miterlimit:10;stroke-width: 12 } 
		.s9 { fill: none;stroke: #ffffff;stroke-miterlimit:10;stroke-width: 3 } 
		.s10 { fill: none;stroke: url(#g6);stroke-miterlimit:10;stroke-width: 3 } 
		.s11 { fill: none;stroke: #fffefa;stroke-linecap: round;stroke-miterlimit:10;stroke-width: 12 } 
		.s12 { fill: none;stroke: #01373e;stroke-miterlimit:10;stroke-width: 9 } 
		.s13 { fill: none;stroke: #ffffff;stroke-linecap: round;stroke-miterlimit:10;stroke-width: 7.5 } 
		.s14 { fill: none;stroke: #01373e;stroke-miterlimit:10;stroke-width: 12 } 
		.s15 { fill: #ffc580;stroke: #ffeed0;stroke-miterlimit:10;stroke-width: 6 } 
		.s16 { fill: none;stroke: #ffeed0;stroke-miterlimit:10;stroke-width: 6 } 
		.s17 { fill: none;stroke: #ffeed0;stroke-linecap: round;stroke-miterlimit:10;stroke-width: 4 } 
		.s18 { fill: none;stroke: #ffeed0;stroke-linecap: round;stroke-miterlimit:10;stroke-width: 5.3 } 
	</style>
  <path
     id="Shape 69"
     fill-rule="evenodd"
     class="s0"
     d="m777-7v785h-785v-785z" />
  <g
     id="Folder 6">
    <path
       id="Shape 39"
       fill-rule="evenodd"
       class="s2"
       d="m154.6 562.4l220-0.1" />
    <path
       id="Shape 40"
       fill-rule="evenodd"
       class="s2"
       d="m124.8 562.6h-9.8" />
    <path
       id="Shape 43"
       fill-rule="evenodd"
       class="s2"
       d="m95.4 562.4h10.4" />
    <path
       id="Shape 44"
       fill-rule="evenodd"
       class="s2"
       d="m392.3 562.3h219.7" />
    <path
       id="Shape 45"
       fill-rule="evenodd"
       class="s2"
       d="m636 562.3h26.3" />
    <path
       id="Shape 46"
       fill-rule="evenodd"
       class="s2"
       d="m683.3 562.3h7.5" />
    <path
       id="Shape 42"
       fill-rule="evenodd"
       class="s2"
       d="m75.8 562.6h4.7" />
  </g>
  <g
     id="Layer 1">
    <path
       id="Shape 59"
       fill-rule="evenodd"
       class="s3"
       d="m358.2 339.2l1.3 191.1-148-0.2-1.2-191.2z" />
    <path
       id="Shape 59 copy"
       fill-rule="evenodd"
       class="s4"
       d="m552.2 339.2l1.3 191.1-148-0.2-1.2-191.2z" />
    <path
       id="Shape 58"
       fill-rule="evenodd"
       class="s5"
       d="m356.3 382.2l-0.2 148.9-143.6 0.5 0.2-148.9z" />
    <path
       id="Shape 58 copy"
       fill-rule="evenodd"
       class="s6"
       d="m554.3 382.2l-0.2 148.9-143.6 0.5 0.2-148.9z" />
    <path
       id="Shape 61"
       fill-rule="evenodd"
       class="s7"
       d="m217.3 480.2v49.5z" />
    <g
       id="Folder 4">
      <path
         id="Shape 37"
         fill-rule="evenodd"
         class="s8"
         d="m207 480.4v48.8c1 17.3 10.6 25.4 20.5 26l105.8 0.5c21.4-0.7 27.1-9.2 27.9-27.8v-189.8" />
      <path
         id="Shape 60"
         fill-rule="evenodd"
         class="s1"
         d="m222 531.6l125.4-0.5c-0.5 3.5-5.3 9.1-9.9 9.4h-106.5c-4.1-0.2-8.6-4.6-9-8.9z" />
      <path
         id="Shape 60 copy"
         fill-rule="evenodd"
         class="s1"
         d="m421 531.6l125.4-0.5c-0.5 3.5-5.3 9.1-9.9 9.4h-106.5c-4.1-0.2-8.6-4.6-9-8.9z" />
      <path
         id="Shape 36"
         fill-rule="evenodd"
         class="s1"
         d="m355.7 383l-30.4 0.3c-2.4 0.1-4.2 1.7-4.3 3.5l0.1 23.2c0.2 11.6-18 11.9-18.3 0.4l0.2-23.2c0.1-2.1-0.9-3.6-2.5-3.6l-83.2 0.1 0.1-10.9h138.3z" />
      <path
         id="Shape 32"
         fill-rule="evenodd"
         class="s1"
         d="m267.3 290.2c5.5-0.8 17.1-0.5 23 2.4 5.4 2.7 12 7.5 15.5 13.9 0.8 1.6 1.1 2.2 1.1 2.2l1.3-1c4-3 12.3-4 20.3-1.3 14.9 4.9 20.4 17 22.3 25.9l-9.4 0.1c-2-11.1-17.4-20.5-30.9-16.2l1.6 8.2-8.2 0.1c-0.6-6.6-6.9-17.3-17.3-21.6-13.2-5.5-27.9-2.5-36.9 9.1l8.1 3.2-2 2.4c-6.8-1.8-13.8-2.9-20.8 0.9-8.3 4.5-10.7 10.2-12 13.9h-7.1c0.4-10.9 6.7-16.9 9-18.9 3.4-2.8 12.5-6.8 16.5-5.3h0.4c3.2-8.1 14-16.4 25.5-18z" />
      <path
         id="Shape 64"
         fill-rule="evenodd"
         class="s0"
         d="m-1679-247" />
      <path
         id="Shape 65"
         fill-rule="evenodd"
         class="s0"
         d="m186.6 403.8v32.2z" />
      <path
         id="Shape 19"
         fill-rule="evenodd"
         class="s9"
         d="m332.3 474.5l-0.1 52.5" />
      <path
         id="Shape 57"
         fill-rule="evenodd"
         class="s10"
         d="m233.3 344h83.2" />
      <path
         id="Shape 18"
         fill-rule="evenodd"
         class="s9"
         d="m332 468.8l-0.2-46.1" />
      <path
         id="Shape 16"
         fill-rule="evenodd"
         class="s11"
         d="m233.4 342.1l0.2 173.8" />
      <path
         id="Shape 38"
         fill-rule="evenodd"
         class="s12"
         d="m216 336.7l145-0.1" />
    </g>
    <g
       id="Folder 2">
      <path
         id="Shape 6"
         fill-rule="evenodd"
         class="s1"
         d="m259.5 467c-4.6 0-8.3-3.7-8.3-8.3 0.1-4.5 3.7-8.2 8.3-8.2 4.6 0 8.3 3.7 8.3 8.3-0.1 4.5-3.7 8.2-8.3 8.2z" />
      <path
         id="Shape 10"
         fill-rule="evenodd"
         class="s1"
         d="m294.8 500c-3.4 0-6.1-2.7-6.1-6 0-3.3 2.7-6 6-6 3.4 0 6 2.7 6 6 0 3.3-2.6 6-6 6z" />
      <path
         id="Shape 11"
         fill-rule="evenodd"
         class="s1"
         d="m314.3 515c-2.1 0-3.8-1.7-3.8-3.8 0-2 1.7-3.7 3.7-3.7 2.1 0 3.8 1.7 3.8 3.8 0 2-1.7 3.7-3.8 3.7z" />
      <path
         id="Shape 12"
         fill-rule="evenodd"
         class="s1"
         d="m260.3 515c-1.7 0-3.1-1.3-3.1-3 0-1.7 1.4-3 3-3 1.7 0 3 1.3 3 3 0 1.7-1.3 3-3 3z" />
      <path
         id="Shape 14"
         fill-rule="evenodd"
         class="s1"
         d="m281.6 435.5c-3.1 0-5.6-2.5-5.6-5.6 0-3.1 2.5-5.7 5.6-5.7 3.1 0 5.6 2.6 5.6 5.7 0 3.1-2.5 5.6-5.6 5.6z" />
      <path
         id="Shape 8"
         fill-rule="evenodd"
         class="s1"
         d="m253.5 417.9c-3.5 0-6.4-2.9-6.4-6.4 0-3.5 2.9-6.4 6.4-6.4 3.5 0 6.4 2.9 6.4 6.4 0 3.5-2.9 6.4-6.4 6.4z" />
      <path
         id="Shape 9"
         fill-rule="evenodd"
         class="s1"
         d="m310.5 452.8c-2.5-0.1-4.5-2.1-4.5-4.6 0-2.4 2-4.5 4.5-4.5 2.5 0 4.5 2.1 4.5 4.5 0 2.5-2 4.5-4.5 4.5z" />
    </g>
    <g
       id="Folder 7">
      <path
         id="Shape 47"
         fill-rule="evenodd"
         class="s1"
         d="m470.6 435.5c-4.3 0-7.9-3.5-7.9-7.9 0-4.3 3.6-7.8 7.9-7.8 4.4 0 7.9 3.5 7.9 7.8 0 4.4-3.5 7.9-7.9 7.9z" />
      <path
         id="Shape 48"
         fill-rule="evenodd"
         class="s1"
         d="m466.1 477.5c-3.9 0-7.1-3.2-7.1-7.1 0-4 3.2-7.2 7.1-7.2 4 0 7.1 3.2 7.1 7.2 0 3.9-3.1 7.1-7.1 7.1z" />
      <path
         id="Shape 50"
         fill-rule="evenodd"
         class="s1"
         d="m503.3 457.3c-3-0.1-5.3-2.4-5.3-5.3 0-2.9 2.3-5.3 5.2-5.3 3 0 5.3 2.4 5.3 5.3 0 2.9-2.3 5.2-5.3 5.2z" />
      <path
         id="Shape 55"
         fill-rule="evenodd"
         class="s1"
         d="m525 489.1c-3.5 0-6.4-2.8-6.4-6.4 0-3.5 2.9-6.3 6.4-6.3 3.5 0 6.4 2.8 6.4 6.3 0 3.6-2.9 6.4-6.4 6.4z" />
      <path
         id="Shape 51"
         fill-rule="evenodd"
         class="s1"
         d="m459 514.6c-1.9 0-3.4-1.5-3.4-3.4 0-1.8 1.5-3.3 3.4-3.3 1.9 0 3.4 1.5 3.4 3.3 0 1.9-1.5 3.4-3.4 3.4z" />
      <path
         id="Shape 52"
         fill-rule="evenodd"
         class="s1"
         d="m497.8 501.9c-2.2 0-3.9-1.8-3.9-4 0-2.1 1.7-3.9 3.9-3.9 2.2 0 3.9 1.8 3.9 3.9 0 2.2-1.7 4-3.9 4z" />
      <path
         id="Shape 53"
         fill-rule="evenodd"
         class="s1"
         d="m443.3 494.4c-1.5 0-2.7-1.2-2.7-2.6 0-1.5 1.2-2.7 2.6-2.7 1.5 0 2.7 1.2 2.7 2.7 0 1.4-1.2 2.6-2.7 2.6z" />
      <path
         id="Shape 54"
         fill-rule="evenodd"
         class="s1"
         d="m452.3 403.6c-1.5 0-2.7-1.1-2.7-2.6 0-1.5 1.2-2.6 2.6-2.6 1.5 0 2.7 1.1 2.7 2.6 0 1.5-1.2 2.6-2.7 2.6z" />
    </g>
    <g
       id="Folder 4 copy">
      <path
         id="path14"
         fill-rule="evenodd"
         class="s8"
         d="m560.5 478.8l-1 50.4c-1 17.3-10.6 25.4-20.5 26l-105.8 0.5c-21.4-0.7-27.1-9.2-27.8-27.8v-189.8" />
      <path
         id="path15"
         fill-rule="evenodd"
         class="s1"
         d="m499.2 290.2c-5.5-0.8-17-0.5-23 2.4-5.3 2.7-11.9 7.5-15.4 13.9-0.9 1.6-1.1 2.2-1.1 2.2l-1.3-1c-4.1-3-12.4-4-20.4-1.3-14.9 4.9-20.3 17-22.2 25.9l9.4 0.1c2-11.1 17.3-20.5 30.9-16.2l-1.7 8.2 8.2 0.1c0.6-6.6 7-17.3 17.3-21.6 13.2-5.5 28-2.5 37 9.1l-8.1 3.2 2 2.4c6.7-1.8 13.7-2.9 20.7 0.9 8.3 4.5 10.8 10.2 12 13.9h7.1c-0.4-10.9-6.6-16.9-9-18.9-3.4-2.8-12.5-6.8-16.5-5.3h-0.4c-3.1-8.1-14-16.4-25.5-18z" />
      <path
         id="Shape 36 copy"
         fill-rule="evenodd"
         class="s1"
         d="m550.4 383.3h-27.8c-2.4 0.1-4.3 1.7-4.3 3.4v23.3c0.2 11.6-17.9 11.9-18.2 0.4l0.1-23.2c0.2-2.1-0.8-3.6-2.4-3.6l-87.2 0.7v-11.8h139.5z" />
      <path
         id="Shape 56"
         fill-rule="evenodd"
         class="s13"
         d="m432.8 341l-0.8 174" />
      <path
         id="path16"
         fill-rule="evenodd"
         class="s12"
         d="m550.6 336.7l-145.1-0.1" />
    </g>
  </g>
  <g
     id="Folder 3">
    <path
       id="Shape 26"
       fill-rule="evenodd"
       class="s8"
       d="m164.6 462.1c-14.5-1.3-26.3-13-26.2-27.5l-0.1-63.4c0.9-16 16-25.6 25.8-26" />
    <path
       id="Shape 26 copy"
       fill-rule="evenodd"
       class="s14"
       d="m601.4 463.9c14.5-1.2 30.1-13.3 29.9-27.8l0.2-63.4c-0.7-11.8-9.1-20.1-17.4-23.8-3-1.3-9.1-2.4-11.7-2.5" />
    <path
       id="Shape 62"
       fill-rule="evenodd"
       class="s15"
       d="m600 354.3l0.1 2.1c2.2-4 22.2 2.4 22.5 16.8l0.3 62.7c-0.5 13.4-18.2 22-22.8 20" />
    <path
       id="Shape 63"
       fill-rule="evenodd"
       class="s15"
       d="m167.2 452.2c-7.1 3.9-19.3-3.8-20.2-17.2l-0.4-62.8c0.7-11.6 18.6-23.4 21.1-16.8z" />
    <path
       id="Shape 30"
       fill-rule="evenodd"
       class="s1"
       d="m586.6 259.8c1.7 4.3-4.1 13-10.3 14.3l0.4 1.6c1.3 2.5 9 34 8.1 43.5l-0.1 0.7h8.4c6.2 0.4 10.9 8.4 9.9 12.1l0.6 138.8c-0.7 3.2-3.2 11.5-13 12.3l-30.4-0.4c-6.8-0.7-11-6.7-10.7-12.5l-0.3-135.9c0-5.2 4.7-15.7 12.6-14.5l15.7 0.2 0.1-0.9c0.9-6.5-5.9-36.8-8.1-40.8l-0.3-1.1c-6.3 1.1-9.8-1.2-13-7.9-28.4-59.5-88.2-100.6-167.2-105.1-76.6-4.5-152.5 45.6-179 107-1.3 3-4.1 5.1-6.5 5.9l-5.5-0.1-0.4 1.5c-3.6 6.1-7.8 27-7.5 41.6l15-0.3c7.1-0.6 12.7 6.7 13.4 12.6l-0.4 139.8c0.1 9-6.6 9.5-12.6 9.8l-31.4-0.4c-7.5-0.2-9.6-2.9-9.7-12.4l-0.4-138.2c0.2-5.8 4.6-11.4 10.7-11l7.5-0.8c0.5-5.2 1.1-22.1 5.3-34.3 1.5-4.4 3.5-8.9 3.8-10.8 0-0.7 0.1-0.3-0.6-0.5-12.4-4-10.3-14.4-10-15.1 0.3-0.6 9.5-20.5 12.3-21.8 1.3-0.6-0.7 1.8-2.3 4.8-1.3 2.3-2.2 5.4-2.4 5.8-1.9 4.5 1.7 6.5 3.6 3.6 10.3-16.3 29.2-37.3 35.6-43.7 2.2-2.2 0.2-5.7-2.1-4.8-3.2 1.3-8.4 8.2-10.1 8.9-2.3 0.8-4.1-0.5-1.9-3 56.8-64.2 127.8-79.4 176.8-79.6 29.8-0.1 73.1 11.8 110.7 34.2 42 24.9 73.6 67.3 85.7 96.9z" />
    <path
       id="Shape 66"
       fill-rule="evenodd"
       class="s16"
       d="m186.9 329.4v143.5zm393.5-0.3v144.4z" />
    <path
       id="Shape 68"
       fill-rule="evenodd"
       class="s17"
       d="m557.4 337.8c0.6-4.4 2.3-6.3 6.1-6.9" />
    <path
       id="Shape 67"
       fill-rule="evenodd"
       class="s0"
       d="m557.5 347c-1.4 0-2.5-1.1-2.5-2.5 0-1.4 1.1-2.5 2.5-2.5 1.4 0 2.5 1.1 2.5 2.5 0 1.4-1.1 2.5-2.5 2.5z" />
    <path
       id="Shape 24"
       fill-rule="evenodd"
       class="s0"
       d="m170.6 403.3c-1.4-0.1-2.6-1.2-2.6-2.7 0-1.4 1.2-2.6 2.6-2.6 1.5 0 2.7 1.2 2.7 2.6 0 1.5-1.2 2.6-2.7 2.6z" />
    <path
       id="Shape 25"
       fill-rule="evenodd"
       class="s18"
       d="m171 376.3v9.7" />
    <path
       id="Shape 21"
       fill-rule="evenodd"
       class="s18"
       d="m170.4 344l0.1 18.5" />
    <rect
       style="display:none;fill:#ffc580;fill-opacity:1"
       id="rect18"
       width="740.55634"
       height="89.086311"
       x="15.62177"
       y="577.58331"
       rx="10"
       ry="10" />
  </g>
  <path
     d="m 65.408445,486.28271 q -0.247806,8.42541 -4.336605,12.3903 -3.964896,3.9649 -11.770785,3.9649 H 44.96445 v -16.3552 z m 0,47.33095 H 44.96445 v -16.603 h 4.336605 q 7.43418,0.2478 14.86836,-3.09758 0.619515,0.99123 0.867321,1.98245 0.371709,0.86732 0.371709,1.85855 z m 14.124942,-19.82448 q 0,-2.84977 -0.991224,-4.95612 -0.991224,-2.10635 -3.593187,-4.2127 0.991224,-2.10635 1.858545,-4.2127 0.867321,-2.10635 1.610739,-3.9649 0.619515,-2.47806 0.867321,-4.70831 0.247806,-2.23026 0.247806,-4.95612 v -3.841 q 0,-4.58441 -3.097575,-7.80589 -3.097575,-3.22147 -7.805889,-3.22147 H 30.467799 v 75.95254 h 38.162124 q 4.708314,0 7.805889,-3.22148 3.097575,-3.22148 3.097575,-7.68199 z m -49.313394,35.06455 h -0.495612 v -78.05889 h 38.905542 q 2.47806,0 4.584411,0.86732 2.230254,0.86732 3.71709,2.47806 l 7.681986,4.2127 q -0.247806,-0.2478 -0.495612,-0.2478 l 0.495612,0.2478 q 2.849769,1.61074 4.460508,4.33661 1.610739,2.60196 1.610739,5.94734 v 3.84099 q 0,5.32783 -1.23903,9.78834 l -0.371709,0.99123 q -0.619515,1.73464 -1.362933,3.46928 -0.619515,1.61074 -1.486836,3.34538 2.601963,2.23025 3.469284,4.33661 0.991224,1.98244 0.991224,5.08002 v 23.29376 q 0,2.23026 -0.991224,4.33661 -0.867321,2.10635 -2.47806,3.71709 -1.486836,1.61074 -3.71709,2.60196 -2.106351,0.99122 -4.708314,0.99122 H 40.256136 Z m 34.073325,-25.27621 q -2.354157,0.2478 -4.584411,0 h -3.71709 v 8.79711 h 8.301501 z m -8.301501,-22.92206 q 5.575635,-1.85854 7.43418,-7.80589 h -7.43418 z m 88.962373,32.9582 h -34.69284 v -16.603 h 4.3366 q 2.47806,0 4.58441,-0.24781 2.23026,-0.2478 4.70832,-0.86732 4.46051,-0.99122 7.18637,-2.72586 h -0.1239 l 0.61951,-0.37171 q 1.11513,-0.74342 2.35416,-1.48684 1.23903,-0.74342 2.97367,-2.72587 -0.99122,-1.36293 -2.47806,-2.84976 -1.36293,-1.61074 -2.35415,-2.60197 l -1.98245,-2.60196 -2.60196,-2.60196 q -2.23026,2.72586 -5.57564,3.71709 -3.22148,0.99122 -7.31028,0.99122 h -4.3366 v -16.3552 h 34.69284 V 471.90997 H 95.764698 v 75.95254 h 49.189492 z m 1.23903,-0.61951 9.78834,5.45173 v 15.98348 H 105.55303 L 95.516892,548.85373 H 95.02128 v -78.05889 h 51.17194 v 0.61951 l 9.78834,5.45174 v 15.98348 h -34.69284 v 7.80589 q 1.73464,-0.61951 3.22147,-1.61074 1.48684,-1.11512 2.97368,-2.60196 l 1.11512,0.99122 9.04492,5.08003 3.22148,3.22148 2.10635,2.47806 q 0.99122,0.99122 2.60196,2.97367 1.61074,1.85854 2.72587,3.22148 -1.73464,1.85854 -2.84977,2.72586 -1.11513,0.74342 -1.85854,1.36293 h -0.12391 q -0.61951,0.24781 -0.86732,0.37171 -0.1239,0.12391 -0.37171,0.24781 h 0.24781 q -0.1239,0.1239 -0.24781,0.1239 0,0 -0.1239,0.12391 -0.1239,0.1239 -0.24781,0.1239 -3.22147,2.10635 -7.43418,2.97367 -2.47806,0.61952 -4.83221,0.86732 -2.23026,0.24781 -4.70832,0.24781 h -3.59318 v 8.79711 h 24.9045 z m -13.62933,-19.94839 q -0.24781,0 -0.37171,0.12391 0,0 -0.1239,0 z m 78.18281,20.5679 h -34.69284 v -16.603 h 4.3366 q 2.47806,0 4.58442,-0.24781 2.23025,-0.2478 4.70831,-0.86732 4.46051,-0.99122 7.18637,-2.72586 h -0.1239 l 0.61952,-0.37171 q 1.11512,-0.74342 2.35415,-1.48684 1.23903,-0.74342 2.97367,-2.72587 -0.99122,-1.36293 -2.47806,-2.84976 -1.36293,-1.61074 -2.35415,-2.60197 l -1.98245,-2.60196 -2.60196,-2.60196 q -2.23026,2.72586 -5.57564,3.71709 -3.22148,0.99122 -7.31028,0.99122 h -4.3366 v -16.3552 h 34.69284 v -14.37274 h -49.18949 v 75.95254 h 49.18949 z m 1.23903,-0.61951 9.78834,5.45173 v 15.98348 h -50.42852 l -10.03615,-5.57563 h -0.49561 v -78.05889 h 51.17194 v 0.61951 l 9.78834,5.45174 v 15.98348 h -34.69284 v 7.80589 q 1.73464,-0.61951 3.22147,-1.61074 1.48684,-1.11512 2.97368,-2.60196 l 1.11512,0.99122 9.04492,5.08003 3.22148,3.22148 2.10635,2.47806 q 0.99123,0.99122 2.60196,2.97367 1.61074,1.85854 2.72587,3.22148 -1.73464,1.85854 -2.84977,2.72586 -1.11513,0.74342 -1.85854,1.36293 h -0.12391 q -0.61951,0.24781 -0.86732,0.37171 -0.1239,0.12391 -0.37171,0.24781 h 0.24781 q -0.1239,0.1239 -0.24781,0.1239 0,0 -0.1239,0.12391 -0.1239,0.1239 -0.24781,0.1239 -3.22147,2.10635 -7.43418,2.97367 -2.47806,0.61952 -4.83221,0.86732 -2.23026,0.24781 -4.70832,0.24781 h -3.59318 v 8.79711 h 24.9045 z M 198.3564,513.04576 q -0.24781,0 -0.37171,0.12391 0,0 -0.1239,0 z m 64.55348,-26.88695 q -0.24781,8.54931 -4.3366,12.5142 -3.9649,3.9649 -11.77079,3.9649 h -4.3366 v -16.4791 z m 14.24885,61.7037 v -34.19723 q 0,-5.08003 -4.58442,-8.92102 0.99123,-1.73464 1.73465,-3.96489 0.74341,-2.23026 1.36293,-3.9649 0,-0.24781 0.1239,-0.37171 v 0.24781 q 0.61952,-2.47806 0.99123,-4.95612 0.37171,-2.47806 0.37171,-5.08003 v -3.71709 q 0,-4.58441 -3.09758,-7.80589 -3.09757,-3.34538 -7.80589,-3.34538 h -38.28603 v 76.07645 h 14.49666 v -30.85185 h 4.3366 q 3.34538,0 7.06247,-0.74342 3.84099,-0.74342 7.68199,-2.35416 0.86732,1.11513 1.11512,1.98245 0.24781,0.86732 0.24781,1.85855 v 30.10843 z m -49.4373,0.99122 h -0.49561 v -78.18279 h 39.02944 q 4.83222,0 8.1776,3.34538 l 7.68199,4.2127 q 2.84976,1.61074 4.4605,4.3366 1.61074,2.72587 1.61074,6.07125 v 3.71709 q 0,5.45173 -1.36293,10.16005 -0.1239,0.1239 -0.1239,0.2478 0,0.24781 -0.12391,0.61952 0,0.2478 -0.37171,0.86732 h 0.12391 q -0.49561,1.11513 -1.48684,3.09757 -0.86732,1.85855 -1.23903,2.84977 l 0.24781,0.12391 q 4.3366,3.96489 4.3366,9.04492 v 35.06454 h -15.73568 l -9.78834,-5.57563 h -0.86732 v -25.40012 q -1.23903,0.12391 -2.47806,0.12391 -1.11512,0 -2.23025,0 h -3.59319 v 30.85184 h -15.73568 z m 25.77182,-48.19827 q 5.57564,-1.85854 7.55809,-7.92979 h -7.55809 z m 20.19619,2.84977 -0.2478,0.49561 v 0.12391 z m 47.08324,-31.59526 v 75.95254 h 38.16212 q 4.58441,0 7.68199,-3.22148 3.22148,-3.22148 3.22148,-7.68199 v -54.02171 q 0,-4.58441 -3.22148,-7.80589 -3.09758,-3.22147 -7.68199,-3.22147 z m 14.62055,14.37274 h 20.32009 v 47.33095 h -20.56789 v -33.57771 z m 23.54157,-15.48787 q 4.70832,0 8.3015,3.34538 l 7.68199,4.2127 q -0.49561,-0.2478 -0.61952,-0.2478 l 0.61952,0.2478 q 2.84977,1.61074 4.46051,4.33661 1.61074,2.60196 1.61074,5.94734 v 54.14561 q 0,2.23026 -0.99123,4.33661 -0.86732,2.10635 -2.47806,3.71709 -1.61074,1.61074 -3.84099,2.60196 -2.10635,0.99122 -4.46051,0.99122 h -38.65774 l -9.78833,-5.57563 h -0.74342 v -78.05889 z m -12.76201,61.57979 h 8.42541 v -39.52506 h -8.1776 l -0.24781,12.88592 z m 74.83743,-46.21582 q -0.2478,8.54931 -4.3366,12.5142 -3.9649,3.9649 -11.77079,3.9649 h -4.3366 v -16.4791 z m 14.24885,61.7037 v -34.19723 q 0,-5.08003 -4.58441,-8.92102 0.99122,-1.73464 1.73464,-3.96489 0.74342,-2.23026 1.36293,-3.9649 0,-0.24781 0.1239,-0.37171 v 0.24781 q 0.61952,-2.47806 0.99123,-4.95612 0.37171,-2.47806 0.37171,-5.08003 v -3.71709 q 0,-4.58441 -3.09758,-7.80589 -3.09757,-3.34538 -7.80589,-3.34538 h -38.28602 v 76.07645 h 14.49665 v -30.85185 h 4.3366 q 3.34538,0 7.06247,-0.74342 3.841,-0.74342 7.68199,-2.35416 0.86732,1.11513 1.11513,1.98245 0.2478,0.86732 0.2478,1.85855 v 30.10843 z m -49.4373,0.99122 h -0.49561 v -78.18279 h 39.02944 q 4.83222,0 8.1776,3.34538 l 7.68199,4.2127 q 2.84977,1.61074 4.46051,4.3366 1.61073,2.72587 1.61073,6.07125 v 3.71709 q 0,5.45173 -1.36293,10.16005 -0.1239,0.1239 -0.1239,0.2478 0,0.24781 -0.1239,0.61952 0,0.2478 -0.37171,0.86732 h 0.1239 q -0.49561,1.11513 -1.48684,3.09757 -0.86732,1.85855 -1.23903,2.84977 l 0.24781,0.12391 q 4.3366,3.96489 4.3366,9.04492 v 35.06454 h -15.73568 l -9.78833,-5.57563 h -0.86732 v -25.40012 q -1.23903,0.12391 -2.47806,0.12391 -1.11513,0 -2.23026,0 h -3.59319 v 30.85184 h -15.73568 z m 25.77182,-48.19827 q 5.57564,-1.85854 7.55809,-7.92979 h -7.55809 z m 20.19619,2.84977 -0.2478,0.49561 v 0.12391 z m 34.19725,-31.59526 h -14.24885 v 75.95254 h 14.24885 z m 1.23903,-0.49562 9.78834,5.45174 v 77.56327 h -15.48788 l -10.03614,-5.57563 h -0.49561 v -78.05889 h 16.23129 z m 39.52496,62.81883 q -3.59319,-3.22148 -5.82344,-7.68199 -2.23026,-4.58441 -3.22148,-9.78834 -0.61952,-2.72586 -0.86732,-5.20392 -0.12391,-2.47806 -0.12391,-5.32783 v -34.32113 h -14.49665 v 34.32113 q 0,14.12494 4.95612,24.53279 4.95612,10.40785 14.00104,17.09862 h 11.27517 q 9.04492,-6.69077 13.87714,-17.09862 4.95612,-10.40785 4.95612,-24.53279 v -34.32113 h -14.24884 v 34.32113 q 0,4.2127 -0.49562,7.92979 -0.49561,3.59319 -1.73464,6.93857 -1.11513,3.34538 -3.09757,6.56686 -1.98245,3.22147 -4.95612,6.56686 z m -5.32783,14.62055 h -0.74342 q -9.41663,-6.81467 -14.37275,-17.47032 -4.83222,-10.77956 -4.83222,-25.15231 v -35.43626 h 16.4791 v 0.61951 l 9.78834,5.45174 v 35.06455 q 0,2.72586 0.1239,5.32782 0.24781,2.47806 0.86732,5.08003 0.24781,1.61074 0.61952,2.97367 0.49561,1.23903 0.86732,2.60196 3.22148,-5.08002 4.46051,-10.28395 1.23903,-5.20392 1.23903,-11.39907 v -35.43626 h 16.603 v 0.61951 l 9.78834,5.45174 v 35.06455 q 0,14.37274 -4.95612,25.0284 -4.95612,10.53176 -14.12494,17.47032 h -12.0186 z m 95.15749,-15.24007 h -34.69284 v -16.603 h 4.33661 q 2.47806,0 4.58441,-0.24781 2.23025,-0.2478 4.70831,-0.86732 4.46051,-0.99122 7.18638,-2.72586 h -0.1239 l 0.61951,-0.37171 q 1.11513,-0.74342 2.35416,-1.48684 1.23903,-0.74342 2.97367,-2.72587 -0.99122,-1.36293 -2.47806,-2.84976 -1.36293,-1.61074 -2.35416,-2.60197 l -1.98245,-2.60196 -2.60196,-2.60196 q -2.23025,2.72586 -5.57563,3.71709 -3.22148,0.99122 -7.31028,0.99122 h -4.33661 v -16.3552 h 34.69284 v -14.37274 h -49.18949 v 75.95254 h 49.18949 z m 1.23903,-0.61951 9.78834,5.45173 v 15.98348 h -50.42852 l -10.03614,-5.57563 h -0.49561 v -78.05889 h 51.17193 v 0.61951 l 9.78834,5.45174 v 15.98348 h -34.69284 v 7.80589 q 1.73464,-0.61951 3.22148,-1.61074 1.48684,-1.11512 2.97367,-2.60196 l 1.11513,0.99122 9.04492,5.08003 3.22148,3.22148 2.10635,2.47806 q 0.99122,0.99122 2.60196,2.97367 1.61074,1.85854 2.72587,3.22148 -1.73465,1.85854 -2.84977,2.72586 -1.11513,0.74342 -1.85855,1.36293 h -0.1239 q -0.61952,0.24781 -0.86732,0.37171 -0.12391,0.12391 -0.37171,0.24781 h 0.2478 q -0.1239,0.1239 -0.2478,0.1239 0,0 -0.1239,0.12391 -0.12391,0.1239 -0.24781,0.1239 -3.22148,2.10635 -7.43418,2.97367 -2.47806,0.61952 -4.83222,0.86732 -2.23025,0.24781 -4.70831,0.24781 h -3.59319 v 8.79711 h 24.9045 z m -13.62933,-19.94839 q -0.2478,0 -0.3717,0.12391 0,0 -0.12391,0 z m 28.74555,-41.2597 v 76.07645 h 14.37275 v -54.64123 q 7.31027,13.00982 12.01859,26.51524 4.83221,13.50543 8.4254,28.12599 h 14.24885 v -76.07645 h -14.12495 l 0.12391,30.97575 q -2.10635,-4.0888 -4.58441,-8.5493 -2.35416,-4.58441 -4.95612,-8.67321 -2.60197,-4.21271 -5.08003,-7.80589 -2.47806,-3.59319 -4.70831,-5.94735 z m 16.4791,-0.86732 0.74342,0.86732 9.29272,5.20393 q 1.73464,1.73464 3.46928,4.3366 1.85855,2.60197 3.9649,5.45174 v -1.61074 q 0,-3.59319 -0.1239,-7.31028 0,-3.71709 0,-7.18637 h 16.4791 v 0.61951 l 9.91224,5.45173 v 77.68718 H 657.2932 l -9.66443,-5.57563 h -0.86732 q -1.98245,-7.43418 -3.9649,-14.37275 -1.98245,-6.93857 -4.46051,-13.87713 v 33.82551 h -15.61177 l -9.78834,-5.57563 h -0.74342 v -78.18279 h 16.603 z m 76.57225,0.99123 v 75.95254 h 38.16212 q 4.58441,0 7.68199,-3.22148 3.22148,-3.22148 3.22148,-7.68199 v -54.02171 q 0,-4.58441 -3.22148,-7.80589 -3.09758,-3.22147 -7.68199,-3.22147 z m 14.62055,14.37274 h 20.32009 v 47.33095 h -20.56789 v -33.57771 z m 23.54157,-15.48787 q 4.70832,0 8.3015,3.34538 l 7.68199,4.2127 q -0.49561,-0.2478 -0.61952,-0.2478 l 0.61952,0.2478 q 2.84977,1.61074 4.46051,4.33661 1.61074,2.60196 1.61074,5.94734 v 54.14561 q 0,2.23026 -0.99123,4.33661 -0.86732,2.10635 -2.47806,3.71709 -1.61074,1.61074 -3.84099,2.60196 -2.10635,0.99122 -4.46051,0.99122 h -38.65774 l -9.78833,-5.57563 h -0.74342 v -78.05889 z m -12.76201,61.57979 h 8.42541 v -39.52506 h -8.1776 l -0.24781,12.88592 z m 88.46673,1.23903 h -34.69284 v -16.603 h 4.33661 q 2.47806,0 4.58441,-0.24781 2.23025,-0.2478 4.70831,-0.86732 4.46051,-0.99122 7.18638,-2.72586 h -0.12391 l 0.61952,-0.37171 q 1.11512,-0.74342 2.35415,-1.48684 1.23903,-0.74342 2.97368,-2.72587 -0.99123,-1.36293 -2.47806,-2.84976 -1.36294,-1.61074 -2.35416,-2.60197 l -1.98245,-2.60196 -2.60196,-2.60196 q -2.23026,2.72586 -5.57564,3.71709 -3.22147,0.99122 -7.31027,0.99122 h -4.33661 v -16.3552 h 34.69284 v -14.37274 h -49.18949 v 75.95254 h 49.18949 z m 1.23903,-0.61951 9.78834,5.45173 v 15.98348 h -50.42852 l -10.03615,-5.57563 h -0.49561 v -78.05889 h 51.17194 v 0.61951 l 9.78834,5.45174 v 15.98348 h -34.69284 v 7.80589 q 1.73464,-0.61951 3.22148,-1.61074 1.48683,-1.11512 2.97367,-2.60196 l 1.11513,0.99122 9.04491,5.08003 3.22148,3.22148 2.10635,2.47806 q 0.99123,0.99122 2.60197,2.97367 1.61074,1.85854 2.72586,3.22148 -1.73464,1.85854 -2.84977,2.72586 -1.11512,0.74342 -1.85854,1.36293 h -0.1239 q -0.61952,0.24781 -0.86733,0.37171 -0.1239,0.12391 -0.3717,0.24781 h 0.2478 q -0.1239,0.1239 -0.2478,0.1239 0,0 -0.12391,0.12391 -0.1239,0.1239 -0.2478,0.1239 -3.22148,2.10635 -7.43418,2.97367 -2.47806,0.61952 -4.83222,0.86732 -2.23025,0.24781 -4.70831,0.24781 h -3.59319 v 8.79711 h 24.9045 z m -13.62933,-19.94839 q -0.2478,0 -0.37171,0.12391 0,0 -0.1239,0 z m 53.77395,21.18742 q -3.59318,-3.22148 -5.82344,-7.68199 -2.23025,-4.58441 -3.22148,-9.78834 -0.61951,-2.72586 -0.86732,-5.20392 -0.1239,-2.47806 -0.1239,-5.32783 v -34.32113 h -14.49665 v 34.32113 q 0,14.12494 4.95612,24.53279 4.95612,10.40785 14.00104,17.09862 h 11.27517 q 9.04492,-6.69077 13.87714,-17.09862 4.95612,-10.40785 4.95612,-24.53279 v -34.32113 h -14.24885 v 34.32113 q 0,4.2127 -0.49561,7.92979 -0.49561,3.59319 -1.73464,6.93857 -1.11513,3.34538 -3.09758,6.56686 -1.98245,3.22147 -4.95612,6.56686 z m -5.32783,14.62055 h -0.74341 q -9.41663,-6.81467 -14.37275,-17.47032 -4.83222,-10.77956 -4.83222,-25.15231 v -35.43626 h 16.4791 v 0.61951 l 9.78834,5.45174 v 35.06455 q 0,2.72586 0.1239,5.32782 0.24781,2.47806 0.86732,5.08003 0.24781,1.61074 0.61952,2.97367 0.49561,1.23903 0.86732,2.60196 3.22147,-5.08002 4.4605,-10.28395 1.23903,-5.20392 1.23903,-11.39907 v -35.43626 h 16.60301 v 0.61951 l 9.78833,5.45174 v 35.06455 q 0,14.37274 -4.95612,25.0284 -4.95612,10.53176 -14.12494,17.47032 h -12.01859 z m 81.89988,-31.96697 v 16.603 h -34.81674 v 14.37275 h 38.28602 q 4.70832,0 7.80589,-3.22148 3.09758,-3.22148 3.09758,-7.80589 v -23.16986 q 0,-4.58441 -3.09758,-7.80589 -3.09757,-3.22148 -7.80589,-3.22148 h -7.80589 q -7.80589,0 -11.77078,-3.9649 -3.9649,-3.96489 -4.2127,-12.5142 h 34.69284 v -14.37275 h -38.03822 q -4.70832,0 -7.9298,3.22148 -3.22147,3.09758 -3.22147,7.80589 v 3.84099 q 0,5.20393 1.48683,10.16005 0.74342,1.98245 1.73464,4.3366 1.11513,2.35416 1.98245,3.9649 1.73464,2.10635 4.0888,4.33661 2.35416,2.23025 4.83222,3.71709 2.10635,0.86732 4.0888,1.61073 1.98244,0.74342 3.09757,1.11513 v -0.1239 q 0.74342,0.37171 1.36293,0.49561 0.74342,0.1239 1.85855,0.24781 l 2.23025,0.37171 z m -35.06455,31.96697 h -0.99122 v -16.603 h 34.94064 v -9.16882 q -0.74342,-0.12391 -1.23903,-0.12391 -0.49561,-0.1239 -1.11513,-0.49561 -0.61951,-0.24781 -1.98244,-0.74342 -1.23903,-0.49561 -2.97368,-1.36293 l -0.49561,-0.24781 q -0.2478,-0.1239 -0.74342,-0.2478 -0.3717,-0.12391 -1.48683,-0.61952 -1.11513,-0.61951 -3.09758,-1.61074 -1.85854,-1.11512 -5.08002,-2.97367 l -0.99122,-0.2478 -1.48684,-0.49562 q -2.10635,-1.23903 -4.58441,-3.59318 -2.35416,-2.35416 -3.9649,-4.46051 -1.11512,-1.98245 -2.35415,-4.33661 -1.11513,-2.35415 -1.85855,-4.3366 -1.48683,-4.95612 -1.48683,-10.53176 v -3.84099 q 0,-5.20393 3.59318,-8.67321 3.71709,-3.46928 8.79712,-3.46928 h 39.15334 v 0.61951 l 9.91224,5.45173 v 15.98349 h -34.69284 q 0.61952,5.45173 2.47806,8.67321 0.61952,0.1239 1.11513,0.1239 0.61952,0 1.36293,0 h 7.80589 q 2.35416,0 4.46051,0.86732 2.23025,0.86733 3.71709,2.47806 l 7.80589,4.0888 q 2.84977,1.73465 4.3366,4.33661 1.61074,2.60196 1.61074,6.07125 v 23.29376 q 0,4.70831 -3.34538,8.3015 -3.22148,3.46928 -8.4254,3.46928 h -38.65774 z"
     id="text16"
     style="font-size:123.903px;font-family:'Oktoberfest 1980 White';-inkscape-font-specification:'Oktoberfest 1980 White';fill:#cf8c4f;stroke-width:1.29065"
     transform="scale(0.77480166,1.2906529)"
     aria-label="Beer Driven Devs" />
  <metadata
     id="metadata18">
    <rdf:RDF>
      <cc:Work
         rdf:about="">
        <dc:title>BDDLogo</dc:title>
      </cc:Work>
    </rdf:RDF>
  </metadata>
</svg>
