<?xml version="1.0" encoding="UTF-8" standalone="no"?>
<svg
   version="1.2"
   viewBox="0 0 685 100"
   width="685"
   height="100"
   id="svg16"
   sodipodi:docname="BDDLogo-v2-wide.svg"
   inkscape:version="1.3.2 (091e20e, 2023-11-25, custom)"
   xmlns:inkscape="http://www.inkscape.org/namespaces/inkscape"
   xmlns:sodipodi="http://sodipodi.sourceforge.net/DTD/sodipodi-0.dtd"
   xmlns="http://www.w3.org/2000/svg"
   xmlns:svg="http://www.w3.org/2000/svg"
   xmlns:rdf="http://www.w3.org/1999/02/22-rdf-syntax-ns#"
   xmlns:cc="http://creativecommons.org/ns#"
   xmlns:dc="http://purl.org/dc/elements/1.1/">
  <sodipodi:namedview
     id="namedview16"
     pagecolor="#ffffff"
     bordercolor="#000000"
     borderopacity="0.25"
     inkscape:showpageshadow="2"
     inkscape:pageopacity="0.0"
     inkscape:pagecheckerboard="0"
     inkscape:deskcolor="#d1d1d1"
     inkscape:zoom="1.6747751"
     inkscape:cx="819.21447"
     inkscape:cy="362.13818"
     inkscape:window-width="3840"
     inkscape:window-height="2054"
     inkscape:window-x="-11"
     inkscape:window-y="-11"
     inkscape:window-maximized="1"
     inkscape:current-layer="svg16" />
  <title
     id="title1">BDDLogo</title>
  <defs
     id="defs14">
    <linearGradient
       id="g1"
       x2="1"
       gradientUnits="userSpaceOnUse"
       gradientTransform="matrix(148.021,0.305,1.292,191.218,210.212,338.855)">
      <stop
         offset=".108"
         stop-color="#d8a570"
         id="stop1" />
      <stop
         offset=".165"
         stop-color="#ffeed0"
         id="stop2" />
      <stop
         offset=".988"
         stop-color="#d8a570"
         id="stop3" />
    </linearGradient>
    <linearGradient
       id="g2"
       x2="1"
       gradientUnits="userSpaceOnUse"
       gradientTransform="matrix(148.021,0.305,1.292,191.218,404.212,338.855)">
      <stop
         offset=".108"
         stop-color="#d8a570"
         id="stop4" />
      <stop
         offset=".165"
         stop-color="#ffeed0"
         id="stop5" />
      <stop
         offset=".988"
         stop-color="#d8a570"
         id="stop6" />
    </linearGradient>
    <linearGradient
       id="g3"
       x2="1"
       gradientUnits="userSpaceOnUse"
       gradientTransform="matrix(143.655,-0.449,-0.161,148.921,212.681,382.673)">
      <stop
         offset=".858"
         stop-color="#ffc580"
         id="stop7" />
      <stop
         offset="1"
         stop-color="#be773d"
         id="stop8" />
    </linearGradient>
    <linearGradient
       id="g4"
       x2="1"
       gradientUnits="userSpaceOnUse"
       gradientTransform="matrix(143.655,-0.449,-0.161,148.921,410.681,382.673)">
      <stop
         offset=".858"
         stop-color="#ffc580"
         id="stop9" />
      <stop
         offset="1"
         stop-color="#be773d"
         id="stop10" />
    </linearGradient>
    <linearGradient
       id="g5"
       x2="1"
       gradientUnits="userSpaceOnUse"
       gradientTransform="matrix(0.334,0.001,0.334,49.447,216.955,480.236)">
      <stop
         offset="0"
         stop-color="#ffffff"
         id="stop11" />
      <stop
         offset="1"
         stop-color="#d8a570"
         stop-opacity="0"
         id="stop12" />
    </linearGradient>
    <linearGradient
       id="g6"
       x2="1"
       gradientUnits="userSpaceOnUse"
       gradientTransform="matrix(83.25,0,0,0,233.25,344)">
      <stop
         offset="0"
         stop-color="#ffffff"
         id="stop13" />
      <stop
         offset="1"
         stop-color="#fffcf6"
         stop-opacity="0"
         id="stop14" />
    </linearGradient>
  </defs>
  <style
     id="style14">
		.s0 { fill: #ffeed0 } 
		.s1 { fill: #01373e } 
		.s2 { fill: none;stroke: #01373e;stroke-linecap: round;stroke-miterlimit:10;stroke-width: 6 } 
		.s3 { fill: url(#g1) } 
		.s4 { fill: url(#g2) } 
		.s5 { fill: url(#g3) } 
		.s6 { fill: url(#g4) } 
		.s7 { fill: url(#g5) } 
		.s8 { fill: none;stroke: #01373e;stroke-linecap: round;stroke-miterlimit:10;stroke-width: 12 } 
		.s9 { fill: none;stroke: #ffffff;stroke-miterlimit:10;stroke-width: 3 } 
		.s10 { fill: none;stroke: url(#g6);stroke-miterlimit:10;stroke-width: 3 } 
		.s11 { fill: none;stroke: #fffefa;stroke-linecap: round;stroke-miterlimit:10;stroke-width: 12 } 
		.s12 { fill: none;stroke: #01373e;stroke-miterlimit:10;stroke-width: 9 } 
		.s13 { fill: none;stroke: #ffffff;stroke-linecap: round;stroke-miterlimit:10;stroke-width: 7.5 } 
		.s14 { fill: none;stroke: #01373e;stroke-miterlimit:10;stroke-width: 12 } 
		.s15 { fill: #ffc580;stroke: #ffeed0;stroke-miterlimit:10;stroke-width: 6 } 
		.s16 { fill: none;stroke: #ffeed0;stroke-miterlimit:10;stroke-width: 6 } 
		.s17 { fill: none;stroke: #ffeed0;stroke-linecap: round;stroke-miterlimit:10;stroke-width: 4 } 
		.s18 { fill: none;stroke: #ffeed0;stroke-linecap: round;stroke-miterlimit:10;stroke-width: 5.3 } 
	</style>
  <path
     id="Shape 69"
     fill-rule="evenodd"
     class="s0"
     d="m 685.09826,1.058331 v 98.64215 H -0.06016027 V 1.058331 Z"
     style="stroke-width:0.331176" />
  <g
     id="Folder 6"
     transform="matrix(0.18701638,0,0,0.18701638,-8.8288303,-16.109239)">
    <path
       id="Shape 39"
       fill-rule="evenodd"
       class="s2"
       d="m 154.6,562.4 220,-0.1" />
    <path
       id="Shape 40"
       fill-rule="evenodd"
       class="s2"
       d="M 124.8,562.6 H 115" />
    <path
       id="Shape 43"
       fill-rule="evenodd"
       class="s2"
       d="m 95.4,562.4 h 10.4" />
    <path
       id="Shape 44"
       fill-rule="evenodd"
       class="s2"
       d="M 392.3,562.3 H 612" />
    <path
       id="Shape 45"
       fill-rule="evenodd"
       class="s2"
       d="m 636,562.3 h 26.3" />
    <path
       id="Shape 46"
       fill-rule="evenodd"
       class="s2"
       d="m 683.3,562.3 h 7.5" />
    <path
       id="Shape 42"
       fill-rule="evenodd"
       class="s2"
       d="m 75.8,562.6 h 4.7" />
  </g>
  <g
     id="Layer 1"
     transform="matrix(0.18701638,0,0,0.18701638,-8.8288303,-16.109239)">
    <path
       id="Shape 59"
       fill-rule="evenodd"
       class="s3"
       d="m 358.2,339.2 1.3,191.1 -148,-0.2 -1.2,-191.2 z"
       style="fill:url(#g1)" />
    <path
       id="Shape 59 copy"
       fill-rule="evenodd"
       class="s4"
       d="m 552.2,339.2 1.3,191.1 -148,-0.2 -1.2,-191.2 z"
       style="fill:url(#g2)" />
    <path
       id="Shape 58"
       fill-rule="evenodd"
       class="s5"
       d="m 356.3,382.2 -0.2,148.9 -143.6,0.5 0.2,-148.9 z"
       style="fill:url(#g3)" />
    <path
       id="Shape 58 copy"
       fill-rule="evenodd"
       class="s6"
       d="m 554.3,382.2 -0.2,148.9 -143.6,0.5 0.2,-148.9 z"
       style="fill:url(#g4)" />
    <path
       id="Shape 61"
       fill-rule="evenodd"
       class="s7"
       d="m 217.3,480.2 v 49.5 z"
       style="fill:url(#g5)" />
    <g
       id="Folder 4">
      <path
         id="Shape 37"
         fill-rule="evenodd"
         class="s8"
         d="m 207,480.4 v 48.8 c 1,17.3 10.6,25.4 20.5,26 l 105.8,0.5 c 21.4,-0.7 27.1,-9.2 27.9,-27.8 V 338.1" />
      <path
         id="Shape 60"
         fill-rule="evenodd"
         class="s1"
         d="m 222,531.6 125.4,-0.5 c -0.5,3.5 -5.3,9.1 -9.9,9.4 H 231 c -4.1,-0.2 -8.6,-4.6 -9,-8.9 z" />
      <path
         id="Shape 60 copy"
         fill-rule="evenodd"
         class="s1"
         d="m 421,531.6 125.4,-0.5 c -0.5,3.5 -5.3,9.1 -9.9,9.4 H 430 c -4.1,-0.2 -8.6,-4.6 -9,-8.9 z" />
      <path
         id="Shape 36"
         fill-rule="evenodd"
         class="s1"
         d="m 355.7,383 -30.4,0.3 c -2.4,0.1 -4.2,1.7 -4.3,3.5 l 0.1,23.2 c 0.2,11.6 -18,11.9 -18.3,0.4 l 0.2,-23.2 c 0.1,-2.1 -0.9,-3.6 -2.5,-3.6 l -83.2,0.1 0.1,-10.9 h 138.3 z" />
      <path
         id="Shape 32"
         fill-rule="evenodd"
         class="s1"
         d="m 267.3,290.2 c 5.5,-0.8 17.1,-0.5 23,2.4 5.4,2.7 12,7.5 15.5,13.9 0.8,1.6 1.1,2.2 1.1,2.2 l 1.3,-1 c 4,-3 12.3,-4 20.3,-1.3 14.9,4.9 20.4,17 22.3,25.9 l -9.4,0.1 c -2,-11.1 -17.4,-20.5 -30.9,-16.2 l 1.6,8.2 -8.2,0.1 c -0.6,-6.6 -6.9,-17.3 -17.3,-21.6 -13.2,-5.5 -27.9,-2.5 -36.9,9.1 l 8.1,3.2 -2,2.4 c -6.8,-1.8 -13.8,-2.9 -20.8,0.9 -8.3,4.5 -10.7,10.2 -12,13.9 h -7.1 c 0.4,-10.9 6.7,-16.9 9,-18.9 3.4,-2.8 12.5,-6.8 16.5,-5.3 h 0.4 c 3.2,-8.1 14,-16.4 25.5,-18 z" />
      <path
         id="Shape 64"
         fill-rule="evenodd"
         class="s0"
         d="M -1679,-247" />
      <path
         id="Shape 65"
         fill-rule="evenodd"
         class="s0"
         d="M 186.6,403.8 V 436 Z" />
      <path
         id="Shape 19"
         fill-rule="evenodd"
         class="s9"
         d="M 332.3,474.5 332.2,527" />
      <path
         id="Shape 57"
         fill-rule="evenodd"
         class="s10"
         d="m 233.3,344 h 83.2"
         style="stroke:url(#g6)" />
      <path
         id="Shape 18"
         fill-rule="evenodd"
         class="s9"
         d="m 332,468.8 -0.2,-46.1" />
      <path
         id="Shape 16"
         fill-rule="evenodd"
         class="s11"
         d="m 233.4,342.1 0.2,173.8" />
      <path
         id="Shape 38"
         fill-rule="evenodd"
         class="s12"
         d="m 216,336.7 145,-0.1" />
    </g>
    <g
       id="Folder 2">
      <path
         id="Shape 6"
         fill-rule="evenodd"
         class="s1"
         d="m 259.5,467 c -4.6,0 -8.3,-3.7 -8.3,-8.3 0.1,-4.5 3.7,-8.2 8.3,-8.2 4.6,0 8.3,3.7 8.3,8.3 -0.1,4.5 -3.7,8.2 -8.3,8.2 z" />
      <path
         id="Shape 10"
         fill-rule="evenodd"
         class="s1"
         d="m 294.8,500 c -3.4,0 -6.1,-2.7 -6.1,-6 0,-3.3 2.7,-6 6,-6 3.4,0 6,2.7 6,6 0,3.3 -2.6,6 -6,6 z" />
      <path
         id="Shape 11"
         fill-rule="evenodd"
         class="s1"
         d="m 314.3,515 c -2.1,0 -3.8,-1.7 -3.8,-3.8 0,-2 1.7,-3.7 3.7,-3.7 2.1,0 3.8,1.7 3.8,3.8 0,2 -1.7,3.7 -3.8,3.7 z" />
      <path
         id="Shape 12"
         fill-rule="evenodd"
         class="s1"
         d="m 260.3,515 c -1.7,0 -3.1,-1.3 -3.1,-3 0,-1.7 1.4,-3 3,-3 1.7,0 3,1.3 3,3 0,1.7 -1.3,3 -3,3 z" />
      <path
         id="Shape 14"
         fill-rule="evenodd"
         class="s1"
         d="m 281.6,435.5 c -3.1,0 -5.6,-2.5 -5.6,-5.6 0,-3.1 2.5,-5.7 5.6,-5.7 3.1,0 5.6,2.6 5.6,5.7 0,3.1 -2.5,5.6 -5.6,5.6 z" />
      <path
         id="Shape 8"
         fill-rule="evenodd"
         class="s1"
         d="m 253.5,417.9 c -3.5,0 -6.4,-2.9 -6.4,-6.4 0,-3.5 2.9,-6.4 6.4,-6.4 3.5,0 6.4,2.9 6.4,6.4 0,3.5 -2.9,6.4 -6.4,6.4 z" />
      <path
         id="Shape 9"
         fill-rule="evenodd"
         class="s1"
         d="m 310.5,452.8 c -2.5,-0.1 -4.5,-2.1 -4.5,-4.6 0,-2.4 2,-4.5 4.5,-4.5 2.5,0 4.5,2.1 4.5,4.5 0,2.5 -2,4.5 -4.5,4.5 z" />
    </g>
    <g
       id="Folder 7">
      <path
         id="Shape 47"
         fill-rule="evenodd"
         class="s1"
         d="m 470.6,435.5 c -4.3,0 -7.9,-3.5 -7.9,-7.9 0,-4.3 3.6,-7.8 7.9,-7.8 4.4,0 7.9,3.5 7.9,7.8 0,4.4 -3.5,7.9 -7.9,7.9 z" />
      <path
         id="Shape 48"
         fill-rule="evenodd"
         class="s1"
         d="m 466.1,477.5 c -3.9,0 -7.1,-3.2 -7.1,-7.1 0,-4 3.2,-7.2 7.1,-7.2 4,0 7.1,3.2 7.1,7.2 0,3.9 -3.1,7.1 -7.1,7.1 z" />
      <path
         id="Shape 50"
         fill-rule="evenodd"
         class="s1"
         d="m 503.3,457.3 c -3,-0.1 -5.3,-2.4 -5.3,-5.3 0,-2.9 2.3,-5.3 5.2,-5.3 3,0 5.3,2.4 5.3,5.3 0,2.9 -2.3,5.2 -5.3,5.2 z" />
      <path
         id="Shape 55"
         fill-rule="evenodd"
         class="s1"
         d="m 525,489.1 c -3.5,0 -6.4,-2.8 -6.4,-6.4 0,-3.5 2.9,-6.3 6.4,-6.3 3.5,0 6.4,2.8 6.4,6.3 0,3.6 -2.9,6.4 -6.4,6.4 z" />
      <path
         id="Shape 51"
         fill-rule="evenodd"
         class="s1"
         d="m 459,514.6 c -1.9,0 -3.4,-1.5 -3.4,-3.4 0,-1.8 1.5,-3.3 3.4,-3.3 1.9,0 3.4,1.5 3.4,3.3 0,1.9 -1.5,3.4 -3.4,3.4 z" />
      <path
         id="Shape 52"
         fill-rule="evenodd"
         class="s1"
         d="m 497.8,501.9 c -2.2,0 -3.9,-1.8 -3.9,-4 0,-2.1 1.7,-3.9 3.9,-3.9 2.2,0 3.9,1.8 3.9,3.9 0,2.2 -1.7,4 -3.9,4 z" />
      <path
         id="Shape 53"
         fill-rule="evenodd"
         class="s1"
         d="m 443.3,494.4 c -1.5,0 -2.7,-1.2 -2.7,-2.6 0,-1.5 1.2,-2.7 2.6,-2.7 1.5,0 2.7,1.2 2.7,2.7 0,1.4 -1.2,2.6 -2.7,2.6 z" />
      <path
         id="Shape 54"
         fill-rule="evenodd"
         class="s1"
         d="m 452.3,403.6 c -1.5,0 -2.7,-1.1 -2.7,-2.6 0,-1.5 1.2,-2.6 2.6,-2.6 1.5,0 2.7,1.1 2.7,2.6 0,1.5 -1.2,2.6 -2.7,2.6 z" />
    </g>
    <g
       id="Folder 4 copy">
      <path
         id="path14"
         fill-rule="evenodd"
         class="s8"
         d="m 560.5,478.8 -1,50.4 c -1,17.3 -10.6,25.4 -20.5,26 l -105.8,0.5 C 411.8,555 406.1,546.5 405.4,527.9 V 338.1" />
      <path
         id="path15"
         fill-rule="evenodd"
         class="s1"
         d="m 499.2,290.2 c -5.5,-0.8 -17,-0.5 -23,2.4 -5.3,2.7 -11.9,7.5 -15.4,13.9 -0.9,1.6 -1.1,2.2 -1.1,2.2 l -1.3,-1 c -4.1,-3 -12.4,-4 -20.4,-1.3 -14.9,4.9 -20.3,17 -22.2,25.9 l 9.4,0.1 c 2,-11.1 17.3,-20.5 30.9,-16.2 l -1.7,8.2 8.2,0.1 c 0.6,-6.6 7,-17.3 17.3,-21.6 13.2,-5.5 28,-2.5 37,9.1 l -8.1,3.2 2,2.4 c 6.7,-1.8 13.7,-2.9 20.7,0.9 8.3,4.5 10.8,10.2 12,13.9 h 7.1 c -0.4,-10.9 -6.6,-16.9 -9,-18.9 -3.4,-2.8 -12.5,-6.8 -16.5,-5.3 h -0.4 c -3.1,-8.1 -14,-16.4 -25.5,-18 z" />
      <path
         id="Shape 36 copy"
         fill-rule="evenodd"
         class="s1"
         d="m 550.4,383.3 h -27.8 c -2.4,0.1 -4.3,1.7 -4.3,3.4 V 410 c 0.2,11.6 -17.9,11.9 -18.2,0.4 l 0.1,-23.2 c 0.2,-2.1 -0.8,-3.6 -2.4,-3.6 l -87.2,0.7 v -11.8 h 139.5 z" />
      <path
         id="Shape 56"
         fill-rule="evenodd"
         class="s13"
         d="M 432.8,341 432,515" />
      <path
         id="path16"
         fill-rule="evenodd"
         class="s12"
         d="M 550.6,336.7 405.5,336.6" />
    </g>
  </g>
  <g
     id="Folder 3"
     transform="matrix(0.18701638,0,0,0.18701638,-8.8288303,-16.109239)">
    <path
       id="Shape 26"
       fill-rule="evenodd"
       class="s8"
       d="m 164.6,462.1 c -14.5,-1.3 -26.3,-13 -26.2,-27.5 l -0.1,-63.4 c 0.9,-16 16,-25.6 25.8,-26" />
    <path
       id="Shape 26 copy"
       fill-rule="evenodd"
       class="s14"
       d="m 601.4,463.9 c 14.5,-1.2 30.1,-13.3 29.9,-27.8 l 0.2,-63.4 c -0.7,-11.8 -9.1,-20.1 -17.4,-23.8 -3,-1.3 -9.1,-2.4 -11.7,-2.5" />
    <path
       id="Shape 62"
       fill-rule="evenodd"
       class="s15"
       d="m 600,354.3 0.1,2.1 c 2.2,-4 22.2,2.4 22.5,16.8 l 0.3,62.7 c -0.5,13.4 -18.2,22 -22.8,20" />
    <path
       id="Shape 63"
       fill-rule="evenodd"
       class="s15"
       d="m 167.2,452.2 c -7.1,3.9 -19.3,-3.8 -20.2,-17.2 l -0.4,-62.8 c 0.7,-11.6 18.6,-23.4 21.1,-16.8 z" />
    <path
       id="Shape 30"
       fill-rule="evenodd"
       class="s1"
       d="m 586.6,259.8 c 1.7,4.3 -4.1,13 -10.3,14.3 l 0.4,1.6 c 1.3,2.5 9,34 8.1,43.5 l -0.1,0.7 h 8.4 c 6.2,0.4 10.9,8.4 9.9,12.1 l 0.6,138.8 c -0.7,3.2 -3.2,11.5 -13,12.3 l -30.4,-0.4 c -6.8,-0.7 -11,-6.7 -10.7,-12.5 l -0.3,-135.9 c 0,-5.2 4.7,-15.7 12.6,-14.5 l 15.7,0.2 0.1,-0.9 c 0.9,-6.5 -5.9,-36.8 -8.1,-40.8 l -0.3,-1.1 c -6.3,1.1 -9.8,-1.2 -13,-7.9 C 527.8,209.8 468,168.7 389,164.2 c -76.6,-4.5 -152.5,45.6 -179,107 -1.3,3 -4.1,5.1 -6.5,5.9 l -5.5,-0.1 -0.4,1.5 c -3.6,6.1 -7.8,27 -7.5,41.6 l 15,-0.3 c 7.1,-0.6 12.7,6.7 13.4,12.6 l -0.4,139.8 c 0.1,9 -6.6,9.5 -12.6,9.8 l -31.4,-0.4 c -7.5,-0.2 -9.6,-2.9 -9.7,-12.4 L 164,331 c 0.2,-5.8 4.6,-11.4 10.7,-11 l 7.5,-0.8 c 0.5,-5.2 1.1,-22.1 5.3,-34.3 1.5,-4.4 3.5,-8.9 3.8,-10.8 0,-0.7 0.1,-0.3 -0.6,-0.5 -12.4,-4 -10.3,-14.4 -10,-15.1 0.3,-0.6 9.5,-20.5 12.3,-21.8 1.3,-0.6 -0.7,1.8 -2.3,4.8 -1.3,2.3 -2.2,5.4 -2.4,5.8 -1.9,4.5 1.7,6.5 3.6,3.6 10.3,-16.3 29.2,-37.3 35.6,-43.7 2.2,-2.2 0.2,-5.7 -2.1,-4.8 -3.2,1.3 -8.4,8.2 -10.1,8.9 -2.3,0.8 -4.1,-0.5 -1.9,-3 56.8,-64.2 127.8,-79.4 176.8,-79.6 29.8,-0.1 73.1,11.8 110.7,34.2 42,24.9 73.6,67.3 85.7,96.9 z" />
    <path
       id="Shape 66"
       fill-rule="evenodd"
       class="s16"
       d="m 186.9,329.4 v 143.5 z m 393.5,-0.3 v 144.4 z" />
    <path
       id="Shape 68"
       fill-rule="evenodd"
       class="s17"
       d="m 557.4,337.8 c 0.6,-4.4 2.3,-6.3 6.1,-6.9" />
    <path
       id="Shape 67"
       fill-rule="evenodd"
       class="s0"
       d="m 557.5,347 c -1.4,0 -2.5,-1.1 -2.5,-2.5 0,-1.4 1.1,-2.5 2.5,-2.5 1.4,0 2.5,1.1 2.5,2.5 0,1.4 -1.1,2.5 -2.5,2.5 z" />
    <path
       id="Shape 24"
       fill-rule="evenodd"
       class="s0"
       d="m 170.6,403.3 c -1.4,-0.1 -2.6,-1.2 -2.6,-2.7 0,-1.4 1.2,-2.6 2.6,-2.6 1.5,0 2.7,1.2 2.7,2.6 0,1.5 -1.2,2.6 -2.7,2.6 z" />
    <path
       id="Shape 25"
       fill-rule="evenodd"
       class="s18"
       d="M 171,376.3 V 386" />
    <path
       id="Shape 21"
       fill-rule="evenodd"
       class="s18"
       d="m 170.4,344 0.1,18.5" />
    <rect
       style="display:none;fill:#ffc580;fill-opacity:1"
       id="rect18"
       width="740.55634"
       height="89.086311"
       x="15.62177"
       y="577.58331"
       rx="10"
       ry="10" />
  </g>
  <path
     d="m 157.9557,27.409851 q -0.14018,7.94141 -2.4538,11.67853 -2.24345,3.73714 -6.66027,3.73714 h -2.45379 v -15.41567 z m 0,44.61203 h -11.56786 v -15.64925 h 2.45379 q 4.20647,0.23356 8.41303,-2.91963 0.35052,0.93428 0.49069,1.86856 0.21035,0.8175 0.21035,1.75178 z m 7.99233,-18.68568 q 0,-2.68606 -0.56086,-4.67141 -0.56086,-1.98535 -2.03311,-3.9707 0.56086,-1.98535 1.05164,-3.9707 0.49069,-1.98535 0.91138,-3.73713 0.35052,-2.33572 0.49078,-4.43785 0.14017,-2.10215 0.14017,-4.67142 v -3.62035 q 0,-4.32106 -1.75267,-7.35748 -1.75276,-3.03641 -4.41682,-3.03641 h -21.59338 v 71.58946 h 21.59338 q 2.66406,0 4.41682,-3.03643 1.75267,-3.03642 1.75267,-7.2407 z m -27.90313,33.05028 h -0.28043 v -73.57481 h 22.01407 q 1.40216,0 2.59397,0.8175 1.26198,0.8175 2.10328,2.33571 l 4.34673,3.9707 q -0.14026,-0.23356 -0.28044,-0.23356 l 0.28044,0.23356 q 1.6125,1.51821 2.52388,4.0875 0.91138,2.45249 0.91138,5.60569 v 3.62035 q 0,5.02177 -0.70104,9.22604 l -0.21034,0.93429 q -0.35052,1.635 -0.77121,3.26999 -0.35052,1.51821 -0.84129,3.1532 1.47224,2.10214 1.96302,4.0875 0.56086,1.86856 0.56086,4.7882 v 21.95565 q 0,2.10214 -0.56086,4.08749 -0.49078,1.98536 -1.40216,3.50357 -0.84129,1.51821 -2.10328,2.45249 -1.19181,0.93428 -2.66405,0.93428 H 143.7237 Z m 19.27985,-23.82423 q -1.33207,0.23357 -2.59406,0 h -2.10319 v 8.29177 h 4.69725 z m -4.69725,-21.6053 q 3.15483,-1.75177 4.20647,-7.35748 h -4.20647 z m 50.33772,31.06493 h -19.63028 v -15.64925 h 2.4538 q 1.40216,0 2.59397,-0.23357 1.26198,-0.23357 2.66414,-0.8175 2.52388,-0.93428 4.06629,-2.56928 h -0.0703 l 0.35061,-0.35035 q 0.63095,-0.70071 1.33207,-1.40143 0.70103,-0.70071 1.68258,-2.56928 -0.56086,-1.28463 -1.40215,-2.68606 -0.77121,-1.51821 -1.33207,-2.45249 l -1.12173,-2.4525 -1.47224,-2.45249 q -1.26199,2.56927 -3.15492,3.50356 -1.82284,0.93428 -4.13638,0.93428 h -2.4538 v -15.41567 h 19.63028 v -13.5471 h -27.83295 v 71.58946 h 27.83296 z m 0.70112,-0.58393 5.53854,5.13855 v 15.06532 H 180.6708 l -5.67879,-5.25534 h -0.28044 v -73.57481 h 28.95477 v 0.58393 l 5.53854,5.13856 v 15.06531 H 189.5746 v 7.35748 q 0.98147,-0.58392 1.82277,-1.51821 0.84129,-1.05106 1.68267,-2.45248 l 0.63095,0.93427 5.11785,4.78821 1.82285,3.03642 1.19181,2.33571 q 0.56086,0.93428 1.47233,2.80285 0.91138,1.75177 1.54233,3.03642 -0.98147,1.75177 -1.6125,2.56927 -0.63095,0.70072 -1.05156,1.28464 h -0.0703 q -0.35052,0.23357 -0.49069,0.35036 -0.0703,0.11679 -0.21035,0.23356 h 0.14018 q -0.0703,0.11679 -0.14018,0.11679 0,0 -0.0703,0.11679 -0.0703,0.11679 -0.14017,0.11679 -1.82285,1.98535 -4.20647,2.80284 -1.40216,0.58394 -2.73423,0.81751 -1.26198,0.23356 -2.66414,0.23356 h -2.03311 v 8.29177 h 14.09174 z m -7.7119,-18.80246 q -0.14026,0 -0.21035,0.11679 0,0 -0.0703,0 z m 44.23835,19.38639 h -19.63031 v -15.64925 h 2.4538 q 1.40215,0 2.59396,-0.23357 1.26199,-0.23357 2.66414,-0.8175 2.52389,-0.93428 4.0663,-2.56928 h -0.0703 l 0.35051,-0.35035 q 0.63095,-0.70071 1.33207,-1.40143 0.70104,-0.70071 1.68259,-2.56928 -0.56086,-1.28463 -1.40215,-2.68606 -0.77121,-1.51821 -1.33207,-2.45249 l -1.12173,-2.4525 -1.47233,-2.45249 q -1.2619,2.56927 -3.15483,3.50356 -1.82284,0.93428 -4.13638,0.93428 h -2.4538 v -15.41567 h 19.63031 v -13.5471 h -27.83299 v 71.58946 h 27.83299 z m 0.70111,-0.58393 5.53856,5.13855 v 15.06532 h -28.53412 l -5.6788,-5.25534 h -0.28043 v -73.57481 h 28.95479 v 0.58393 l 5.53856,5.13856 v 15.06531 h -19.63032 v 7.35748 q 0.98147,-0.58392 1.82276,-1.51821 0.8413,-1.05106 1.68259,-2.45248 l 0.63103,0.93427 5.11786,4.78821 1.82284,3.03642 1.19185,2.33571 q 0.56085,0.93428 1.47226,2.80285 0.91143,1.75177 1.54238,3.03642 -0.98149,1.75177 -1.61249,2.56927 -0.63095,0.70072 -1.05161,1.28464 h -0.0701 q -0.35057,0.23357 -0.49075,0.35036 -0.0703,0.11679 -0.21034,0.23356 h 0.14017 q -0.0703,0.11679 -0.14017,0.11679 0,0 -0.0703,0.11679 -0.0703,0.11679 -0.14025,0.11679 -1.82285,1.98535 -4.20647,2.80284 -1.40216,0.58394 -2.73423,0.81751 -1.26198,0.23356 -2.66414,0.23356 h -2.03311 v 8.29177 h 14.09179 z m -7.71192,-18.80246 q -0.14026,0 -0.21035,0.11679 0,0 -0.0703,0 z m 36.52642,-25.34242 q -0.14018,8.05819 -2.45378,11.79531 -2.24345,3.73714 -6.66029,3.73714 h -2.45379 v -15.53245 z m 8.06249,58.15914 v -32.23278 q 0,-4.78821 -2.59401,-8.40856 0.56086,-1.63499 0.98149,-3.73713 0.42066,-2.10214 0.7712,-3.73713 0,-0.23357 0.0702,-0.35035 v 0.23357 q 0.35052,-2.33571 0.56086,-4.67142 0.21032,-2.3357 0.21032,-4.78821 v -3.50356 q 0,-4.32106 -1.75272,-7.35748 -1.75269,-3.15321 -4.41684,-3.15321 H 249.9379 v 71.70626 h 8.20268 v -29.07958 h 2.45378 q 1.89293,0 3.99619,-0.70072 2.17335,-0.70071 4.34671,-2.21891 0.49075,1.05107 0.63099,1.86856 0.14018,0.8175 0.14018,1.75178 v 28.37887 z m -27.97322,0.93427 h -0.28043 v -73.69159 h 22.08409 q 2.73426,0 4.62718,3.15321 l 4.3467,3.9707 q 1.6125,1.51822 2.52389,4.08749 0.91142,2.56928 0.91142,5.72248 v 3.50356 q 0,5.13856 -0.7712,9.57641 -0.0701,0.11678 -0.0701,0.23357 0,0.23357 -0.0701,0.58392 0,0.23357 -0.2103,0.81751 h 0.0701 q -0.28043,1.05106 -0.8413,2.91963 -0.49076,1.75178 -0.70108,2.68606 l 0.14022,0.11679 q 2.45379,3.73712 2.45379,8.52533 v 33.05027 h -8.90378 l -5.53852,-5.25534 h -0.49077 v -23.94101 q -0.70108,0.11678 -1.40215,0.11678 -0.631,0 -1.26197,0 h -2.03315 v 29.07957 h -8.90374 z m 14.58251,-45.42953 q 3.15487,-1.75177 4.27663,-7.47427 h -4.27663 z m 11.42765,2.68607 -0.14018,0.46714 v 0.11679 z m 26.64123,-29.78027 v 71.58946 h 21.59337 q 2.59402,0 4.3467,-3.03643 1.82283,-3.03642 1.82283,-7.2407 v -50.91844 q 0,-4.32106 -1.82283,-7.35748 -1.75268,-3.03641 -4.3467,-3.03641 z m 8.27278,13.5471 h 11.49777 v 44.61203 h -11.63797 v -31.64885 z m 13.32059,-14.59818 q 2.66412,0 4.69727,3.15321 l 4.3467,3.9707 q -0.28043,-0.23356 -0.35056,-0.23356 l 0.35056,0.23356 q 1.61249,1.51821 2.52392,4.0875 0.9114,2.45249 0.9114,5.60569 v 51.03522 q 0,2.10214 -0.56086,4.08749 -0.49077,1.98536 -1.40219,3.50357 -0.91141,1.51821 -2.17336,2.45249 -1.19183,0.93428 -2.52387,0.93428 h -21.87381 l -5.53857,-5.25534 h -0.42063 v -73.57481 z m -7.22116,58.04235 h 4.76737 v -37.25455 h -4.62716 l -0.14021,12.14569 z m 42.34545,-43.56095 q -0.14021,8.05819 -2.45379,11.79531 -2.24348,3.73714 -6.66029,3.73714 h -2.45379 v -15.53245 z m 8.06244,58.15914 v -32.23278 q 0,-4.78821 -2.59399,-8.40856 0.56086,-1.63499 0.9815,-3.73713 0.42068,-2.10214 0.7712,-3.73713 0,-0.23357 0.0701,-0.35035 v 0.23357 q 0.35056,-2.33571 0.56091,-4.67142 0.21029,-2.3357 0.21029,-4.78821 v -3.50356 q 0,-4.32106 -1.75267,-7.35748 -1.75275,-3.15321 -4.41684,-3.15321 h -21.66348 v 71.70626 h 8.20269 v -29.07958 h 2.45378 q 1.89293,0 3.99617,-0.70072 2.17336,-0.70071 4.34671,-2.21891 0.49077,1.05107 0.63099,1.86856 0.14021,0.8175 0.14021,1.75178 v 28.37887 z m -27.97322,0.93427 h -0.28043 v -73.69159 h 22.08413 q 2.73421,0 4.62714,3.15321 l 4.34673,3.9707 q 1.61249,1.51822 2.5239,4.08749 0.91142,2.56928 0.91142,5.72248 v 3.50356 q 0,5.13856 -0.7712,9.57641 -0.0701,0.11678 -0.0701,0.23357 0,0.23357 -0.0701,0.58392 0,0.23357 -0.21032,0.81751 h 0.0701 q -0.28043,1.05106 -0.84132,2.91963 -0.49074,1.75178 -0.70107,2.68606 l 0.14024,0.11679 q 2.45378,3.73712 2.45378,8.52533 v 33.05027 h -8.90377 l -5.53854,-5.25534 h -0.49077 v -23.94101 q -0.70109,0.11678 -1.40216,0.11678 -0.63099,0 -1.26195,0 h -2.03316 v 29.07957 h -8.90374 z m 14.58253,-45.42953 q 3.15489,-1.75177 4.27662,-7.47427 h -4.27662 z m 11.42767,2.68607 -0.1402,0.46714 v 0.11679 z m 19.34987,-29.78027 h -8.06244 v 71.58946 h 8.06244 z m 0.70117,-0.46715 5.53853,5.13856 v 73.10766 h -8.76361 l -5.67873,-5.25534 h -0.28043 v -73.57481 h 9.18424 z m 22.3645,59.2102 q -2.0332,-3.03641 -3.29517,-7.24069 -1.26195,-4.32106 -1.82281,-9.22605 -0.35055,-2.56928 -0.49075,-4.90499 -0.0701,-2.3357 -0.0701,-5.02176 v -32.34956 h -8.20266 v 32.34956 q 0,13.31353 2.80434,23.1235 2.80433,9.80997 7.92222,16.1164 h 6.37989 q 5.11791,-6.30643 7.85213,-16.1164 2.80431,-9.80997 2.80431,-23.1235 v -32.34956 h -8.06243 v 32.34956 q 0,3.9707 -0.28043,7.47425 -0.28043,3.38678 -0.98152,6.53999 -0.63097,3.15321 -1.75269,6.18963 -1.12172,3.03641 -2.80431,6.18962 z m -3.01474,13.78068 h -0.42065 q -5.32822,-6.42321 -8.13252,-16.46674 -2.73422,-10.16033 -2.73422,-23.70743 v -33.40064 h 9.32437 v 0.58393 l 5.53863,5.13856 v 33.05027 q 0,2.56927 0.0701,5.02176 0.14021,2.33572 0.49077,4.78822 0.14021,1.5182 0.35053,2.80284 0.28043,1.16786 0.49076,2.4525 1.82283,-4.7882 2.5239,-9.6932 0.70109,-4.90498 0.70109,-10.74424 v -33.40064 h 9.39448 v 0.58393 l 5.53853,5.13856 v 33.05027 q 0,13.5471 -2.80431,23.59065 -2.80433,9.92677 -7.99233,16.46674 h -6.80049 z m 53.84321,-14.3646 h -19.63028 v -15.64925 h 2.45378 q 1.40216,0 2.59401,-0.23357 1.26193,-0.23357 2.66412,-0.8175 2.52389,-0.93428 4.06625,-2.56928 h -0.0701 l 0.35053,-0.35035 q 0.63099,-0.70071 1.33206,-1.40143 0.70109,-0.70071 1.68262,-2.56928 -0.56089,-1.28463 -1.40219,-2.68606 -0.77116,-1.51821 -1.33204,-2.45249 l -1.12174,-2.4525 -1.47227,-2.45249 q -1.26195,2.56927 -3.15488,3.50356 -1.82279,0.93428 -4.13637,0.93428 h -2.45378 v -15.41567 h 19.63028 v -13.5471 h -27.83301 v 71.58946 h 27.83301 z m 0.70109,-0.58393 5.53853,5.13855 v 15.06532 h -28.53408 l -5.67877,-5.25534 h -0.28044 v -73.57481 h 28.95476 v 0.58393 l 5.53853,5.13856 v 15.06531 h -19.63029 v 7.35748 q 0.98154,-0.58392 1.82283,-1.51821 0.84129,-1.05106 1.68259,-2.45248 l 0.63097,0.93427 5.11789,4.78821 1.82284,3.03642 1.19181,2.33571 q 0.56088,0.93428 1.47227,2.80285 0.91142,1.75177 1.54239,3.03642 -0.98149,1.75177 -1.61249,2.56927 -0.63097,0.70072 -1.05163,1.28464 h -0.0701 q -0.35052,0.23357 -0.49075,0.35036 -0.0701,0.11679 -0.21029,0.23356 h 0.14018 q -0.0701,0.11679 -0.14018,0.11679 0,0 -0.0702,0.11679 -0.0701,0.11679 -0.1402,0.11679 -1.82284,1.98535 -4.2065,2.80284 -1.40216,0.58394 -2.73422,0.81751 -1.26194,0.23356 -2.66409,0.23356 h -2.03317 v 8.29177 h 14.09176 z m -7.71188,-18.80246 q -0.14024,0 -0.21034,0.11679 0,0 -0.0701,0 z m 16.26515,-38.88954 v 71.70626 h 8.13252 v -51.50238 q 4.13641,12.26248 6.80059,24.99208 2.73422,12.72961 4.76734,26.5103 h 8.06245 v -71.70626 h -7.99234 l 0.0701,29.19636 q -1.19185,-3.85393 -2.59403,-8.05819 -1.33203,-4.32106 -2.8043,-8.17498 -1.47235,-3.97071 -2.8745,-7.35748 -1.40216,-3.38678 -2.66413,-5.60571 z m 9.32437,-0.81749 0.42064,0.81749 5.25819,4.90499 q 0.98154,1.635 1.96302,4.08749 1.05163,2.4525 2.24348,5.13856 v -1.51821 q 0,-3.38678 -0.0701,-6.89034 0,-3.50356 0,-6.77355 h 9.3244 v 0.58392 l 5.60865,5.13856 v 73.22445 h -8.97384 l -5.46844,-5.25534 h -0.49077 q -1.12172,-7.00712 -2.24345,-13.54711 -1.12172,-6.53998 -2.52396,-13.07996 v 31.88241 h -8.83362 l -5.53853,-5.25534 h -0.42065 v -73.69159 h 9.39447 z m 43.32706,0.93429 v 71.58946 h 21.5934 q 2.59399,0 4.34671,-3.03643 1.82279,-3.03642 1.82279,-7.2407 v -50.91844 q 0,-4.32106 -1.82279,-7.35748 -1.75272,-3.03641 -4.34671,-3.03641 z m 8.27284,13.5471 h 11.49773 v 44.61203 h -11.63796 v -31.64885 z m 13.32056,-14.59818 q 2.66408,0 4.69723,3.15321 l 4.34671,3.9707 q -0.28043,-0.23356 -0.35056,-0.23356 l 0.35056,0.23356 q 1.61255,1.51821 2.52397,4.0875 0.91139,2.45249 0.91139,5.60569 v 51.03522 q 0,2.10214 -0.56086,4.08749 -0.49075,1.98536 -1.40216,3.50357 -0.91148,1.51821 -2.17343,2.45249 -1.19183,0.93428 -2.52389,0.93428 h -21.87374 l -5.53862,-5.25534 h -0.42066 v -73.57481 z m -7.22115,58.04235 h 4.76736 v -37.25455 h -4.62714 l -0.14022,12.14569 z m 50.05738,1.16786 h -19.63038 v -15.64925 h 2.45379 q 1.40216,0 2.59401,-0.23357 1.26192,-0.23357 2.66408,-0.8175 2.52392,-0.93428 4.06628,-2.56928 h -0.0701 l 0.35053,-0.35035 q 0.63099,-0.70071 1.33206,-1.40143 0.70111,-0.70071 1.68259,-2.56928 -0.56086,-1.28463 -1.40216,-2.68606 -0.7712,-1.51821 -1.33206,-2.45249 l -1.12172,-2.4525 -1.47225,-2.45249 q -1.26197,2.56927 -3.1549,3.50356 -1.82278,0.93428 -4.13636,0.93428 h -2.45379 v -15.41567 h 19.63038 v -13.5471 h -27.83303 v 71.58946 h 27.83303 z m 0.70105,-0.58393 5.53855,5.13855 v 15.06532 h -28.5341 l -5.67873,-5.25534 h -0.28044 v -73.57481 h 28.95472 v 0.58393 l 5.53855,5.13856 v 15.06531 h -19.63034 v 7.35748 q 0.98151,-0.58392 1.8228,-1.51821 0.84132,-1.05106 1.68261,-2.45248 l 0.63095,0.93427 5.11791,4.78821 1.8228,3.03642 1.19191,2.33571 q 0.56086,0.93428 1.47229,2.80285 0.9114,1.75177 1.54235,3.03642 -0.98149,1.75177 -1.61245,2.56927 -0.63099,0.70072 -1.05163,1.28464 h -0.0701 q -0.35054,0.23357 -0.49082,0.35036 -0.0701,0.11679 -0.21025,0.23356 h 0.14021 q -0.0701,0.11679 -0.14021,0.11679 0,0 -0.0701,0.11679 -0.0701,0.11679 -0.14024,0.11679 -1.82287,1.98535 -4.20656,2.80284 -1.40216,0.58394 -2.73422,0.81751 -1.26194,0.23356 -2.66411,0.23356 h -2.03312 v 8.29177 h 14.09179 z m -7.71197,-18.80246 q -0.1402,0 -0.21031,0.11679 0,0 -0.0701,0 z m 30.42709,19.97031 q -2.03315,-3.03641 -3.29508,-7.24069 -1.26195,-4.32106 -1.82281,-9.22605 -0.35055,-2.56928 -0.49077,-4.90499 -0.0701,-2.3357 -0.0701,-5.02176 v -32.34956 h -8.20274 v 32.34956 q 0,13.31353 2.80434,23.1235 2.80437,9.80997 7.92228,16.1164 h 6.37986 q 5.11787,-6.30643 7.85208,-16.1164 2.80435,-9.80997 2.80435,-23.1235 v -32.34956 h -8.06244 v 32.34956 q 0,3.9707 -0.28043,7.47425 -0.28043,3.38678 -0.98152,6.53999 -0.63097,3.15321 -1.7527,6.18963 -1.12172,3.03641 -2.80433,6.18962 z m -3.01465,13.78068 h -0.42065 q -5.32821,-6.42321 -8.13261,-16.46674 -2.73422,-10.16033 -2.73422,-23.70743 v -33.40064 h 9.32447 v 0.58393 l 5.53854,5.13856 v 33.05027 q 0,2.56927 0.0701,5.02176 0.14022,2.33572 0.49077,4.78822 0.14019,1.5182 0.35052,2.80284 0.28043,1.16786 0.49077,2.4525 1.82281,-4.7882 2.52388,-9.6932 0.70111,-4.90498 0.70111,-10.74424 v -33.40064 h 9.39446 v 0.58393 l 5.53855,5.13856 v 33.05027 q 0,13.5471 -2.80433,23.59065 -2.80431,9.92677 -7.99232,16.46674 h -6.80049 z m 46.34156,-30.13063 v 15.64924 h -19.70039 v 13.54712 h 21.66343 q 2.6641,0 4.41679,-3.03643 1.75278,-3.03642 1.75278,-7.35748 v -21.83887 q 0,-4.32106 -1.75278,-7.35748 -1.75269,-3.03643 -4.41679,-3.03643 h -4.41683 q -4.4168,0 -6.66025,-3.73714 -2.24348,-3.73712 -2.38369,-11.79531 h 19.63034 V 13.745951 H 638.198 q -2.66411,0 -4.48694,3.03643 -1.8228,2.91964 -1.8228,7.35748 v 3.62034 q 0,4.90499 0.8413,9.57641 0.42064,1.86857 0.9815,4.08749 0.63099,2.21892 1.12176,3.73713 0.9815,1.98536 2.31355,4.0875 1.33206,2.10213 2.73421,3.50355 1.19184,0.8175 2.31356,1.51821 1.12177,0.70071 1.75272,1.05107 v -0.11678 q 0.42063,0.35035 0.7712,0.46713 0.42063,0.11679 1.05163,0.23358 l 1.26193,0.35036 z m -19.84061,30.13063 h -0.56086 v -15.64924 h 19.77051 v -8.64212 q -0.42065,-0.11679 -0.70109,-0.11679 -0.28043,-0.11678 -0.63097,-0.46715 -0.35056,-0.23357 -1.12173,-0.70071 -0.70108,-0.46713 -1.68262,-1.28463 l -0.28043,-0.23358 q -0.14021,-0.11678 -0.42064,-0.23356 -0.21032,-0.11679 -0.84128,-0.58394 -0.631,-0.58392 -1.75273,-1.51821 -1.05159,-1.05106 -2.87442,-2.80285 l -0.56086,-0.23356 -0.84129,-0.46714 q -1.19186,-1.16786 -2.59402,-3.38678 -1.33206,-2.21893 -2.24346,-4.20427 -0.63096,-1.86858 -1.33205,-4.0875 -0.63097,-2.21892 -1.05163,-4.08749 -0.84129,-4.67141 -0.84129,-9.92676 v -3.62034 q 0,-4.905 2.03315,-8.17498 2.10322,-3.26999 4.97767,-3.26999 h 22.15426 v 0.58392 l 5.60863,5.13856 v 15.06531 h -19.63033 q 0.35051,5.13856 1.40214,8.17499 0.35055,0.11678 0.63098,0.11678 0.35053,0 0.77118,0 h 4.41683 q 1.33206,0 2.52388,0.8175 1.26196,0.8175 2.10333,2.3357 l 4.41683,3.85392 q 1.61246,1.63501 2.45377,4.0875 0.91139,2.45249 0.91139,5.72248 v 21.95566 q 0,4.43784 -1.89292,7.82462 -1.82281,3.26999 -4.76734,3.26999 H 637.4268 Z"
     id="text16"
     style="font-size:123.903px;font-family:'Oktoberfest 1980 White';-inkscape-font-specification:'Oktoberfest 1980 White';fill:#cf8c4f;stroke-width:0.942552"
     aria-label="Beer Driven Devs" />
  <metadata
     id="metadata18">
    <rdf:RDF>
      <cc:Work
         rdf:about="">
        <dc:title>BDDLogo</dc:title>
      </cc:Work>
    </rdf:RDF>
  </metadata>
</svg>
