<?xml version="1.0" encoding="UTF-8"?>
<svg xmlns="http://www.w3.org/2000/svg" viewBox="0 0 2400.33 713.85">
  <defs>
    <style>
      .cls-1, .cls-2, .cls-3, .cls-4, .cls-5, .cls-6, .cls-7, .cls-8, .cls-9, .cls-10, .cls-11, .cls-12, .cls-13, .cls-14, .cls-15, .cls-16, .cls-17, .cls-18, .cls-19, .cls-20, .cls-21, .cls-22, .cls-23, .cls-24, .cls-25, .cls-26, .cls-27, .cls-28, .cls-29 {
        stroke-width: 0px;
      }

      .cls-1, .cls-4, .cls-13, .cls-22 {
        opacity: .6;
      }

      .cls-1, .cls-5, .cls-6, .cls-11 {
        fill: #ff7e64;
      }

      .cls-2, .cls-3, .cls-4, .cls-9, .cls-10 {
        fill: #f97077;
      }

      .cls-2, .cls-24 {
        opacity: .2;
      }

      .cls-3, .cls-11, .cls-23 {
        opacity: .8;
      }

      .cls-5, .cls-9, .cls-27 {
        opacity: .4;
      }

      .cls-7 {
        opacity: .5;
      }

      .cls-7, .cls-8, .cls-12, .cls-17, .cls-21, .cls-27 {
        fill: #ef6aac;
      }

      .cls-8 {
        opacity: .15;
      }

      .cls-12, .cls-19 {
        opacity: .3;
      }

      .cls-13, .cls-23, .cls-26 {
        fill: #ffa561;
      }

      .cls-14 {
        opacity: .45;
      }

      .cls-14, .cls-18, .cls-19, .cls-22, .cls-24, .cls-28, .cls-29 {
        fill: #ea54ce;
      }

      .cls-15 {
        fill: #000;
      }

      .cls-16, .cls-25 {
        fill: #f7ce72;
      }

      .cls-18 {
        opacity: .1;
      }

      .cls-20 {
        fill: #be1e2d;
      }

      .cls-21, .cls-25 {
        opacity: .7;
      }

      .cls-28 {
        opacity: .75;
      }
    </style>
  </defs>
  <g id="Layer_1" data-name="Layer 1">
    <path class="cls-15" d="M232.33,604.42c-12.03,0-22.8-2.97-32.3-8.89-9.5-5.93-16.96-14.12-22.36-24.58-5.41-10.46-8.11-22.23-8.11-35.31s2.7-25.32,8.11-35.7c5.4-10.37,12.99-18.57,22.75-24.58,9.76-6.01,20.66-9.02,32.69-9.02,9.59,0,17.91,1.75,24.97,5.23,7.06,3.49,12.77,8.46,17.13,14.91v-73.49h35.31v188.29h-31.38l-3.92-18.31c-2.79,4.01-6.14,7.63-10.07,10.85-3.92,3.23-8.54,5.8-13.86,7.71-5.32,1.92-11.64,2.88-18.96,2.88ZM240.7,573.56c7.15,0,13.34-1.61,18.57-4.84,5.23-3.22,9.32-7.71,12.29-13.47,2.96-5.75,4.45-12.46,4.45-20.14s-1.48-14.12-4.45-19.88c-2.97-5.75-7.11-10.2-12.42-13.34-5.32-3.14-11.55-4.71-18.7-4.71-6.63,0-12.6,1.61-17.91,4.84-5.32,3.23-9.46,7.71-12.42,13.47-2.97,5.75-4.45,12.29-4.45,19.61s1.48,14.34,4.45,20.01c2.96,5.67,7.1,10.16,12.42,13.47,5.32,3.31,11.38,4.97,18.18,4.97Z"/>
    <path class="cls-15" d="M363.09,451.43c-6.45,0-11.68-1.87-15.69-5.62-4.01-3.75-6.01-8.5-6.01-14.25s2-10.5,6.01-14.25c4.01-3.75,9.24-5.62,15.69-5.62s11.72,1.88,15.82,5.62c4.09,3.75,6.15,8.5,6.15,14.25s-2.05,10.51-6.15,14.25c-4.1,3.75-9.37,5.62-15.82,5.62ZM345.31,601.28v-131.81h35.3v131.81h-35.3Z"/>
    <path class="cls-15" d="M472.41,661.95c-12.55,0-23.54-1.53-32.95-4.58-9.42-3.05-16.7-7.67-21.84-13.86-5.14-6.19-7.71-13.82-7.71-22.88,0-6.28,1.57-12.12,4.71-17.52,3.14-5.4,7.76-10.33,13.86-14.78,6.1-4.45,13.6-8.24,22.49-11.38l13.34,17.52c-8.02,2.62-13.78,5.93-17.26,9.94-3.49,4.01-5.23,8.19-5.23,12.55,0,4.01,1.31,7.41,3.92,10.2,2.62,2.79,6.28,4.84,10.98,6.15,4.71,1.31,9.85,1.96,15.43,1.96s10.46-.7,14.65-2.09c4.18-1.4,7.45-3.4,9.81-6.01,2.35-2.62,3.53-5.84,3.53-9.68,0-4.88-1.7-8.76-5.1-11.64-3.4-2.88-10.07-4.66-20.01-5.36-8.72-.69-16.57-1.74-23.54-3.14-6.98-1.39-13.04-2.96-18.18-4.71-5.14-1.74-9.55-3.75-13.21-6.01-3.66-2.26-6.63-4.53-8.89-6.8v-6.01l27.98-30.07,25.37,8.11-32.95,32.43,10.2-17.52c1.74,1.22,3.57,2.35,5.49,3.4,1.92,1.05,4.27,1.92,7.06,2.61,2.79.7,6.41,1.35,10.85,1.96,4.45.61,10.15,1.27,17.13,1.96,11.68.87,21.22,2.97,28.64,6.28,7.41,3.31,12.81,7.76,16.21,13.34,3.4,5.58,5.1,12.38,5.1,20.4s-2.14,15.17-6.41,21.97c-4.27,6.8-10.81,12.38-19.61,16.74-8.81,4.36-20.1,6.54-33.87,6.54ZM472.67,562.32c-10.98,0-20.49-2.13-28.51-6.41-8.02-4.27-14.17-10.02-18.44-17.26-4.27-7.23-6.41-15.3-6.41-24.19s2.13-16.95,6.41-24.19c4.27-7.23,10.37-13.03,18.31-17.39,7.93-4.36,17.48-6.54,28.64-6.54s20.44,2.18,28.38,6.54c7.93,4.36,13.99,10.16,18.18,17.39,4.18,7.24,6.28,15.3,6.28,24.19s-2.09,16.96-6.28,24.19c-4.18,7.24-10.24,12.99-18.18,17.26-7.94,4.27-17.39,6.41-28.38,6.41ZM472.67,535.38c6.8,0,12.25-1.74,16.34-5.23,4.09-3.49,6.15-8.72,6.15-15.69s-2.05-11.94-6.15-15.43c-4.1-3.49-9.54-5.23-16.34-5.23s-12.34,1.74-16.61,5.23c-4.27,3.49-6.41,8.63-6.41,15.43s2.09,12.21,6.28,15.69c4.18,3.49,9.76,5.23,16.74,5.23ZM494.37,494.32l-5.75-24.84h54.4v20.92l-48.64,3.92Z"/>
    <path class="cls-15" d="M583.56,451.43c-6.45,0-11.68-1.87-15.69-5.62-4.01-3.75-6.01-8.5-6.01-14.25s2-10.5,6.01-14.25c4.01-3.75,9.24-5.62,15.69-5.62s11.72,1.88,15.82,5.62c4.09,3.75,6.15,8.5,6.15,14.25s-2.05,10.51-6.15,14.25c-4.1,3.75-9.37,5.62-15.82,5.62ZM565.78,601.28v-131.81h35.3v131.81h-35.3Z"/>
    <path class="cls-15" d="M695.49,601.28c-9.07,0-17.09-1.44-24.06-4.31-6.98-2.88-12.38-7.67-16.21-14.38-3.84-6.71-5.75-15.91-5.75-27.59v-55.96h-22.75v-29.55h22.75l3.92-36.09h31.38v36.09h34.78v29.55h-34.78v56.49c0,5.93,1.31,10.03,3.92,12.29,2.62,2.27,7.06,3.4,13.34,3.4h17v30.07h-23.54Z"/>
    <path class="cls-15" d="M789.3,604.42c-10.81,0-19.79-1.79-26.94-5.36-7.15-3.57-12.51-8.37-16.08-14.38-3.58-6.02-5.36-12.68-5.36-20.01,0-8.19,2.05-15.34,6.15-21.44,4.09-6.1,10.33-10.85,18.7-14.25,8.37-3.4,19-5.1,31.91-5.1h32.17c0-6.62-.83-12.03-2.48-16.21-1.66-4.18-4.36-7.32-8.11-9.41-3.75-2.09-8.68-3.14-14.78-3.14-6.63,0-12.25,1.4-16.87,4.18-4.62,2.79-7.45,7.24-8.5,13.34h-34.26c.87-9.59,3.96-17.78,9.28-24.58,5.32-6.8,12.38-12.12,21.18-15.95,8.8-3.83,18.61-5.75,29.42-5.75,12.38,0,23.14,2.05,32.3,6.15,9.15,4.1,16.12,10.11,20.92,18.04,4.79,7.94,7.19,17.57,7.19,28.9v81.86h-29.55l-3.92-20.14c-1.92,3.49-4.23,6.63-6.93,9.42-2.71,2.79-5.84,5.23-9.41,7.32-3.58,2.09-7.45,3.7-11.64,4.84-4.18,1.13-8.98,1.7-14.38,1.7ZM797.93,577.22c4.36,0,8.32-.83,11.9-2.48,3.57-1.65,6.67-3.96,9.28-6.93,2.62-2.96,4.71-6.28,6.28-9.94,1.57-3.66,2.62-7.67,3.14-12.03v-.26h-26.94c-5.58,0-10.07.65-13.47,1.96-3.4,1.31-5.88,3.18-7.45,5.62-1.57,2.44-2.35,5.23-2.35,8.37,0,3.31.79,6.15,2.35,8.5,1.57,2.35,3.88,4.14,6.93,5.36,3.05,1.22,6.49,1.83,10.33,1.83Z"/>
    <path class="cls-15" d="M897.57,601.28v-188.29h35.3v188.29h-35.3Z"/>
    <path class="cls-15" d="M1091.67,604.42c-12.21,0-22.71-1.92-31.51-5.75-8.81-3.83-15.74-9.11-20.79-15.82-5.06-6.71-7.94-14.42-8.63-23.14h35.31c.69,3.14,2.09,6.1,4.18,8.89,2.09,2.79,4.88,4.97,8.37,6.54,3.49,1.57,7.67,2.35,12.55,2.35s8.58-.65,11.64-1.96c3.05-1.31,5.32-3.09,6.8-5.36,1.48-2.26,2.22-4.62,2.22-7.06,0-3.66-1.09-6.45-3.27-8.37-2.18-1.92-5.28-3.57-9.28-4.97-4.01-1.39-8.89-2.62-14.65-3.66-6.28-1.22-12.42-2.75-18.44-4.58-6.01-1.83-11.38-4.18-16.08-7.06-4.71-2.88-8.46-6.45-11.25-10.72-2.79-4.27-4.18-9.63-4.18-16.08,0-7.67,2.09-14.65,6.28-20.92,4.18-6.28,10.33-11.25,18.44-14.91,8.11-3.66,17.65-5.49,28.64-5.49,16.04,0,28.68,3.58,37.92,10.72,9.24,7.15,14.73,17,16.48,29.55h-33.21c-1.05-4.18-3.36-7.41-6.93-9.68-3.58-2.26-8.33-3.4-14.25-3.4s-10.85,1.14-14.25,3.4c-3.4,2.27-5.1,5.14-5.1,8.63,0,2.44,1.09,4.62,3.27,6.54,2.18,1.92,5.27,3.58,9.28,4.97,4.01,1.4,8.89,2.71,14.64,3.92,10.11,2.09,19,4.49,26.67,7.19,7.67,2.71,13.69,6.54,18.04,11.51,4.36,4.97,6.54,12.16,6.54,21.58,0,8.37-2.27,15.82-6.8,22.36-4.54,6.54-10.94,11.64-19.22,15.3-8.28,3.66-18.09,5.49-29.42,5.49Z"/>
    <path class="cls-15" d="M1224.83,604.42c-10.81,0-20.01-2.22-27.59-6.67-7.58-4.45-13.34-10.98-17.26-19.61-3.92-8.63-5.88-19.31-5.88-32.04v-76.62h35.04v73.23c0,10.64,2.22,18.61,6.67,23.93,4.45,5.32,11.29,7.98,20.53,7.98,5.92,0,11.2-1.35,15.82-4.05,4.62-2.7,8.24-6.62,10.85-11.77,2.62-5.14,3.92-11.38,3.92-18.7v-70.61h35.31v131.81h-31.12l-2.62-21.44c-4.01,7.5-9.72,13.47-17.13,17.91-7.41,4.45-16.26,6.67-26.54,6.67Z"/>
    <path class="cls-15" d="M1413.65,604.42c-6.63,0-12.64-.87-18.04-2.62-5.41-1.74-10.07-4.09-13.99-7.06-3.92-2.96-7.37-6.45-10.33-10.46l-3.92,17h-31.38v-188.29h35.3v75.06c4.18-6.28,9.72-11.46,16.61-15.56,6.89-4.09,15.47-6.15,25.76-6.15,12.03,0,22.79,3.05,32.3,9.15,9.5,6.1,17.04,14.34,22.62,24.71,5.58,10.38,8.37,22.1,8.37,35.17s-2.75,25.06-8.24,35.44c-5.49,10.37-12.99,18.57-22.49,24.58-9.5,6.02-20.36,9.02-32.56,9.02ZM1405.54,573.56c6.8,0,12.86-1.61,18.18-4.84,5.32-3.22,9.5-7.67,12.55-13.34,3.05-5.66,4.58-12.33,4.58-20.01s-1.53-13.9-4.58-19.74c-3.05-5.84-7.24-10.37-12.55-13.6-5.32-3.22-11.38-4.84-18.18-4.84s-12.86,1.61-18.18,4.84c-5.32,3.23-9.46,7.71-12.42,13.47-2.97,5.75-4.45,12.47-4.45,20.14s1.48,14.08,4.45,19.75c2.96,5.67,7.1,10.11,12.42,13.34,5.32,3.23,11.38,4.84,18.18,4.84Z"/>
    <path class="cls-15" d="M1502.75,601.28v-188.29h35.3v188.29h-35.3Z"/>
    <path class="cls-15" d="M1590.62,451.43c-6.45,0-11.68-1.87-15.69-5.62-4.01-3.75-6.01-8.5-6.01-14.25s2-10.5,6.01-14.25c4.01-3.75,9.24-5.62,15.69-5.62s11.72,1.88,15.82,5.62c4.09,3.75,6.15,8.5,6.15,14.25s-2.05,10.51-6.15,14.25c-4.1,3.75-9.37,5.62-15.82,5.62ZM1572.84,601.28v-131.81h35.3v131.81h-35.3Z"/>
    <path class="cls-15" d="M1643.18,601.28v-131.81h31.12l2.88,17.26c4.18-6.1,9.72-11.02,16.61-14.78,6.89-3.75,14.78-5.62,23.67-5.62,6.45,0,12.33.83,17.65,2.48,5.32,1.66,9.98,4.14,13.99,7.45,4.01,3.31,7.32,7.5,9.94,12.55,5.05-6.8,11.51-12.25,19.35-16.34,7.85-4.09,16.39-6.15,25.63-6.15,11.33,0,20.88,2.31,28.64,6.93,7.76,4.62,13.6,11.29,17.52,20.01,3.92,8.72,5.88,19.44,5.88,32.17v75.84h-35.04v-72.44c0-10.63-2.09-18.74-6.28-24.32-4.18-5.58-10.46-8.37-18.83-8.37-5.58,0-10.55,1.4-14.91,4.18-4.36,2.79-7.76,6.8-10.2,12.03-2.44,5.23-3.66,11.51-3.66,18.83v70.09h-35.04v-72.44c0-10.63-2.09-18.74-6.28-24.32-4.18-5.58-10.64-8.37-19.35-8.37-5.41,0-10.2,1.4-14.38,4.18-4.18,2.79-7.5,6.8-9.94,12.03-2.44,5.23-3.66,11.51-3.66,18.83v70.09h-35.3Z"/>
    <path class="cls-15" d="M1947.04,604.42c-13.25,0-24.97-2.88-35.17-8.63s-18.13-13.73-23.8-23.93c-5.67-10.2-8.5-21.92-8.5-35.17s2.83-25.89,8.5-36.35c5.66-10.46,13.55-18.74,23.67-24.84,10.11-6.1,21.88-9.15,35.3-9.15s24.49,2.88,34.26,8.63c9.76,5.75,17.35,13.47,22.75,23.14,5.4,9.68,8.11,20.79,8.11,33.34,0,1.74-.04,3.71-.13,5.88-.09,2.18-.22,4.4-.39,6.67h-106.7v-21.71h71.66c-.52-8.19-3.53-14.82-9.02-19.88-5.49-5.05-12.25-7.58-20.27-7.58-6.1,0-11.64,1.44-16.61,4.31-4.97,2.88-8.94,7.06-11.9,12.55-2.97,5.49-4.45,12.42-4.45,20.79v7.58c0,7.15,1.35,13.38,4.05,18.7,2.7,5.32,6.49,9.46,11.38,12.42,4.88,2.97,10.55,4.45,17,4.45s11.99-1.35,16.08-4.05c4.09-2.7,7.28-6.32,9.54-10.85h35.83c-2.27,8.2-6.32,15.65-12.16,22.36-5.84,6.71-12.9,11.94-21.18,15.69-8.28,3.75-17.57,5.62-27.85,5.62Z"/>
  </g>
  <g id="Layer_2" data-name="Layer 2">
    <path class="cls-25" d="M2087.2,103.69c12.17-7.03,27.16-7.03,39.33,0,12.17,7.03,19.66,20.01,19.66,34.06v16.86c0-14.05-7.5-27.03-19.66-34.06-12.17-7.03-27.16-7.03-39.33,0-12.17,7.03-19.66,20.01-19.66,34.06v-16.86c0-14.05,7.5-27.03,19.66-34.06Z"/>
    <polygon class="cls-20" points="2067.54 185.49 2067.54 185.49 2067.54 187.97 2067.54 187.96 2067.54 185.49"/>
    <path class="cls-16" d="M2146.2,171.33v-16.86c0-14.05-7.5-27.03-19.66-34.06-12.17-7.03-27.16-7.03-39.33,0-12.17,7.03-19.66,20.01-19.66,34.06v36.38s0,.07,0,.07c0,.68.55,1.23,1.23,1.23.5,0,.94-.31,1.12-.79.14-.37.31-.77.49-1.18.65-1.62,1.4-3.19,2.26-4.71,3.4-6.02,8.37-11.14,14.56-14.71,12.17-7.03,27.16-7.03,39.33,0,6.19,3.58,11.16,8.7,14.56,14.71.85,1.51,1.6,3.07,2.25,4.68.19.41.36.82.5,1.2.17.47.61.79,1.12.79.68,0,1.23-.55,1.23-1.23v-19.59Z"/>
    <path class="cls-23" d="M1948.19,202.79c0-14.05,7.5-27.04,19.67-34.06,12.17-7.03,27.16-7.02,39.33,0l14.6,8.43c-12.17-7.02-27.16-7.02-39.33,0-12.17,7.03-19.67,20.01-19.67,34.06,0,14.05,7.5,27.04,19.66,34.06l-14.6-8.43c-12.17-7.02-19.66-20.01-19.66-34.06Z"/>
    <line class="cls-20" x1="2048.52" y1="192.59" x2="2048.52" y2="192.59"/>
    <polygon class="cls-20" points="2009.19 260.72 2009.19 260.72 2011.34 261.96 2011.34 261.96 2009.19 260.72"/>
    <path class="cls-26" d="M2036.27,185.52l-.11-.06-14.5-8.37c-12.17-7.02-27.16-7.02-39.33,0-12.17,7.03-19.67,20.01-19.67,34.06,0,14.05,7.5,27.04,19.66,34.06l31.51,18.19.06.04c.59.34,1.34.14,1.68-.45.25-.44.2-.97-.12-1.36-.25-.3-.51-.65-.77-1.01-1.08-1.37-2.06-2.81-2.95-4.31-3.51-5.95-5.46-12.82-5.46-19.97,0-14.05,7.5-27.04,19.67-34.06,6.19-3.58,13.11-5.32,20.02-5.25,1.73.02,3.46.15,5.18.39.45.04.89.09,1.29.16.5.09.99-.14,1.24-.57.34-.59.14-1.34-.45-1.68l-16.96-9.79Z"/>
    <path class="cls-11" d="M1970.56,373.38c-12.17-7.03-19.67-20.01-19.67-34.06,0-14.05,7.5-27.04,19.66-34.06l14.6-8.43c-12.17,7.02-19.66,20.01-19.66,34.06,0,14.05,7.5,27.04,19.67,34.06,12.17,7.03,27.16,7.02,39.33,0l-14.6,8.43c-12.17,7.02-27.16,7.02-39.33,0Z"/>
    <line class="cls-20" x1="2011.9" y1="281.38" x2="2011.9" y2="281.39"/>
    <polygon class="cls-20" points="2051.23 349.51 2051.23 349.51 2053.38 348.27 2053.38 348.27 2051.23 349.51"/>
    <path class="cls-6" d="M1999.65,288.46l-.11.06-14.5,8.37c-12.17,7.02-19.66,20.01-19.66,34.06,0,14.05,7.5,27.04,19.67,34.06,12.17,7.02,27.16,7.02,39.33,0l31.51-18.19.06-.04c.59-.34.79-1.09.45-1.68-.25-.44-.74-.66-1.24-.57-.39.07-.82.12-1.26.16-1.73.25-3.47.38-5.21.4-6.91.07-13.83-1.68-20.02-5.25-12.17-7.02-19.67-20.01-19.67-34.06,0-7.15,1.95-14.02,5.46-19.97.88-1.49,1.86-2.92,2.93-4.29.26-.37.53-.72.79-1.03.32-.39.37-.93.12-1.36-.34-.59-1.09-.79-1.68-.45l-16.96,9.79Z"/>
    <path class="cls-3" d="M2126.77,440.99c-12.17,7.03-27.16,7.03-39.33,0-12.17-7.03-19.66-20.01-19.66-34.06v-16.86c0,14.05,7.5,27.03,19.66,34.06,12.17,7.03,27.16,7.03,39.33,0,12.17-7.03,19.66-20.01,19.66-34.06v16.86c0,14.05-7.5,27.03-19.66,34.06Z"/>
    <polygon class="cls-20" points="2146.44 359.2 2146.44 359.2 2146.44 356.71 2146.44 356.72 2146.44 359.2"/>
    <path class="cls-10" d="M2067.77,373.35v.13s0,16.74,0,16.74c0,14.05,7.5,27.03,19.66,34.06,12.17,7.03,27.16,7.03,39.33,0,12.17-7.03,19.66-20.01,19.66-34.06v-36.38s0-.07,0-.07c0-.68-.55-1.23-1.23-1.23-.5,0-.94.31-1.12.79-.14.37-.31.77-.49,1.18-.65,1.62-1.4,3.19-2.26,4.71-3.4,6.02-8.37,11.14-14.56,14.71-12.17,7.03-27.16,7.03-39.33,0-6.19-3.58-11.16-8.7-14.56-14.71-.85-1.51-1.6-3.07-2.25-4.68-.19-.41-.36-.82-.5-1.2-.17-.47-.61-.79-1.12-.79-.68,0-1.23.55-1.23,1.23v19.59Z"/>
    <path class="cls-21" d="M2263.59,339.39c0,14.05-7.5,27.04-19.67,34.06-12.17,7.03-27.16,7.02-39.33,0l-14.6-8.43c12.17,7.02,27.16,7.02,39.33,0,12.17-7.03,19.67-20.01,19.67-34.06,0-14.05-7.5-27.04-19.66-34.06l14.6,8.43c12.17,7.02,19.66,20.01,19.66,34.06Z"/>
    <line class="cls-20" x1="2163.25" y1="349.59" x2="2163.25" y2="349.59"/>
    <polygon class="cls-20" points="2202.58 281.46 2202.58 281.46 2200.43 280.22 2200.43 280.22 2202.58 281.46"/>
    <path class="cls-17" d="M2175.5,356.66l.11.06,14.5,8.37c12.17,7.02,27.16,7.02,39.33,0,12.17-7.03,19.67-20.01,19.67-34.06,0-14.05-7.5-27.04-19.66-34.06l-31.51-18.19-.06-.04c-.59-.34-1.34-.14-1.68.45-.25.44-.2.97.12,1.36.25.3.51.65.77,1.01,1.08,1.37,2.06,2.81,2.95,4.31,3.51,5.95,5.46,12.82,5.46,19.97,0,14.05-7.5,27.04-19.67,34.06-6.19,3.58-13.11,5.32-20.02,5.25-1.73-.02-3.46-.15-5.18-.39-.45-.04-.89-.09-1.29-.16-.5-.09-.99.14-1.24.57-.34.59-.14,1.34.45,1.68l16.96,9.79Z"/>
    <path class="cls-28" d="M2244.49,169.87c12.17,7.03,19.67,20.01,19.67,34.06,0,14.05-7.5,27.04-19.66,34.06l-14.6,8.43c12.17-7.02,19.66-20.01,19.66-34.06,0-14.05-7.5-27.04-19.67-34.06-12.17-7.03-27.16-7.02-39.33,0l14.6-8.43c12.17-7.02,27.16-7.02,39.33,0Z"/>
    <line class="cls-20" x1="2203.15" y1="261.86" x2="2203.15" y2="261.86"/>
    <polygon class="cls-20" points="2163.82 193.74 2163.81 193.74 2161.67 194.98 2161.67 194.98 2163.82 193.74"/>
    <path class="cls-29" d="M2215.4,254.79l.11-.06,14.5-8.37c12.17-7.02,19.66-20.01,19.66-34.06,0-14.05-7.5-27.04-19.67-34.06-12.17-7.02-27.16-7.02-39.33,0l-31.51,18.19-.06.04c-.59.34-.79,1.09-.45,1.68.25.44.74.66,1.24.57.39-.07.82-.12,1.26-.16,1.73-.25,3.47-.38,5.21-.4,6.91-.07,13.83,1.68,20.02,5.25,12.17,7.02,19.67,20.01,19.67,34.06,0,7.15-1.95,14.02-5.46,19.97-.88,1.49-1.86,2.92-2.93,4.29-.26.37-.53.72-.79,1.03-.32.39-.37.93-.12,1.36.34.59,1.09.79,1.68.45l16.96-9.79Z"/>
    <path class="cls-4" d="M2126.77,457.85c-12.17,7.03-27.16,7.03-39.33,0-12.17-7.03-19.66-20.01-19.66-34.06v-16.86c0,14.05,7.5,27.03,19.66,34.06,12.17,7.03,27.16,7.03,39.33,0,12.17-7.03,19.66-20.01,19.66-34.06v16.86c0,14.05-7.5,27.03-19.66,34.06Z"/>
    <path class="cls-13" d="M1933.58,194.36c0-14.05,7.5-27.04,19.67-34.06,12.17-7.03,27.16-7.02,39.33,0l14.6,8.43c-12.17-7.02-27.16-7.02-39.33,0-12.17,7.03-19.67,20.01-19.67,34.06,0,14.05,7.5,27.04,19.66,34.06l-14.6-8.43c-12.17-7.02-19.66-20.01-19.66-34.06Z"/>
    <path class="cls-1" d="M1955.94,381.82c-12.17-7.03-19.67-20.01-19.67-34.06,0-14.05,7.5-27.04,19.66-34.06l14.6-8.43c-12.17,7.02-19.66,20.01-19.66,34.06,0,14.05,7.5,27.04,19.67,34.06,12.17,7.03,27.16,7.02,39.33,0l-14.6,8.43c-12.17,7.02-27.16,7.02-39.33,0Z"/>
    <path class="cls-5" d="M1941.35,390.26c-12.17-7.03-19.67-20.01-19.67-34.06,0-14.05,7.5-27.04,19.66-34.06l14.6-8.43c-12.17,7.02-19.66,20.01-19.66,34.06,0,14.05,7.5,27.04,19.67,34.06,12.17,7.03,27.16,7.02,39.33,0l-14.6,8.43c-12.17,7.02-27.16,7.02-39.33,0Z"/>
    <path class="cls-9" d="M2126.77,474.7c-12.17,7.03-27.16,7.03-39.33,0-12.17-7.03-19.66-20.01-19.66-34.06v-16.86c0,14.05,7.5,27.03,19.66,34.06,12.17,7.03,27.16,7.03,39.33,0,12.17-7.03,19.66-20.01,19.66-34.06v16.86c0,14.05-7.5,27.03-19.66,34.06Z"/>
    <path class="cls-2" d="M2126.77,491.56c-12.17,7.03-27.16,7.03-39.33,0-12.17-7.03-19.66-20.01-19.66-34.06v-16.86c0,14.05,7.5,27.03,19.66,34.06,12.17,7.03,27.16,7.03,39.33,0,12.17-7.03,19.66-20.01,19.66-34.06v16.86c0,14.05-7.5,27.03-19.66,34.06Z"/>
    <path class="cls-7" d="M2258.54,381.9c12.17-7.03,19.67-20.01,19.67-34.06,0-14.05-7.5-27.04-19.66-34.06l-14.6-8.43c12.17,7.02,19.66,20.01,19.66,34.06,0,14.05-7.5,27.04-19.67,34.06-12.17,7.03-27.16,7.02-39.33,0l14.6,8.43c12.17,7.02,27.16,7.02,39.33,0Z"/>
    <path class="cls-27" d="M2273.13,390.34c12.17-7.03,19.67-20.01,19.67-34.06,0-14.05-7.5-27.04-19.66-34.06l-14.6-8.43c12.17,7.02,19.66,20.01,19.66,34.06,0,14.05-7.5,27.04-19.67,34.06-12.17,7.03-27.16,7.02-39.33,0l14.6,8.43c12.17,7.02,27.16,7.02,39.33,0Z"/>
    <path class="cls-12" d="M2287.76,398.78c12.17-7.03,19.67-20.01,19.67-34.06,0-14.05-7.5-27.04-19.66-34.06l-14.6-8.43c12.17,7.02,19.66,20.01,19.66,34.06,0,14.05-7.5,27.04-19.67,34.06-12.17,7.03-27.16,7.02-39.33,0l14.6,8.43c12.17,7.02,27.16,7.02,39.33,0Z"/>
    <path class="cls-8" d="M2302.35,407.22c12.17-7.03,19.67-20.01,19.67-34.06,0-14.05-7.5-27.04-19.66-34.06l-14.6-8.43c12.17,7.02,19.66,20.01,19.66,34.06,0,14.05-7.5,27.04-19.67,34.06-12.17,7.03-27.16,7.02-39.33,0l14.6,8.43c12.17,7.02,27.16,7.02,39.33,0Z"/>
    <path class="cls-22" d="M2259.11,161.48c12.17,7.03,19.67,20.01,19.67,34.06,0,14.05-7.5,27.04-19.66,34.06l-14.6,8.43c12.17-7.02,19.66-20.01,19.66-34.06,0-14.05-7.5-27.04-19.67-34.06-12.17-7.03-27.16-7.02-39.33,0l14.6-8.43c12.17-7.02,27.16-7.02,39.33,0Z"/>
    <path class="cls-14" d="M2273.73,153.04c12.17,7.03,19.67,20.01,19.67,34.06,0,14.05-7.5,27.04-19.66,34.06l-14.6,8.43c12.17-7.02,19.66-20.01,19.66-34.06,0-14.05-7.5-27.04-19.67-34.06-12.17-7.03-27.16-7.02-39.33,0l14.6-8.43c12.17-7.02,27.16-7.02,39.33,0Z"/>
    <path class="cls-19" d="M2288.32,144.6c12.17,7.03,19.67,20.01,19.67,34.06,0,14.05-7.5,27.04-19.66,34.06l-14.6,8.43c12.17-7.02,19.66-20.01,19.66-34.06,0-14.05-7.5-27.04-19.67-34.06-12.17-7.03-27.16-7.02-39.33,0l14.6-8.43c12.17-7.02,27.16-7.02,39.33,0Z"/>
    <path class="cls-24" d="M2302.95,136.21c12.17,7.03,19.67,20.01,19.67,34.06,0,14.05-7.5,27.04-19.66,34.06l-14.6,8.43c12.17-7.02,19.66-20.01,19.66-34.06,0-14.05-7.5-27.04-19.67-34.06-12.17-7.03-27.16-7.02-39.33,0l14.6-8.43c12.17-7.02,27.16-7.02,39.33,0Z"/>
    <path class="cls-18" d="M2317.54,127.77c12.17,7.03,19.67,20.01,19.67,34.06,0,14.05-7.5,27.04-19.66,34.06l-14.6,8.43c12.17-7.02,19.66-20.01,19.66-34.06,0-14.05-7.5-27.04-19.67-34.06-12.17-7.03-27.16-7.02-39.33,0l14.6-8.43c12.17-7.02,27.16-7.02,39.33,0Z"/>
  </g>
</svg>