<?xml version="1.0" encoding="UTF-8"?>
<svg xmlns="http://www.w3.org/2000/svg" version="1.1" viewBox="0 0 384.049 92.077">
  <defs>
    <style>
      .cls-1 {
        fill: #2e2c30;
      }

      .cls-2 {
        fill: #fff;
      }

      .cls-3 {
        fill: #e4002b;
      }

      .cls-4 {
        fill: #e4002b;
      }
    </style>
  </defs>
  <!-- Generator: Adobe Illustrator 28.7.1, SVG Export Plug-In . SVG Version: 1.2.0 Build 142)  -->
  <g>
    <g id="Layer_1">
      <path class="cls-4" d="M46.475,19.589c-.117-.118-.271-.182-.436-.182s-.32.063-.435.18l-24.575,24.691c-.176.177-.228.44-.132.671.096.23.319.38.569.38h5.859c1.104,0,2,.896,2,2v20.93c0,.34.276.616.616.616h32.195c.339,0,.616-.276.616-.616v-20.93c0-1.104.896-2,2-2h5.859c.25,0,.473-.149.568-.38.096-.23.044-.494-.133-.673l-24.572-24.687Z"/>
      <path class="cls-3" d="M46.282,0h-.26C20.722,0,.131,20.449,0,45.786c-.146,25.435,20.364,46.16,45.794,46.29,25.43.146,46.151-20.367,46.281-45.802C92.206,20.855,71.712.13,46.282,0ZM74.873,46.484c-.718,1.728-2.391,2.845-4.262,2.845h-3.859v18.93c0,2.545-2.071,4.616-4.616,4.616H29.941c-2.545,0-4.616-2.071-4.616-4.616v-18.93h-3.859c-1.871,0-3.543-1.116-4.262-2.845-.718-1.727-.33-3.7.99-5.027l24.574-24.69c.857-.863,2.05-1.359,3.271-1.359s2.414.496,3.273,1.361l24.572,24.687c1.32,1.329,1.708,3.303.99,5.028Z"/>
      <path class="cls-2" d="M49.311,16.768c-.859-.865-2.052-1.361-3.273-1.361s-2.414.496-3.271,1.359l-24.574,24.69c-1.319,1.327-1.708,3.301-.99,5.027.719,1.729,2.392,2.845,4.262,2.845h3.859v18.93c0,2.545,2.071,4.616,4.616,4.616h32.195c2.545,0,4.616-2.071,4.616-4.616v-18.93h3.859c1.872,0,3.544-1.117,4.262-2.845.718-1.726.33-3.699-.99-5.028l-24.572-24.687ZM71.18,44.949c-.096.23-.319.38-.568.38h-5.859c-1.104,0-2,.896-2,2v20.93c0,.34-.276.616-.616.616H29.941c-.34,0-.616-.276-.616-.616v-20.93c0-1.104-.896-2-2-2h-5.859c-.25,0-.473-.149-.569-.38-.096-.23-.043-.494.132-.671l24.575-24.691c.115-.116.27-.18.435-.18s.32.063.436.182l24.572,24.687c.177.179.229.442.133.673Z"/>
      <path class="cls-1" d="M132.331,66.978l-10.682-14.703h-5.4v14.703h-7.811V26.774h16.082c9.131,0,14.76,4.882,14.76,12.98,0,5.916-3.618,10.223-9.303,11.831l11.773,15.392h-9.419ZM116.249,33.724v12.003h7.869c4.364,0,6.949-2.01,6.949-5.973,0-4.077-2.641-6.03-6.949-6.03h-7.869Z"/>
      <path class="cls-1" d="M173.397,33.724h-20.331v9.304h17.862v6.835h-17.862v10.166h20.331v6.949h-28.2V26.774h28.2v6.95Z"/>
      <path class="cls-1" d="M207.548,66.978l-3.848-10.395h-15.047l-3.848,10.395h-8.156l15.795-40.203h7.639l15.852,40.203h-8.385ZM191.007,50.15h10.338l-5.169-14.014-5.169,14.014Z"/>
      <g>
        <path class="cls-1" d="M265.532,44.843c.172,1.092.229,2.069.229,3.046,0,12.703-8.506,19.772-19.081,19.772-11.208,0-20.116-8.334-20.116-20.806s8.448-20.806,20.116-20.806c7.357,0,14.886,3.851,17.932,11.667l-6.724,3.564c-2.242-5.345-5.978-8.047-11.208-8.047-6.839,0-11.897,5.115-11.897,13.622,0,8.449,5.402,13.622,11.897,13.622s10.231-3.506,10.978-9.253h-10.978v-6.38h18.852Z"/>
        <path class="cls-1" d="M286.683,36.682v7.932h-3.103c-3.449,0-5.92,2.471-5.92,6.84v15.518h-7.415v-29.599h7.415v4.253c1.666-3.449,4.368-4.943,7.471-4.943h1.552Z"/>
        <path class="cls-1" d="M287.948,52.143c0-9.138,6.495-15.46,15.231-15.46,8.851,0,15.345,6.322,15.345,15.46,0,9.196-6.495,15.519-15.345,15.519-8.737,0-15.231-6.322-15.231-15.519ZM310.939,52.143c0-5.632-3.333-8.851-7.759-8.851-4.368,0-7.644,3.218-7.644,8.851,0,5.69,3.276,8.967,7.644,8.967,4.426,0,7.759-3.276,7.759-8.967Z"/>
        <path class="cls-1" d="M322.665,55.074v-17.702h7.472v17.242c0,4.425,2.356,6.437,5.574,6.437,3.276,0,5.576-2.012,5.576-6.437v-17.242h7.472v17.702c0,7.932-5.576,12.587-13.048,12.587-7.414,0-13.046-4.656-13.046-12.587Z"/>
        <path class="cls-1" d="M384.049,52.143c0,8.909-5.632,15.519-13.277,15.519-4.426,0-7.357-2.127-9.196-5.058v14.082h-7.414v-39.313h7.414v4.253c1.84-2.874,4.77-4.943,9.196-4.943,7.644,0,13.277,6.61,13.277,15.46ZM376.461,52.2c0-5.69-3.103-8.908-7.472-8.908-4.425,0-7.529,3.218-7.529,8.908s3.104,8.851,7.529,8.851c4.369,0,7.472-3.161,7.472-8.851Z"/>
      </g>
    </g>
  </g>
</svg>