<?xml version="1.0" encoding="UTF-8" standalone="no"?>
<!-- Created with Inkscape (http://www.inkscape.org/) -->

<svg
   width="12.69906mm"
   height="12.699042mm"
   viewBox="0 0 12.69906 12.699042"
   version="1.1"
   id="svg1"
   inkscape:version="1.3 (0e150ed, 2023-07-21)"
   sodipodi:docname="icon3.svg"
   inkscape:export-filename="icon3.png"
   inkscape:export-xdpi="96"
   inkscape:export-ydpi="96"
   xmlns:inkscape="http://www.inkscape.org/namespaces/inkscape"
   xmlns:sodipodi="http://sodipodi.sourceforge.net/DTD/sodipodi-0.dtd"
   xmlns="http://www.w3.org/2000/svg"
   xmlns:svg="http://www.w3.org/2000/svg">
  <sodipodi:namedview
     id="namedview1"
     pagecolor="#ffffff"
     bordercolor="#000000"
     borderopacity="0.25"
     inkscape:showpageshadow="2"
     inkscape:pageopacity="0.0"
     inkscape:pagecheckerboard="0"
     inkscape:deskcolor="#d1d1d1"
     inkscape:document-units="mm"
     inkscape:zoom="2.8752933"
     inkscape:cx="20.693541"
     inkscape:cy="22.606389"
     inkscape:window-width="1312"
     inkscape:window-height="449"
     inkscape:window-x="0"
     inkscape:window-y="37"
     inkscape:window-maximized="0"
     inkscape:current-layer="layer1" />
  <defs
     id="defs1">
    <clipPath
       clipPathUnits="userSpaceOnUse"
       id="clipPath147">
      <g
         id="g148">
        <path
           d="M 0,0 H 960 V 540 H 0 Z"
           clip-rule="nonzero"
           id="path147" />
      </g>
    </clipPath>
    <clipPath
       clipPathUnits="userSpaceOnUse"
       id="clipPath146">
      <g
         id="g147">
        <path
           d="M 0,0 H 960 V 540 H 0 Z"
           clip-rule="nonzero"
           id="path146" />
      </g>
    </clipPath>
    <clipPath
       clipPathUnits="userSpaceOnUse"
       id="clipPath145">
      <g
         id="g146">
        <path
           d="M 0,0 H 960 V 540 H 0 Z"
           clip-rule="nonzero"
           id="path145" />
      </g>
    </clipPath>
    <clipPath
       clipPathUnits="userSpaceOnUse"
       id="clipPath144">
      <g
         id="g145">
        <path
           d="M 0,0 H 960 V 540 H 0 Z"
           clip-rule="nonzero"
           id="path144" />
      </g>
    </clipPath>
  </defs>
  <g
     inkscape:label="Layer 1"
     inkscape:groupmode="layer"
     id="layer1"
     transform="translate(-98.160417,-127)">
    <g
       id="g2"
       transform="matrix(0.26458333,0,0,0.26458333,72.174307,64.68559)">
      <path
         fill="#C3DAFE"
         d="m 125.18366,236.8642 c 0,0 0.10414,0 0.10414,0.0521 v 2.01342 c 0,0.72465 0.41222,1.29309 1.13688,1.39723 2.26941,0.51637 4.3913,1.3929 6.35265,2.68599 0.24299,0.15187 0.5207,0.22998 0.79841,0.22998 0.37317,0 0.74201,-0.14319 1.01104,-0.43827 l 1.3929,-1.44496 h 0.0521 l 4.28717,4.28717 v 0.0521 l -1.44497,1.44497 c -0.51636,0.51636 -0.56844,1.18895 -0.15621,1.80947 1.18895,1.90925 2.11756,4.03114 2.63826,6.30056 0.0998,0.67258 0.72031,1.18895 1.39289,1.18895 h 2.01341 c 0,0 0.10414,0 0.10414,0.0521 l -0.10414,6.09665 h -2.01341 c -0.67258,0 -1.29309,0.41223 -1.39289,1.13687 -0.5207,2.27377 -1.34517,4.39132 -2.63826,6.35699 -0.41223,0.56842 -0.36015,1.34082 0.15621,1.80512 l 1.44497,1.39724 v 0.0521 l -4.28717,4.28717 h -0.0521 l -1.3929,-1.44931 c -0.28638,-0.28638 -0.63787,-0.4296 -0.98934,-0.4296 -0.28206,0 -0.56845,0.0911 -0.82011,0.27771 -1.96135,1.18897 -4.08324,2.11755 -6.35265,2.63394 -0.62052,0.10413 -1.13688,0.72464 -1.13688,1.39289 v 2.01776 c 0,0 0,0.0521 -0.10414,0.0521 h -5.9925 c 0,0 -0.0521,0 -0.0521,-0.0521 v -2.01776 c 0,-0.66825 -0.46429,-1.28876 -1.18895,-1.39289 -2.22169,-0.51639 -4.39131,-1.34518 -6.30491,-2.63394 -0.25602,-0.15619 -0.51638,-0.26034 -0.77239,-0.26034 -0.41222,0 -0.72465,0.10415 -1.03274,0.41223 l -1.44931,1.44931 h -0.0521 l -4.23509,-4.28717 v -0.0521 l 1.39723,-1.39724 c 0.51638,-0.51636 0.56845,-1.2367 0.20394,-1.80512 -1.24102,-1.96567 -2.11754,-4.08322 -2.63391,-6.35699 -0.15622,-0.62052 -0.72465,-1.13687 -1.44497,-1.13687 h -2.017743 c 0,0 -0.05207,0 -0.05207,-0.10416 v -5.99249 c 0,0 0,-0.0521 0.05207,-0.0521 h 2.017743 c 0.72032,0 1.28875,-0.46429 1.44497,-1.18895 0.51637,-2.26942 1.34516,-4.39131 2.63391,-6.30056 0.36451,-0.62052 0.31244,-1.39725 -0.20394,-1.80947 l -1.39723,-1.44497 v -0.0521 l 4.23509,-4.28717 h 0.0521 l 1.44931,1.44496 c 0.29507,0.29508 0.65956,0.43827 1.02407,0.43827 0.26902,0 0.5424,-0.0781 0.78106,-0.22998 1.9136,-1.24102 4.08322,-2.16962 6.30491,-2.68599 0.67259,-0.10414 1.18895,-0.67258 1.18895,-1.39723 v -2.01342 c 0,0 0,-0.0521 0.0521,-0.0521 z m -5.9925,-1.34517 c -0.77672,0 -1.39723,0.62051 -1.39723,1.39723 v 2.01342 c 0,0 0,0.0521 -0.10414,0.0521 -2.42564,0.51636 -4.6994,1.49703 -6.76488,2.8422 h -0.0521 l -1.4493,-1.39723 c -0.28205,-0.28206 -0.64221,-0.42525 -1.01105,-0.42525 -0.36883,0 -0.74201,0.14319 -1.05443,0.42525 l -4.2351,4.23944 c -0.56844,0.62049 -0.56844,1.49704 0,2.06547 l 1.39289,1.44496 v 0.0521 c -1.34082,2.06548 -2.22168,4.39131 -2.83786,6.76921 0,0 0,0.10414 -0.0521,0.10414 h -2.017742 c -0.772385,0 -1.392899,0.62052 -1.392899,1.39289 v 5.99249 c 0,0.77673 0.620514,1.44931 1.392899,1.44931 h 2.017742 c 0,0 0.0521,0 0.0521,0.0521 0.51637,2.47773 1.49704,4.69941 2.83786,6.7649 v 0.10412 l -1.39289,1.39725 c -0.56844,0.56845 -0.56844,1.49704 0,2.06546 l 4.2351,4.28717 c 0.31242,0.28641 0.6856,0.42526 1.05443,0.42526 0.36884,0 0.729,-0.13885 1.01105,-0.42526 l 1.4493,-1.44495 h 0.0521 c 2.06548,1.34082 4.39131,2.27375 6.76488,2.8422 0,0 0.10414,0 0.10414,0.0477 v 2.01776 c 0,0.77237 0.62051,1.44494 1.39723,1.44494 h 5.9925 c 0.77238,0 1.44496,-0.67257 1.44496,-1.44494 v -2.01776 c 0,0 0,-0.0477 0.0521,-0.0477 2.48205,-0.52072 4.70374,-1.50138 6.76922,-2.8422 h 0.10414 l 1.3929,1.44495 c 0.28639,0.28641 0.65956,0.42526 1.03273,0.42526 0.37751,0 0.75068,-0.13885 1.03274,-0.42526 l 4.2915,-4.28717 c 0.56844,-0.56842 0.56844,-1.49701 0,-2.06546 l -1.44931,-1.39725 v -0.10412 c 1.39725,-2.0655 2.27378,-4.39133 2.84221,-6.7649 0,0 0,-0.0521 0.0521,-0.0521 h 2.01341 c 0.77673,0 1.44931,-0.67258 1.44931,-1.44931 v -5.99249 c 0,-0.77237 -0.67258,-1.39289 -1.44931,-1.39289 h -2.01341 c 0,0 -0.0521,0 -0.0521,-0.10414 -0.51637,-2.42997 -1.49704,-4.70373 -2.84221,-6.76921 v -0.0521 l 1.44931,-1.44496 c 0.56844,-0.56843 0.56844,-1.49704 0,-2.06547 l -4.2915,-4.23944 c -0.28206,-0.28206 -0.65523,-0.42525 -1.03274,-0.42525 -0.37317,0 -0.74634,0.14319 -1.03273,0.42525 l -1.3929,1.39723 h -0.10414 c -2.06548,-1.34517 -4.39132,-2.2217 -6.76922,-2.8422 0,0 -0.0521,0 -0.0521,-0.0521 v -2.01342 c 0,-0.77672 -0.67258,-1.39723 -1.44496,-1.39723 z"
         fill-rule="evenodd"
         id="path42"
         clip-path="url(#clipPath147)" />
      <path
         fill="#C3DAFE"
         d="m 122.34579,244.58804 c -0.27771,0 -0.55542,0.009 -0.82879,0.026 -3.72307,0.20395 -7.23351,1.7574 -9.8197,4.39131 -2.63392,2.63393 -4.18303,6.1487 -4.39131,9.81536 -0.15187,3.66665 0.98501,7.28558 3.3065,10.12777 0.15621,0.20395 0.31242,0.25605 0.51637,0.25605 0.15622,0 0.31243,-0.0521 0.46864,-0.10416 0.30808,-0.25601 0.30808,-0.72031 0.0998,-0.98065 -2.06548,-2.58185 -3.15028,-5.88837 -2.942,-9.19486 0.20394,-3.35858 1.5491,-6.50886 3.92701,-8.88676 2.37356,-2.37792 5.57592,-3.82288 8.93449,-3.92702 0.27337,-0.0174 0.54241,-0.026 0.81144,-0.026 3.0635,0 5.96211,1.07179 8.33568,2.97238 0.13452,0.10847 0.29506,0.16489 0.45561,0.16489 0.20828,0 0.4079,-0.0955 0.52506,-0.26903 0.25601,-0.41223 0.20828,-0.8288 -0.0521,-1.03275 -2.62958,-2.15226 -5.92306,-3.33253 -9.34672,-3.33253 z"
         fill-rule="evenodd"
         id="path43"
         clip-path="url(#clipPath146)" />
      <path
         fill="#C3DAFE"
         d="m 126.78483,250.50243 v 2.89427 c 0,0.4643 -0.15621,0.98067 -0.36015,1.34082 l -0.31243,0.72466 c -0.0521,0.10414 -0.0521,0.20828 -0.0521,0.31242 v 1.49704 c 0,1.03275 -0.41223,2.0134 -1.18895,2.73807 -0.77238,0.67258 -1.70099,1.08481 -2.79014,1.08481 -1.96133,-0.0521 -3.66665,-1.86154 -3.66665,-4.03116 v -1.28876 c 0,-0.10414 0,-0.20828 -0.0521,-0.31242 l -0.4643,-0.82445 c -0.10414,-0.3645 -0.25602,-0.67259 -0.25602,-1.03708 v -0.0998 c 0,-1.65324 1.3929,-2.99841 3.04615,-2.99841 z m -6.09663,11.67689 c 0.4643,0.15622 0.9286,0.25602 1.44497,0.25602 h 0.15621 c 0.51637,0 1.03274,-0.0477 1.54911,-0.25602 v 0 c -0.0521,0.25602 0,0.4643 0.10414,0.67258 l -0.62051,0.56845 c -0.30809,0.30808 -0.67258,0.4643 -1.08481,0.4643 -0.36016,0 -0.77238,-0.15622 -1.08481,-0.4643 l -0.56844,-0.56845 c 0.0521,-0.20828 0.10414,-0.41656 0.10414,-0.67258 z m 3.92701,1.80945 c 0.20829,0.15189 0.41223,0.20395 0.56845,0.25602 l 2.52977,0.72467 c 0.67259,0.20394 1.0848,0.77236 1.0848,1.49704 v 4.75146 h 0.20829 c -0.51636,0.31241 -1.03273,0.56845 -1.60118,0.77673 v -4.2351 c 0,-0.41224 -0.31242,-0.72467 -0.72465,-0.72467 -0.36015,0 -0.72465,0.31243 -0.72465,0.72467 v 4.75146 c -1.03274,0.31244 -2.01341,0.4643 -3.09822,0.51636 h -0.62051 c -1.28875,0 -2.58184,-0.20392 -3.82287,-0.51636 v -4.75146 c 0,-0.41224 -0.30808,-0.72467 -0.72465,-0.72467 -0.36016,0 -0.66824,0.31243 -0.66824,0.72467 v 4.2351 c -0.51638,-0.25604 -1.13688,-0.51638 -1.65325,-0.77673 v -4.75146 c 0,-0.72468 0.46429,-1.2931 1.13687,-1.49704 l 2.47771,-0.72467 c 0.20828,-0.0521 0.4643,-0.10413 0.62052,-0.25602 l 0.41222,0.4643 c 0.62051,0.56845 1.39724,0.82446 2.06547,0.82446 0.77673,0 1.50139,-0.25601 2.06983,-0.82446 z m -3.97908,-15.03544 c -2.4777,0 -4.44338,2.01339 -4.44338,4.44337 v 0.0521 c 0,0.56846 0.10414,1.18897 0.3645,1.70533 l 0.41223,0.72032 v 1.13689 c 0,1.80944 0.87652,3.41064 2.22168,4.44335 v 0.67261 c 0,0.30808 -0.26035,0.62052 -0.56843,0.77671 l -2.53412,0.72033 c -1.28876,0.36447 -2.11755,1.5491 -2.11755,2.8422 v 3.77078 c -0.10415,-0.0521 -0.20395,-0.20392 -0.30809,-0.25601 -0.13018,-0.10846 -0.28639,-0.16056 -0.43826,-0.16056 -0.21696,0 -0.42525,0.10416 -0.5424,0.31244 -0.26036,0.31241 -0.20829,0.77674 0.15187,0.93292 2.63392,2.16962 5.99249,3.35859 9.40313,3.35859 h 0.72465 c 3.71873,-0.15622 7.23352,-1.70533 9.81537,-4.3913 2.63391,-2.63828 4.18301,-6.09665 4.3913,-9.8197 0.20829,-3.66666 -0.98067,-7.28125 -3.30649,-10.12346 -0.1432,-0.17357 -0.34714,-0.24733 -0.54675,-0.24733 -0.16056,0 -0.31676,0.0521 -0.43392,0.14319 -0.31244,0.26036 -0.31244,0.72465 -0.10414,0.98066 2.06548,2.5862 3.15028,5.84063 2.94634,9.14711 -0.15621,3.35859 -1.54911,6.50889 -3.92702,8.93451 -0.4643,0.41657 -0.88086,0.8288 -1.34516,1.18894 v -3.77078 c 0,-1.2931 -0.9286,-2.47773 -2.11755,-2.8422 l -2.52978,-0.72034 c -0.31242,-0.15618 -0.56843,-0.41656 -0.56843,-0.7767 v -0.56845 c 0.25601,-0.20828 0.41222,-0.36017 0.6205,-0.62051 1.03275,-0.92859 1.54911,-2.32584 1.54911,-3.71872 v -1.34517 l 0.25602,-0.62052 c 0.31243,-0.61616 0.46863,-1.28875 0.46863,-1.96133 v -3.61459 c 0,-0.41657 -0.31241,-0.72464 -0.72465,-0.72464 z"
         fill-rule="evenodd"
         id="path44"
         clip-path="url(#clipPath145)" />
      <path
         fill="#C3DAFE"
         d="m 119.96355,252.82826 c -0.36015,0 -0.66824,0.30807 -0.66824,0.72466 0,0.36015 0.30809,0.66822 0.66824,0.66822 0.77673,0 3.10255,0.15622 4.23944,0.6726 0.0998,0.0521 0.15187,0.0521 0.30808,0.0521 0.26036,0 0.51638,-0.10414 0.62052,-0.36015 0.15621,-0.36451 0,-0.77672 -0.30809,-0.93294 -1.60552,-0.82445 -4.70374,-0.82445 -4.85995,-0.82445 z"
         fill-rule="evenodd"
         id="path45"
         clip-path="url(#clipPath144)" />
    </g>
  </g>
</svg>
