<?xml version="1.0" encoding="UTF-8" standalone="no"?>
<!-- Created with Inkscape (http://www.inkscape.org/) -->

<svg
   width="12.677445mm"
   height="12.697933mm"
   viewBox="0 0 12.677445 12.697933"
   version="1.1"
   id="svg1"
   inkscape:version="1.3 (0e150ed, 2023-07-21)"
   sodipodi:docname="icon5.svg"
   inkscape:export-filename="icon5.png"
   inkscape:export-xdpi="96"
   inkscape:export-ydpi="96"
   xmlns:inkscape="http://www.inkscape.org/namespaces/inkscape"
   xmlns:sodipodi="http://sodipodi.sourceforge.net/DTD/sodipodi-0.dtd"
   xmlns="http://www.w3.org/2000/svg"
   xmlns:svg="http://www.w3.org/2000/svg">
  <sodipodi:namedview
     id="namedview1"
     pagecolor="#ffffff"
     bordercolor="#000000"
     borderopacity="0.25"
     inkscape:showpageshadow="2"
     inkscape:pageopacity="0.0"
     inkscape:pagecheckerboard="0"
     inkscape:deskcolor="#d1d1d1"
     inkscape:document-units="mm"
     inkscape:zoom="0.65609167"
     inkscape:cx="22.10057"
     inkscape:cy="41.152786"
     inkscape:window-width="1312"
     inkscape:window-height="449"
     inkscape:window-x="0"
     inkscape:window-y="37"
     inkscape:window-maximized="0"
     inkscape:current-layer="layer1" />
  <defs
     id="defs1">
    <clipPath
       clipPathUnits="userSpaceOnUse"
       id="clipPath111">
      <g
         id="g112">
        <path
           d="M 0,0 H 960 V 540 H 0 Z"
           clip-rule="nonzero"
           id="path111" />
      </g>
    </clipPath>
  </defs>
  <g
     inkscape:label="Layer 1"
     inkscape:groupmode="layer"
     id="layer1"
     transform="translate(-99.483333,-128.32292)">
    <g
       id="g3"
       transform="matrix(0.26458333,0,0,0.26458333,73.498599,43.305707)">
      <path
         fill="#C3DAFE"
         d="m 140.24078,323.79462 v 2.83139 c 0,0.42337 0.31651,0.73651 0.73413,0.73651 h 2.77393 l -6.12372,6.0376 h -2.51454 l 4.08394,-4.09271 c 0.26376,-0.26459 0.26376,-0.73648 0,-1.0011 -0.13189,-0.1279 -0.31212,-0.19406 -0.49677,-0.19406 -0.18463,0 -0.36487,0.0662 -0.49675,0.19406 l -4.03119,4.09711 v -2.46534 z m -22.50784,8.03104 c 4.71257,0 9.00313,1.83908 12.25183,4.7807 l -12.72222,12.7059 c -0.25936,0.26019 -0.25936,0.73651 0,0.9967 0.15826,0.15879 0.31652,0.2117 0.52314,0.2117 0.21101,0 0.31651,-0.0529 0.52313,-0.2117 l 3.14318,-3.14889 c 0.57589,0.785 0.83526,1.73321 0.83526,2.72992 0,2.46972 -2.03978,4.51608 -4.50157,4.51608 -2.4574,0 -4.50158,-2.04636 -4.50158,-4.51608 0,-2.52265 2.04418,-4.569 4.50158,-4.569 0.26376,0 0.57588,0 0.83964,0.10583 0.0352,0.004 0.0703,0.004 0.10551,0.004 0.36487,0 0.63743,-0.25138 0.72974,-0.63507 0.10551,-0.36606 -0.15386,-0.6836 -0.57588,-0.83796 -0.36488,-0.0529 -0.72974,-0.10583 -1.09901,-0.10583 -3.29705,0 -5.96547,2.677 -5.96547,5.93176 0,3.30768 2.66842,5.98468 5.96547,5.98468 3.24868,0 5.96985,-2.677 5.96985,-5.98468 0,-1.36276 -0.47038,-2.62408 -1.25728,-3.67373 l 2.19804,-2.20511 c 1.41113,1.62738 2.19803,3.72665 2.19803,5.87884 0,4.98798 -4.08395,9.08508 -9.05589,9.08508 -4.97195,0 -9.00314,-4.0971 -9.00314,-9.08508 0,-4.98797 4.03119,-9.03216 9.00314,-9.03216 1.52104,0 3.03768,0.37045 4.34331,1.10257 0.10111,0.0661 0.21541,0.097 0.32971,0.097 0.25057,0 0.50554,-0.14114 0.61544,-0.35724 0.20661,-0.31753 0.10551,-0.78943 -0.26376,-0.9967 -1.46389,-0.84235 -3.19154,-1.20841 -4.97195,-1.20841 -5.75884,0 -10.36152,4.72336 -10.36152,10.39493 0,5.77741 4.70819,10.44785 10.36152,10.44785 5.75885,0 10.41867,-4.72336 10.41867,-10.44785 0,-2.51825 -0.8924,-4.98797 -2.5673,-6.87997 l 2.19803,-2.15219 c 2.19803,2.46972 3.45531,5.72448 3.45531,9.03216 0,7.51062 -6.07097,13.60117 -13.55746,13.60117 -7.42935,0 -13.55307,-6.09055 -13.55307,-13.60117 0,-7.4577 6.12372,-13.54825 13.55307,-13.54825 2.62005,0 5.13021,0.6836 7.32823,2.15219 0.10991,0.075 0.24179,0.11027 0.37367,0.11027 0.24178,0 0.48796,-0.11466 0.61984,-0.31754 0.21102,-0.31754 0.10551,-0.78943 -0.20661,-0.9967 -2.40904,-1.57889 -5.18296,-2.3639 -8.06238,-2.3639 -8.21624,0 -14.91584,6.7212 -14.91584,14.96393 0,8.29566 6.6996,14.96393 14.91584,14.96393 8.26899,0 14.91584,-6.66827 14.91584,-14.96393 0,-3.72665 -1.35838,-7.24603 -3.82017,-10.08182 l 2.14528,-2.15219 c 2.77391,3.25476 4.60707,7.55915 4.60707,12.33985 0,9.97595 -8.11074,18.01141 -18.00627,18.01141 -9.89115,0 -18.001888,-8.1413 -18.001888,-18.01141 0,-9.92304 8.110738,-18.06433 18.001888,-18.06433 z m 23.12329,-10.50077 c -0.18463,0 -0.36928,0.0706 -0.50995,0.2117 l -7.43375,7.45328 c -0.15385,0.15878 -0.2066,0.31754 -0.2066,0.52484 v 4.20294 l -1.83316,1.83909 c -3.45531,-3.20624 -8.11514,-5.2526 -13.1882,-5.2526 -10.73078,0 -19.474551,8.71463 -19.474551,19.48001 0,10.76538 8.743771,19.53293 19.474551,19.53293 10.72641,0 19.41742,-8.76755 19.41742,-19.53293 0,-5.09384 -1.99141,-9.76425 -5.23572,-13.23071 l 1.83316,-1.83908 h 4.18506 c 0.21101,0 0.36926,-0.10584 0.52313,-0.21167 l 7.43375,-7.45331 c 0.26376,-0.2117 0.36486,-0.47189 0.21099,-0.73651 -0.10549,-0.26462 -0.36926,-0.47189 -0.62863,-0.47189 h -3.82017 v -3.77958 c 0,-0.26461 -0.21102,-0.52481 -0.47038,-0.68359 -0.0879,-0.0353 -0.18024,-0.0529 -0.27695,-0.0529 z"
         fill-rule="evenodd"
         id="path78"
         clip-path="url(#clipPath111)" />
    </g>
  </g>
</svg>
