<?xml version="1.0" encoding="UTF-8" standalone="no"?>
<!-- Created with Inkscape (http://www.inkscape.org/) -->

<svg
   width="12.699389mm"
   height="11.813159mm"
   viewBox="0 0 12.699389 11.813159"
   version="1.1"
   id="svg1"
   inkscape:version="1.3 (0e150ed, 2023-07-21)"
   sodipodi:docname="icon7.svg"
   inkscape:export-filename="icon7.png"
   inkscape:export-xdpi="96"
   inkscape:export-ydpi="96"
   xmlns:inkscape="http://www.inkscape.org/namespaces/inkscape"
   xmlns:sodipodi="http://sodipodi.sourceforge.net/DTD/sodipodi-0.dtd"
   xmlns="http://www.w3.org/2000/svg"
   xmlns:svg="http://www.w3.org/2000/svg">
  <sodipodi:namedview
     id="namedview1"
     pagecolor="#ffffff"
     bordercolor="#000000"
     borderopacity="0.25"
     inkscape:showpageshadow="2"
     inkscape:pageopacity="0.0"
     inkscape:pagecheckerboard="0"
     inkscape:deskcolor="#d1d1d1"
     inkscape:document-units="mm"
     inkscape:zoom="1.5312354"
     inkscape:cx="35.592176"
     inkscape:cy="25.469631"
     inkscape:window-width="1312"
     inkscape:window-height="449"
     inkscape:window-x="0"
     inkscape:window-y="37"
     inkscape:window-maximized="0"
     inkscape:current-layer="layer1" />
  <defs
     id="defs1">
    <clipPath
       clipPathUnits="userSpaceOnUse"
       id="clipPath132">
      <g
         id="g133">
        <path
           d="M 0,0 H 960 V 540 H 0 Z"
           clip-rule="nonzero"
           id="path132" />
      </g>
    </clipPath>
    <clipPath
       clipPathUnits="userSpaceOnUse"
       id="clipPath131">
      <g
         id="g132">
        <path
           d="M 0,0 H 960 V 540 H 0 Z"
           clip-rule="nonzero"
           id="path131" />
      </g>
    </clipPath>
    <clipPath
       clipPathUnits="userSpaceOnUse"
       id="clipPath130">
      <g
         id="g131">
        <path
           d="M 0,0 H 960 V 540 H 0 Z"
           clip-rule="nonzero"
           id="path130" />
      </g>
    </clipPath>
    <clipPath
       clipPathUnits="userSpaceOnUse"
       id="clipPath129">
      <g
         id="g130">
        <path
           d="M 0,0 H 960 V 540 H 0 Z"
           clip-rule="nonzero"
           id="path129" />
      </g>
    </clipPath>
    <clipPath
       clipPathUnits="userSpaceOnUse"
       id="clipPath128">
      <g
         id="g129">
        <path
           d="M 0,0 H 960 V 540 H 0 Z"
           clip-rule="nonzero"
           id="path128" />
      </g>
    </clipPath>
    <clipPath
       clipPathUnits="userSpaceOnUse"
       id="clipPath127">
      <g
         id="g128">
        <path
           d="M 0,0 H 960 V 540 H 0 Z"
           clip-rule="nonzero"
           id="path127" />
      </g>
    </clipPath>
  </defs>
  <g
     inkscape:label="Layer 1"
     inkscape:groupmode="layer"
     id="layer1"
     transform="translate(-76.729167,-136.26042)">
    <g
       id="g6"
       transform="matrix(0.26458333,0,0,0.26458333,50.743312,28.543327)">
      <path
         fill="#C3DAFE"
         d="m 122.25935,408.40567 c 2.47812,0 4.45137,2.09262 4.45137,4.66049 0,2.56787 -1.97326,4.61258 -4.45137,4.61258 -2.47812,0 -4.49762,-2.04471 -4.49762,-4.61258 0,-2.61578 2.0195,-4.66049 4.49762,-4.66049 z m 9.17636,13.50226 c 1.241,0 2.52437,0.19168 3.71526,0.52316 0.27748,1.28592 0.46248,2.56787 0.46248,3.90173 0,5.70282 -3.30673,10.60294 -8.07798,12.69556 0.23124,-1.04632 0.31988,-2.14056 0.31988,-3.18686 0,-3.2348 -0.91725,-6.27792 -2.65926,-8.8937 -0.55112,-0.75876 -1.14849,-1.52155 -1.8345,-2.18448 2.20064,-1.76117 5.04489,-2.85541 8.07412,-2.85541 z m 7.15688,16.83291 0.46248,0.99839 h -0.9211 z M 122.25935,425.7138 c 0.64361,0.66694 1.23713,1.32987 1.78825,2.09263 1.60712,2.37619 2.43188,5.08783 2.43188,8.03509 0,1.28192 -0.13875,2.61578 -0.50488,3.80188 -1.14464,0.33545 -2.38563,0.52313 -3.669,0.52313 -1.24099,0 -2.52437,-0.18768 -3.67286,-0.52313 -0.45863,-1.1861 -0.63977,-2.51996 -0.63977,-3.80188 0,-3.99359 1.60327,-7.55984 4.26638,-10.12772 z m -3.12174,15.59491 v 0 c 1.05599,0.2396 2.06574,0.33146 3.16799,0.33146 1.09838,0 2.10813,-0.0919 3.11788,-0.33146 v 0 c -0.82475,1.71323 -1.83451,3.33063 -3.16413,4.61258 -1.32963,-1.28195 -2.43187,-2.85141 -3.12174,-4.61258 z m -11.40784,-3.6661 c 0.85945,0 1.66879,0.3714 2.23147,0.95447 0.64362,0.66693 1.056,1.52154 1.056,2.47601 0,0.75879 -0.23124,1.42569 -0.68987,1.99679 -0.73226,1.09024 -1.32963,2.18448 -1.56087,3.37458 h -2.10814 c -0.23124,-1.23804 -0.73611,-2.37619 -1.51461,-3.37458 -0.45863,-0.66693 -0.68987,-1.38177 -0.68987,-2.18847 0.0925,-1.71326 1.46837,-3.13895 3.12174,-3.2348 0.0501,0 0.10405,-0.004 0.15415,-0.004 z m 30.17682,3.52234 v 6.46957 h -0.73612 v -6.22998 c 0,-0.0958 0.0925,-0.23959 0.23123,-0.23959 z m 1.88075,0 c 0.13873,0 0.23123,0.14377 0.23123,0.23959 v 6.22998 h -0.73611 v -6.46957 z m -30.60461,6.89688 v 0.28357 h -2.98299 v -0.28357 z m -1.37973,-24.9159 v 0 c -0.22739,1.09424 -0.36613,2.14057 -0.36613,3.23481 0,6.7012 4.22013,12.40802 10.00498,14.50067 0.73226,2.2803 2.06189,4.37295 3.71525,6.03827 -2.24688,1.66531 -5.04873,2.75955 -8.07412,2.75955 -0.82861,0 -1.65337,-0.0479 -2.47812,-0.2396 v -1.6174 c 0,-0.4273 -0.18499,-0.75879 -0.45863,-0.99841 0.22739,-1.04629 0.63977,-1.94885 1.28338,-2.80347 0.59737,-0.85864 0.9635,-1.85702 0.9635,-2.90335 0,-1.32983 -0.50487,-2.56387 -1.42212,-3.51831 -0.92111,-0.86264 -2.08887,-1.33386 -3.27205,-1.33386 -0.0578,0 -0.11176,0 -0.16957,0.004 -2.43187,0.14377 -4.40513,2.14053 -4.45137,4.66049 -0.0463,1.14215 0.31988,2.23239 1.00975,3.13895 0.59737,0.85461 1.00975,1.80508 1.23713,2.80349 l -0.18113,0.19168 c -3.44162,-2.61578 -5.461126,-6.75314 -5.461126,-11.17401 0,-5.70681 3.349126,-10.65084 8.120376,-12.7435 z m 1.37973,26.62516 v 0.4313 h -2.98299 v -0.4313 z m 30.83584,-0.61502 v 0.8067 c 0,0.14377 -0.0925,0.23962 -0.23123,0.23962 h -2.38564 c -0.13875,0 -0.23123,-0.0958 -0.23123,-0.23962 v -0.8067 z M 122.2131,407.11972 c -2.983,0 -5.41487,2.33224 -5.82724,5.2316 -2.57062,1.14215 -4.8175,3.04309 -6.42462,5.41928 -0.73611,1.09424 -1.37587,2.38016 -1.74201,3.66211 -5.83109,2.09262 -10.004973,7.79944 -10.004973,14.50464 0,5.13574 2.431873,9.88809 6.563353,12.7435 v 1.75717 c 0,0.71484 0.54727,1.32986 1.23714,1.32986 h 3.21038 c 0.50487,0 0.9635,-0.33148 1.14849,-0.8067 0.871,0.19168 1.74586,0.2396 2.57062,0.2396 3.44162,0 6.652,-1.23801 9.17637,-3.33063 2.15823,1.76117 4.68261,2.85541 7.52685,3.2348 h 0.0463 c 0.36614,0 0.63977,-0.28754 0.68601,-0.66693 0.0925,-0.42731 -0.22739,-0.75879 -0.59737,-0.8067 -2.47427,-0.33545 -4.725,-1.28592 -6.5595,-2.75955 1.64951,-1.66535 2.98299,-3.75397 3.71525,-6.0383 5.82725,-2.09263 10.00499,-7.79944 10.00499,-14.50065 0,-1.14218 -0.13875,-2.23642 -0.36614,-3.2348 v 0 c 4.77126,2.14057 8.12038,7.03668 8.12038,12.7435 0,3.37454 -1.23714,6.65726 -3.39537,9.17722 v -3.56626 c 0,-0.52316 -0.2775,-1.04632 -0.68987,-1.33386 l -1.09839,-2.47201 c -0.18499,-0.3794 -0.55113,-0.71085 -1.00975,-0.71085 -0.45863,0 -0.87486,0.2356 -1.056,0.71085 l -1.10225,2.47201 c -0.36612,0.28754 -0.68986,0.8107 -0.68986,1.33386 v 7.51191 c -0.96349,0.33148 -1.92699,0.57107 -2.97913,0.66693 -0.36999,0.0479 -0.68988,0.37939 -0.59738,0.75879 0.0463,0.33545 0.31989,0.6669 0.68602,0.6669 h 0.0462 c 0.9635,-0.14377 1.92699,-0.33145 2.93674,-0.61899 0.13875,0.71484 0.78236,1.23801 1.51462,1.23801 h 2.43188 c 0.91725,0 1.65337,-0.76279 1.65337,-1.71326 v -2.85141 c 3.11787,-2.90332 4.86374,-6.99274 4.86374,-11.26984 0,-6.75314 -4.17774,-12.45996 -9.95873,-14.50467 -0.50488,-1.56549 -1.28339,-3.04309 -2.29314,-4.37295 -0.13102,-0.15976 -0.33529,-0.24762 -0.5357,-0.24762 -0.15416,0 -0.30832,0.0519 -0.4278,0.15176 -0.31987,0.23963 -0.36612,0.71485 -0.13873,0.99839 0.68987,0.95047 1.28723,1.90493 1.74585,2.99517 -1.05598,-0.23559 -2.06574,-0.37936 -3.16798,-0.37936 -3.44162,0 -6.652,1.23801 -9.17637,3.33063 -1.19474,-0.99839 -2.57062,-1.76117 -4.03899,-2.38016 -0.0655,-0.016 -0.13103,-0.0279 -0.20041,-0.0279 -0.27749,0 -0.57039,0.15173 -0.71684,0.45526 -0.0925,0.33545 0.0925,0.76275 0.41238,0.95446 1.28337,0.47522 2.43186,1.13816 3.44162,1.94886 -2.79801,2.80349 -4.54387,6.7012 -4.54387,11.07818 0,1.09424 0.13874,2.18848 0.36998,3.18686 -4.7751,-2.14056 -8.07798,-6.99273 -8.07798,-12.69555 0,-1.33387 0.13875,-2.61582 0.50488,-3.80588 1.14849,-0.3794 2.38563,-0.57111 3.67286,-0.57111 0.63976,0 1.19089,0.0959 1.8345,0.14377 0.027,0.004 0.054,0.004 0.0809,0.004 0.33916,0 0.65519,-0.27155 0.69758,-0.62299 0.0463,-0.37939 -0.22738,-0.75879 -0.55112,-0.8067 -0.68601,-0.14377 -1.32963,-0.14377 -2.0195,-0.14377 -1.09838,0 -2.10813,0.14377 -3.16413,0.3794 0.36613,-0.85465 0.73226,-1.6174 1.28338,-2.37619 1.28724,-2.04471 3.12174,-3.61417 5.18749,-4.6605 0.41237,2.99518 2.84424,5.32743 5.82724,5.32743 2.98299,0 5.46112,-2.33225 5.78099,-5.32743 0.96351,0.47525 1.88076,1.14216 2.75176,1.85703 0.13875,0.13977 0.27748,0.18768 0.45863,0.18768 0.23123,0 0.41623,-0.0479 0.50487,-0.23562 0.23123,-0.28754 0.23123,-0.76276 -0.0886,-0.99839 -1.10225,-0.95446 -2.34323,-1.76117 -3.67286,-2.33224 -0.41238,-2.99518 -2.79801,-5.2316 -5.781,-5.2316 z"
         fill-rule="evenodd"
         id="path57"
         clip-path="url(#clipPath132)" />
      <path
         fill="#C3DAFE"
         d="m 122.25935,409.26028 c -0.41238,0 -0.68987,0.28754 -0.68987,0.71484 v 3.04313 c -0.0463,0.37939 0.27749,0.71084 0.68987,0.71084 h 1.32962 c 0.36614,0 0.68987,-0.33145 0.68987,-0.71084 0,-0.42731 -0.32373,-0.76279 -0.68987,-0.76279 h -0.64361 v -2.28034 c 0,-0.4273 -0.27364,-0.71484 -0.68601,-0.71484 z"
         fill-rule="evenodd"
         id="path58"
         clip-path="url(#clipPath131)" />
      <path
         fill="#C3DAFE"
         d="m 122.2131,429.5636 c -0.41238,0 -0.68987,0.33548 -0.68987,0.71487 v 0.33146 c -0.68601,0.28753 -1.14463,0.99838 -1.14463,1.76117 0,1.09423 0.82476,1.94885 1.88075,1.94885 0.27364,0 0.45863,0.23562 0.45863,0.47525 0,0.28354 -0.23124,0.47522 -0.45863,0.47522 -0.18499,0 -0.36613,-0.0958 -0.41238,-0.28354 -0.13874,-0.28354 -0.37769,-0.4353 -0.63976,-0.4353 -0.0925,0 -0.18499,0.016 -0.27749,0.0519 -0.32374,0.19171 -0.50487,0.61901 -0.32374,0.9505 0.23124,0.4313 0.55113,0.81067 0.9635,0.95443 v 0.3794 c 0,0.42731 0.27749,0.71088 0.68987,0.71088 0.0231,0.004 0.0463,0.008 0.0694,0.008 0.30447,0 0.61664,-0.27554 0.61664,-0.6709 v -0.33548 c 0.68987,-0.28354 1.14849,-0.99838 1.14849,-1.80508 0,-1.04633 -0.871,-1.94889 -1.88075,-1.94889 -0.31988,0 -0.45863,-0.23959 -0.45863,-0.47521 0,-0.28754 0.22739,-0.47526 0.45863,-0.47526 0.13875,0 0.27364,0.0479 0.36613,0.23563 0.13875,0.22763 0.33915,0.33548 0.55883,0.33548 0.14645,0 0.30447,-0.0479 0.45092,-0.14377 0.31988,-0.23962 0.36613,-0.66693 0.13875,-0.99841 -0.23124,-0.33545 -0.50488,-0.61899 -0.82476,-0.71484 v -0.33146 c 0,-0.37939 -0.32374,-0.71487 -0.68987,-0.71487 z"
         fill-rule="evenodd"
         id="path59"
         clip-path="url(#clipPath130)" />
      <path
         fill="#C3DAFE"
         d="m 102.99321,433.45334 c -0.17728,0 -0.35072,0.0799 -0.46633,0.24762 -0.27364,0.28754 -0.27364,0.76276 0,0.99838 l 0.50487,0.52317 c 0.0925,0.14376 0.36613,0.23962 0.50488,0.23962 0.18499,0 0.36613,-0.0479 0.50487,-0.23962 0.31988,-0.28354 0.31988,-0.75879 0,-0.99839 l -0.55112,-0.52316 c -0.13875,-0.16772 -0.31989,-0.24762 -0.49717,-0.24762 z"
         fill-rule="evenodd"
         id="path60"
         clip-path="url(#clipPath129)" />
      <path
         fill="#C3DAFE"
         d="m 101.65202,435.37027 c -0.30061,0 -0.528,0.22363 -0.63976,0.56708 -0.0925,0.4273 0.13874,0.75879 0.50486,0.90256 l 0.78237,0.19168 h 0.18114 c 0.27748,0 0.55112,-0.2396 0.64361,-0.57108 0.13875,-0.33545 -0.0925,-0.76276 -0.50487,-0.85861 l -0.73611,-0.18772 c -0.0809,-0.0279 -0.15801,-0.0439 -0.23124,-0.0439 z"
         fill-rule="evenodd"
         id="path61"
         clip-path="url(#clipPath128)" />
      <path
         fill="#C3DAFE"
         d="m 104.75835,432.17142 c -0.0385,0 -0.0771,0.004 -0.11948,0.008 -0.41237,0.14376 -0.55112,0.47522 -0.50487,0.90252 l 0.18114,0.76279 c 0.0462,0.33145 0.32373,0.57107 0.68986,0.57107 h 0.13875 c 0.41238,-0.14376 0.59737,-0.47521 0.55112,-0.90655 l -0.18499,-0.75876 c -0.12333,-0.38339 -0.39697,-0.57907 -0.75153,-0.57907 z"
         fill-rule="evenodd"
         id="path62"
         clip-path="url(#clipPath127)" />
    </g>
  </g>
</svg>
