<?xml version="1.0" encoding="UTF-8" standalone="no"?>
<!-- Created with Inkscape (http://www.inkscape.org/) -->

<svg
   width="12.658353mm"
   height="11.477945mm"
   viewBox="0 0 12.658353 11.477945"
   version="1.1"
   id="svg1"
   inkscape:version="1.3 (0e150ed, 2023-07-21)"
   sodipodi:docname="icon2.svg"
   inkscape:export-filename="icon2.png"
   inkscape:export-xdpi="96"
   inkscape:export-ydpi="96"
   xmlns:inkscape="http://www.inkscape.org/namespaces/inkscape"
   xmlns:sodipodi="http://sodipodi.sourceforge.net/DTD/sodipodi-0.dtd"
   xmlns="http://www.w3.org/2000/svg"
   xmlns:svg="http://www.w3.org/2000/svg">
  <sodipodi:namedview
     id="namedview1"
     pagecolor="#ffffff"
     bordercolor="#000000"
     borderopacity="0.25"
     inkscape:showpageshadow="2"
     inkscape:pageopacity="0.0"
     inkscape:pagecheckerboard="0"
     inkscape:deskcolor="#d1d1d1"
     inkscape:document-units="mm"
     inkscape:zoom="3.6237934"
     inkscape:cx="24.421922"
     inkscape:cy="26.76753"
     inkscape:window-width="1312"
     inkscape:window-height="449"
     inkscape:window-x="0"
     inkscape:window-y="37"
     inkscape:window-maximized="0"
     inkscape:current-layer="layer1" />
  <defs
     id="defs1">
    <clipPath
       clipPathUnits="userSpaceOnUse"
       id="clipPath126">
      <g
         id="g127">
        <path
           d="M 0,0 H 960 V 540 H 0 Z"
           clip-rule="nonzero"
           id="path126" />
      </g>
    </clipPath>
    <clipPath
       clipPathUnits="userSpaceOnUse"
       id="clipPath125">
      <g
         id="g126">
        <path
           d="M 0,0 H 960 V 540 H 0 Z"
           clip-rule="nonzero"
           id="path125" />
      </g>
    </clipPath>
    <clipPath
       clipPathUnits="userSpaceOnUse"
       id="clipPath124">
      <g
         id="g125">
        <path
           d="M 0,0 H 960 V 540 H 0 Z"
           clip-rule="nonzero"
           id="path124" />
      </g>
    </clipPath>
    <clipPath
       clipPathUnits="userSpaceOnUse"
       id="clipPath123">
      <g
         id="g124">
        <path
           d="M 0,0 H 960 V 540 H 0 Z"
           clip-rule="nonzero"
           id="path123" />
      </g>
    </clipPath>
    <clipPath
       clipPathUnits="userSpaceOnUse"
       id="clipPath122">
      <g
         id="g123">
        <path
           d="M 0,0 H 960 V 540 H 0 Z"
           clip-rule="nonzero"
           id="path122" />
      </g>
    </clipPath>
    <clipPath
       clipPathUnits="userSpaceOnUse"
       id="clipPath121">
      <g
         id="g122">
        <path
           d="M 0,0 H 960 V 540 H 0 Z"
           clip-rule="nonzero"
           id="path121" />
      </g>
    </clipPath>
    <clipPath
       clipPathUnits="userSpaceOnUse"
       id="clipPath120">
      <g
         id="g121">
        <path
           d="M 0,0 H 960 V 540 H 0 Z"
           clip-rule="nonzero"
           id="path120" />
      </g>
    </clipPath>
    <clipPath
       clipPathUnits="userSpaceOnUse"
       id="clipPath119">
      <g
         id="g120">
        <path
           d="M 0,0 H 960 V 540 H 0 Z"
           clip-rule="nonzero"
           id="path119" />
      </g>
    </clipPath>
    <clipPath
       clipPathUnits="userSpaceOnUse"
       id="clipPath118">
      <g
         id="g119">
        <path
           d="M 0,0 H 960 V 540 H 0 Z"
           clip-rule="nonzero"
           id="path118" />
      </g>
    </clipPath>
    <clipPath
       clipPathUnits="userSpaceOnUse"
       id="clipPath117">
      <g
         id="g118">
        <path
           d="M 0,0 H 960 V 540 H 0 Z"
           clip-rule="nonzero"
           id="path117" />
      </g>
    </clipPath>
    <clipPath
       clipPathUnits="userSpaceOnUse"
       id="clipPath116">
      <g
         id="g117">
        <path
           d="M 0,0 H 960 V 540 H 0 Z"
           clip-rule="nonzero"
           id="path116" />
      </g>
    </clipPath>
    <clipPath
       clipPathUnits="userSpaceOnUse"
       id="clipPath115">
      <g
         id="g116">
        <path
           d="M 0,0 H 960 V 540 H 0 Z"
           clip-rule="nonzero"
           id="path115" />
      </g>
    </clipPath>
    <clipPath
       clipPathUnits="userSpaceOnUse"
       id="clipPath114">
      <g
         id="g115">
        <path
           d="M 0,0 H 960 V 540 H 0 Z"
           clip-rule="nonzero"
           id="path114" />
      </g>
    </clipPath>
    <clipPath
       clipPathUnits="userSpaceOnUse"
       id="clipPath113">
      <g
         id="g114">
        <path
           d="M 0,0 H 960 V 540 H 0 Z"
           clip-rule="nonzero"
           id="path113" />
      </g>
    </clipPath>
    <clipPath
       clipPathUnits="userSpaceOnUse"
       id="clipPath112">
      <g
         id="g113">
        <path
           d="M 0,0 H 960 V 540 H 0 Z"
           clip-rule="nonzero"
           id="path112" />
      </g>
    </clipPath>
  </defs>
  <g
     inkscape:label="Layer 1"
     inkscape:groupmode="layer"
     id="layer1"
     transform="translate(-105.56875,-115.09375)">
    <path
       fill="#C3DAFE"
       d="m 556.30444,158.58615 c 2.61407,0 5.18024,0.9837 7.22357,2.90388 3.89508,3.88759 3.89508,10.26198 -0.0958,14.10235 -1.99543,1.9674 -4.59748,2.95111 -7.18756,2.95111 -2.59015,0 -5.16425,-0.98371 -7.11579,-2.95111 -3.94305,-3.88759 -3.9909,-10.21476 0,-14.10235 1.95154,-1.92018 4.56159,-2.90388 7.1756,-2.90388 z m 0,-1.41653 c -2.95721,0 -5.91449,1.11355 -8.17334,3.33671 -4.51373,4.45027 -4.51373,11.6667 0,16.11696 2.23492,2.19955 5.22809,3.32492 8.12549,3.32492 2.99316,0 5.89453,-1.12537 8.12549,-3.32492 4.60943,-4.45026 4.60943,-11.66669 0.0958,-16.11696 -2.25488,-2.22316 -5.21613,-3.33671 -8.1734,-3.33671 z"
       fill-rule="evenodd"
       id="path63"
       clip-path="url(#clipPath126)"
       transform="matrix(0.26458333,0,0,0.26458333,-36.15149,74.869982)" />
    <path
       fill="#C3DAFE"
       d="m 556.2566,156.24495 c 3.18475,0 6.41736,1.21585 8.83984,3.60428 4.89283,4.828 4.89283,12.65039 0,17.47446 -2.42248,2.39236 -5.65509,3.60821 -8.83984,3.60821 -3.22864,-0.0472 -6.41339,-1.21585 -8.83588,-3.60821 -4.89685,-4.82407 -4.89685,-12.64646 0,-17.47446 2.42249,-2.38843 5.60724,-3.60428 8.83588,-3.60428 z m 10.45618,21.40927 2.99316,2.9511 -1.18933,1.17257 -2.99316,-2.95504 c 0.23944,-0.18494 0.42706,-0.32659 0.57074,-0.55874 z m 4.98858,2.90389 c 0.0479,0 0.0479,0 0.14368,0.0944 l 8.78796,8.66443 -3.27655,3.1872 -8.79193,-8.66837 c -0.0479,-0.0433 -0.0479,-0.0905 -0.0479,-0.0905 0,-0.0472 0,-0.0472 0.0479,-0.0944 l 3.04108,-2.99832 c 0.0479,-0.0944 0.0479,-0.0944 0.0958,-0.0944 z m 9.88147,9.69929 0.42707,0.46823 c 0.0958,0.0472 0.0958,0.18494 0.0479,0.23216 l -3.04108,2.99833 c -0.0478,0.0472 -0.0478,0.0472 -0.13965,0.0472 -0.0479,0 -0.0479,0 -0.0958,-0.0472 l -0.47492,-0.46825 z m -43.33319,-38.23056 c -1.42474,0 -2.61407,1.17256 -2.61407,2.57729 v 31.71452 c 0,0.8932 0.71442,1.64082 1.66424,1.64082 h 21.71448 c 0.37915,0 0.71039,-0.27937 0.71039,-0.70039 0,-0.42497 -0.33124,-0.70433 -0.71039,-0.70433 h -21.71448 c -0.0958,0 -0.23944,-0.14166 -0.23944,-0.2361 V 158.4445 h 9.69385 l -0.33124,0.37774 c -5.41961,5.29231 -5.41961,14.05119 0,19.44188 2.70588,2.66778 6.26972,4.02923 9.83362,4.02923 2.85346,0 5.703,-0.8932 8.12549,-2.5773 l 3.08893,3.04555 c -0.23548,0.27937 -0.37915,0.65317 -0.37915,0.98369 0,0.42103 0.14367,0.84205 0.47491,1.12143 l 1.76001,1.73524 h -7.31933 c -0.37909,0 -0.71436,0.32658 -0.71436,0.70433 0,0.42102 0.33527,0.70039 0.71436,0.70039 h 8.74408 l 7.03198,6.93313 c 0.28332,0.2833 0.71039,0.46824 1.0935,0.46824 0.42701,0 0.85407,-0.18494 1.13739,-0.46824 l 3.04108,-2.99833 c 0.57068,-0.65316 0.57068,-1.63687 -0.0439,-2.19955 l -3.23267,-3.18718 v -0.18887 -6.69704 c 0,-0.42102 -0.28735,-0.70433 -0.71435,-0.70433 -0.42701,0 -0.71039,0.28331 -0.71039,0.70433 v 5.5284 l -5.55933,-5.48119 c -0.31525,-0.31085 -0.71832,-0.46431 -1.10944,-0.46431 -0.37915,0 -0.7503,0.14166 -1.02966,0.4171 l -3.08899,-3.04555 c 3.89514,-5.38675 3.42023,-12.97697 -1.47259,-17.75777 l -0.3313,-0.3738 h 12.59131 v 18.13157 c 0,0.37381 0.28338,0.7004 0.71039,0.7004 0.427,0 0.71435,-0.32659 0.71435,-0.7004 v -22.01916 c 0,-1.40473 -1.18927,-2.57729 -2.61401,-2.57729 h -6.36548 c -0.38312,0 -0.71442,0.2833 -0.71442,0.70433 0,0.3738 0.3313,0.7004 0.71442,0.7004 h 6.36548 c 0.66644,0 1.18927,0.51545 1.18927,1.17256 v 2.48286 h -14.35126 c -2.35065,-1.52276 -5.06049,-2.28218 -7.7583,-2.28218 -2.69391,0 -5.37976,0.75942 -7.68652,2.28218 h -11.49775 v -2.48286 c 0,-0.65711 0.57068,-1.17256 1.18927,-1.17256 h 29.55664 c 0.37909,0 0.71033,-0.3266 0.71033,-0.7004 0,-0.42103 -0.33124,-0.70433 -0.71033,-0.70433 z"
       fill-rule="evenodd"
       id="path64"
       clip-path="url(#clipPath125)"
       transform="matrix(0.26458333,0,0,0.26458333,-36.15149,74.869982)" />
    <path
       fill="#C3DAFE"
       d="m 540.72,154.65135 c -0.427,0 -0.76221,0.27937 -0.76221,0.70039 0,0.33052 0.33521,0.70433 0.76221,0.70433 0.37915,0 0.71442,-0.27937 0.71442,-0.70433 0,-0.42102 -0.33527,-0.70039 -0.71442,-0.70039 z"
       fill-rule="evenodd"
       id="path65"
       clip-path="url(#clipPath124)"
       transform="matrix(0.26458333,0,0,0.26458333,-36.15149,74.869982)" />
    <path
       fill="#C3DAFE"
       d="m 542.52386,154.65135 c -0.37909,0 -0.71039,0.27937 -0.71039,0.70039 0,0.33052 0.3313,0.70433 0.71039,0.70433 0.43103,0 0.71442,-0.27937 0.71442,-0.70433 0,-0.42102 -0.3313,-0.70039 -0.71442,-0.70039 z"
       fill-rule="evenodd"
       id="path66"
       clip-path="url(#clipPath123)"
       transform="matrix(0.26458333,0,0,0.26458333,-36.15149,74.869982)" />
    <path
       fill="#C3DAFE"
       d="m 544.37964,154.65135 c -0.427,0 -0.71436,0.27937 -0.71436,0.70039 0,0.33052 0.28736,0.70433 0.71436,0.70433 0.42706,0 0.71039,-0.27937 0.71039,-0.70433 -0.0479,-0.42102 -0.37915,-0.70039 -0.71039,-0.70039 z"
       fill-rule="evenodd"
       id="path67"
       clip-path="url(#clipPath122)"
       transform="matrix(0.26458333,0,0,0.26458333,-36.15149,74.869982)" />
    <path
       fill="#C3DAFE"
       d="m 550.55756,169.96954 c -0.43103,0 -0.71436,0.33052 -0.71436,0.70433 0,0.42102 0.28333,0.70039 0.71436,0.70039 0.42706,0 0.71039,-0.27937 0.71039,-0.70039 0,-0.37381 -0.28333,-0.70433 -0.71039,-0.70433 z"
       fill-rule="evenodd"
       id="path68"
       clip-path="url(#clipPath121)"
       transform="matrix(0.26458333,0,0,0.26458333,-36.15149,74.869982)" />
    <path
       fill="#C3DAFE"
       d="m 550.55756,172.26747 c -0.43103,0 -0.71436,0.27937 -0.71436,0.70039 0,0.42102 0.28333,0.70433 0.71436,0.70433 0.42706,0 0.71039,-0.28331 0.71039,-0.70433 0,-0.42102 -0.28333,-0.70039 -0.71039,-0.70039 z"
       fill-rule="evenodd"
       id="path69"
       clip-path="url(#clipPath120)"
       transform="matrix(0.26458333,0,0,0.26458333,-36.15149,74.869982)" />
    <path
       fill="#C3DAFE"
       d="m 552.6009,169.96954 c -0.43097,0 -0.76227,0.33052 -0.76227,0.70433 0,0.42102 0.3313,0.70039 0.76227,0.70039 0.37915,0 0.71039,-0.27937 0.71039,-0.70039 0,-0.37381 -0.37915,-0.70433 -0.71039,-0.70433 z"
       fill-rule="evenodd"
       id="path70"
       clip-path="url(#clipPath119)"
       transform="matrix(0.26458333,0,0,0.26458333,-36.15149,74.869982)" />
    <path
       fill="#C3DAFE"
       d="m 552.6009,172.26747 c -0.43097,0 -0.76227,0.27937 -0.76227,0.70039 0,0.42102 0.3313,0.70433 0.76227,0.70433 0.37915,0 0.71039,-0.28331 0.71039,-0.70433 0,-0.42102 -0.37915,-0.70039 -0.71039,-0.70039 z"
       fill-rule="evenodd"
       id="path71"
       clip-path="url(#clipPath118)"
       transform="matrix(0.26458333,0,0,0.26458333,-36.15149,74.869982)" />
    <path
       fill="#C3DAFE"
       d="m 558.77484,163.13086 -0.61462,2.85666 -2.94928,-0.65711 c -0.0838,-0.0157 -0.16761,-0.0236 -0.25537,-0.0236 -0.39911,0 -0.79822,0.16921 -1.07355,0.40136 -0.37915,0.37381 -0.47498,0.79483 -0.37915,1.31028 l 0.0958,0.0944 -2.33069,-2.15627 z m -3.89514,3.56099 3.04108,0.65318 -0.66651,3.28162 -1.75598,-1.68802 z m 4.37005,1.03091 3.18476,0.7004 -5.7948,5.71728 -0.66651,-2.76617 0.23548,0.23608 c 0.28735,0.23216 0.6665,0.42104 0.99774,0.42104 0.14368,0 0.28735,0 0.43103,-0.0472 0.47491,-0.18493 0.90192,-0.51546 0.94983,-1.07814 z m -0.51879,-5.98483 c -0.11176,0 -0.22352,0.0118 -0.33527,0.0354 l -7.5069,1.82574 c -0.427,0.14166 -0.854,0.51546 -0.99768,0.9837 -0.0958,0.46825 0,1.03092 0.37909,1.35752 l 3.85126,3.70265 1.13739,4.77684 c 0.0958,0.46825 0.47491,0.8932 0.99774,1.07814 0.14368,0.0472 0.23944,0.0472 0.427,0.0472 0.33527,0 0.71436,-0.14167 0.99774,-0.42104 l 5.84668,-5.71727 c 0.28333,-0.42102 0.37909,-0.93648 0.28333,-1.40472 -0.13965,-0.46823 -0.52277,-0.88927 -1.08948,-0.98371 l -3.18475,-0.7476 0.57068,-2.86061 c 0.13971,-0.46823 -0.0479,-0.93648 -0.38312,-1.26306 -0.28735,-0.28725 -0.63458,-0.40923 -0.99371,-0.40923 z"
       fill-rule="evenodd"
       id="path72"
       clip-path="url(#clipPath117)"
       transform="matrix(0.26458333,0,0,0.26458333,-36.15149,74.869982)" />
    <path
       fill="#C3DAFE"
       d="m 540.57635,179.33832 c -0.42706,0 -0.71039,0.28329 -0.71039,0.70433 0,0.42102 0.37909,0.70433 0.71039,0.70433 h 0.37909 c 0.38312,0 0.71442,-0.28331 0.71442,-0.70433 0,-0.42104 -0.3313,-0.70433 -0.71442,-0.70433 z"
       fill-rule="evenodd"
       id="path73"
       clip-path="url(#clipPath116)"
       transform="matrix(0.26458333,0,0,0.26458333,-36.15149,74.869982)" />
    <path
       fill="#C3DAFE"
       d="m 542.66754,179.33832 c -0.427,0 -0.71039,0.33052 -0.71039,0.70433 0,0.42102 0.28339,0.70433 0.71039,0.70433 h 2.37457 c 0.43103,0 0.71442,-0.28331 0.71442,-0.70433 0,-0.3266 -0.37915,-0.70433 -0.71442,-0.70433 z"
       fill-rule="evenodd"
       id="path74"
       clip-path="url(#clipPath115)"
       transform="matrix(0.26458333,0,0,0.26458333,-36.15149,74.869982)" />
    <path
       fill="#C3DAFE"
       d="m 540.57635,181.21521 c -0.42706,0 -0.71039,0.3266 -0.71039,0.70039 0,0.42104 0.28333,0.70433 0.71039,0.70433 h 4.46576 c 0.43103,0 0.71442,-0.28329 0.71442,-0.70433 0,-0.37379 -0.37915,-0.70039 -0.71442,-0.70039 z"
       fill-rule="evenodd"
       id="path75"
       clip-path="url(#clipPath114)"
       transform="matrix(0.26458333,0,0,0.26458333,-36.15149,74.869982)" />
    <path
       fill="#C3DAFE"
       d="m 540.57635,183.04097 c -0.42706,0 -0.71039,0.27936 -0.71039,0.70432 0,0.42103 0.28333,0.7004 0.71039,0.7004 h 4.46576 c 0.43103,0 0.71442,-0.27937 0.71442,-0.7004 0,-0.42496 -0.37915,-0.70432 -0.71442,-0.70432 z"
       fill-rule="evenodd"
       id="path76"
       clip-path="url(#clipPath113)"
       transform="matrix(0.26458333,0,0,0.26458333,-36.15149,74.869982)" />
    <path
       fill="#C3DAFE"
       d="m 575.3131,160.0381 c -0.38312,0 -0.71436,0.32658 -0.71436,0.70433 v 14.24005 c 0,0.37381 0.33124,0.70433 0.71436,0.70433 0.42706,0 0.71039,-0.33052 0.71039,-0.70433 v -14.24005 c 0,-0.42104 -0.28333,-0.70433 -0.71039,-0.70433 z"
       fill-rule="evenodd"
       id="path77"
       clip-path="url(#clipPath112)"
       transform="matrix(0.26458333,0,0,0.26458333,-36.15149,74.869982)" />
  </g>
</svg>
