<?xml version="1.0" encoding="UTF-8" standalone="no"?>
<!-- Created with Inkscape (http://www.inkscape.org/) -->

<svg
   width="12.664517mm"
   height="12.699286mm"
   viewBox="0 0 12.664517 12.699286"
   version="1.1"
   id="svg1"
   inkscape:version="1.3 (0e150ed, 2023-07-21)"
   sodipodi:docname="icon1.orig.svg"
   inkscape:export-filename="icon1.png"
   inkscape:export-xdpi="96"
   inkscape:export-ydpi="96"
   xmlns:inkscape="http://www.inkscape.org/namespaces/inkscape"
   xmlns:sodipodi="http://sodipodi.sourceforge.net/DTD/sodipodi-0.dtd"
   xmlns="http://www.w3.org/2000/svg"
   xmlns:svg="http://www.w3.org/2000/svg">
  <sodipodi:namedview
     id="namedview1"
     pagecolor="#ffffff"
     bordercolor="#000000"
     borderopacity="0.25"
     inkscape:showpageshadow="2"
     inkscape:pageopacity="0.0"
     inkscape:pagecheckerboard="0"
     inkscape:deskcolor="#d1d1d1"
     inkscape:document-units="mm"
     inkscape:zoom="4.166188"
     inkscape:cx="29.403378"
     inkscape:cy="25.802964"
     inkscape:window-width="1312"
     inkscape:window-height="652"
     inkscape:window-x="0"
     inkscape:window-y="37"
     inkscape:window-maximized="0"
     inkscape:current-layer="layer1" />
  <defs
     id="defs1">
    <clipPath
       clipPathUnits="userSpaceOnUse"
       id="clipPath97">
      <g
         id="g98">
        <path
           d="M 0,0 H 960 V 540 H 0 Z"
           clip-rule="nonzero"
           id="path97" />
      </g>
    </clipPath>
  </defs>
  <g
     inkscape:label="Layer 1"
     inkscape:groupmode="layer"
     id="layer1"
     transform="translate(-2.3812495,-118.26875)">
    <path
       fill="#C3DAFE"
       d="m 113.05303,157.16035 c 0.88026,0 1.56718,0.68208 1.56718,1.56552 v 1.51624 c 0,1.26967 -1.07769,2.29692 -2.35283,2.29692 -0.0247,0 -0.0535,0.004 -0.0782,0.004 -1.18876,0 -2.17184,-1.06014 -2.17184,-2.30104 v -1.51624 c 0,-0.88344 0.63345,-1.56552 1.51782,-1.56552 z m -0.0494,6.7511 v 0.0493 c 0.14808,0.39035 0.19333,0.7314 0.29204,0.97794 l -0.97897,0.97795 h -0.0987 l -0.97898,-0.97795 c 0.0987,-0.24654 0.19744,-0.48897 0.19744,-0.73551 v -0.29173 z m 8.37478,7.19075 v 9.09733 l -4.55348,3.22968 v -11.25044 c 0.34141,0.24243 0.8309,0.43965 1.32038,0.48897 h 0.53885 c 0.58821,-0.0986 1.17642,-0.24654 1.61655,-0.68621 z m -11.26647,-5.23486 1.12706,1.12585 c 0.24681,0.24243 0.58821,0.39037 1.02834,0.39037 0.44013,0 0.73629,-0.0986 1.02833,-0.39037 l 0.97898,-0.97794 c 0.34552,0.0945 0.63757,0.24244 0.98309,0.24244 0.24269,0 0.48949,0.0986 0.63346,0.29585 l 2.05667,2.54347 c 0.14397,0.19724 0.35375,0.29996 0.56353,0.29996 0.14808,0 0.29616,-0.0534 0.41545,-0.15615 l 2.55028,-2.0052 c 0.1563,-0.13148 0.37431,-0.22188 0.58409,-0.22188 0.18099,0 0.35787,0.0657 0.49361,0.22188 0.19332,0.14794 0.29204,0.34517 0.24268,0.5876 0.0494,0.19722 -0.0494,0.43965 -0.24268,0.53827 l -3.18374,2.54347 c -0.2468,0.14794 -0.53885,0.29586 -0.88437,0.34517 h -0.29204 c -0.44014,-0.0493 -0.78566,-0.24655 -1.02834,-0.53828 l -0.63757,-0.73552 c -0.11518,-0.18901 -0.34552,-0.26297 -0.57998,-0.26297 -0.0699,0 -0.13574,0.008 -0.20156,0.0164 -0.29616,0.0986 -0.48949,0.34516 -0.48949,0.68621 v 14.04046 l -1.56718,1.17519 v -6.55387 c 0,-0.34515 -0.29616,-0.6862 -0.68693,-0.6862 -0.34552,0 -0.68693,0.34105 -0.68693,0.6862 v 7.5318 l -2.29936,1.66416 v -9.05214 c 0,-0.6821 -0.19744,-1.4176 -0.49361,-2.05451 l -0.73217,-1.3683 c -0.19744,-0.43966 -0.29616,-0.92863 -0.29616,-1.3724 v -7.19077 c 0,-0.34105 0.14808,-0.58758 0.39488,-0.7314 z m 11.99864,-16.14429 c -0.3414,0 -0.63345,0.29173 -0.63345,0.6821 v 15.21563 c -0.2468,0.0493 -0.48949,0.24656 -0.73629,0.43967 l -1.95795,1.56554 -1.66591,-2.00521 c -0.44013,-0.53827 -1.02834,-0.83001 -1.71527,-0.83001 -0.44013,0 -0.78154,-0.39035 -0.78154,-0.83002 v -0.78482 c 0.88026,-0.6862 1.51783,-1.76276 1.51783,-2.98314 v -1.51622 c 0,-1.66415 -1.37386,-2.93794 -2.94104,-2.93794 h -1.51783 c -1.66179,0 -2.93693,1.3231 -2.93693,2.93794 v 1.51622 c 0,1.22038 0.58821,2.29694 1.51782,2.98314 v 1.02725 0.0986 l -1.76462,0.83002 c -0.73218,0.39447 -1.22167,1.17517 -1.22167,1.95999 v 7.24006 c 0,0.6328 0.14808,1.36831 0.48949,2.00521 l 0.73218,1.4176 c 0.14808,0.39035 0.29616,0.87933 0.29616,1.3231 v 10.07528 l -10.238127,7.28938 c -0.292046,0.24654 -0.341408,0.6862 -0.193329,0.97794 0.156311,0.18902 0.398994,0.29995 0.625229,0.29995 0.127518,0 0.250915,-0.0329 0.353752,-0.10272 l 22.919575,-16.19359 22.87022,16.19359 c 0.14809,0.0493 0.24681,0.0986 0.44014,0.0986 0.2468,0 0.44424,-0.0986 0.53885,-0.29585 0.0987,-0.29174 0,-0.7314 -0.29205,-0.97794 L 122.79751,180.105 v -10.12871 l 0.68693,-0.58759 c 0.48949,-0.39035 0.78154,-0.97793 0.8309,-1.61483 0,-0.6821 -0.24269,-1.31899 -0.73218,-1.71346 -0.2468,-0.19311 -0.48948,-0.39035 -0.78565,-0.43967 v -12.96391 h 9.45248 l -0.97897,1.95589 c -0.14809,0.19723 -0.14809,0.44377 0,0.58758 l 0.97897,1.96001 h -7.09964 c -0.39488,0 -0.68693,0.34105 -0.68693,0.68208 0,0.39037 0.29205,0.68622 0.68693,0.68622 h 8.2267 c 0.24269,0 0.48949,-0.14793 0.63757,-0.29585 0.0946,-0.19313 0.0946,-0.48897 0.0494,-0.6821 l -1.3245,-2.69139 1.3245,-2.69141 c 0.14397,-0.24243 0.14397,-0.48896 -0.0494,-0.6862 -0.14808,-0.14381 -0.39488,-0.29173 -0.63757,-0.29173 h -10.57954 v -0.78482 c 0,-0.39037 -0.29204,-0.6821 -0.68693,-0.6821 z"
       fill-rule="evenodd"
       id="path92"
       clip-path="url(#clipPath97)"
       transform="matrix(0.26458333,0,0,0.26458333,-23.62175,78.654537)" />
  </g>
</svg>
