<?xml version="1.0" encoding="UTF-8" standalone="no"?>
<!-- Created with Inkscape (http://www.inkscape.org/) -->

<svg
   width="12.417028mm"
   height="12.380603mm"
   viewBox="0 0 12.417028 12.380603"
   version="1.1"
   id="svg1"
   inkscape:version="1.3 (0e150ed, 2023-07-21)"
   sodipodi:docname="icon6.svg"
   inkscape:export-filename="icon6.png"
   inkscape:export-xdpi="96"
   inkscape:export-ydpi="96"
   xmlns:inkscape="http://www.inkscape.org/namespaces/inkscape"
   xmlns:sodipodi="http://sodipodi.sourceforge.net/DTD/sodipodi-0.dtd"
   xmlns="http://www.w3.org/2000/svg"
   xmlns:svg="http://www.w3.org/2000/svg">
  <sodipodi:namedview
     id="namedview1"
     pagecolor="#ffffff"
     bordercolor="#000000"
     borderopacity="0.25"
     inkscape:showpageshadow="2"
     inkscape:pageopacity="0.0"
     inkscape:pagecheckerboard="0"
     inkscape:deskcolor="#d1d1d1"
     inkscape:document-units="mm"
     inkscape:zoom="2.8016288"
     inkscape:cx="31.945702"
     inkscape:cy="26.770142"
     inkscape:window-width="1312"
     inkscape:window-height="449"
     inkscape:window-x="0"
     inkscape:window-y="37"
     inkscape:window-maximized="0"
     inkscape:current-layer="layer1" />
  <defs
     id="defs1">
    <clipPath
       clipPathUnits="userSpaceOnUse"
       id="clipPath110">
      <g
         id="g111">
        <path
           d="M 0,0 H 960 V 540 H 0 Z"
           clip-rule="nonzero"
           id="path110" />
      </g>
    </clipPath>
    <clipPath
       clipPathUnits="userSpaceOnUse"
       id="clipPath109">
      <g
         id="g110">
        <path
           d="M 0,0 H 960 V 540 H 0 Z"
           clip-rule="nonzero"
           id="path109" />
      </g>
    </clipPath>
    <clipPath
       clipPathUnits="userSpaceOnUse"
       id="clipPath108">
      <g
         id="g109">
        <path
           d="M 0,0 H 960 V 540 H 0 Z"
           clip-rule="nonzero"
           id="path108" />
      </g>
    </clipPath>
    <clipPath
       clipPathUnits="userSpaceOnUse"
       id="clipPath107">
      <g
         id="g108">
        <path
           d="M 0,0 H 960 V 540 H 0 Z"
           clip-rule="nonzero"
           id="path107" />
      </g>
    </clipPath>
    <clipPath
       clipPathUnits="userSpaceOnUse"
       id="clipPath106">
      <g
         id="g107">
        <path
           d="M 0,0 H 960 V 540 H 0 Z"
           clip-rule="nonzero"
           id="path106" />
      </g>
    </clipPath>
    <clipPath
       clipPathUnits="userSpaceOnUse"
       id="clipPath105">
      <g
         id="g106">
        <path
           d="M 0,0 H 960 V 540 H 0 Z"
           clip-rule="nonzero"
           id="path105" />
      </g>
    </clipPath>
    <clipPath
       clipPathUnits="userSpaceOnUse"
       id="clipPath104">
      <g
         id="g105">
        <path
           d="M 0,0 H 960 V 540 H 0 Z"
           clip-rule="nonzero"
           id="path104" />
      </g>
    </clipPath>
  </defs>
  <g
     inkscape:label="Layer 1"
     inkscape:groupmode="layer"
     id="layer1"
     transform="translate(-124.61875,-166.15833)">
    <g
       id="g5"
       transform="matrix(0.26458333,0,0,0.26458333,-17.35581,80.982582)">
      <path
         fill="#C3DAFE"
         d="m 566.0927,356.43933 c -0.92664,0 -1.87842,0.3497 -2.65411,1.12918 -0.24738,0.25278 -0.24738,0.65305 0,1.00275 0.12579,0.1264 0.30188,0.1896 0.48217,0.1896 0.1803,0 0.36902,-0.0632 0.51575,-0.1896 0.47382,-0.4719 1.06921,-0.71625 1.6604,-0.71625 0.46961,0 0.93921,0.15588 1.33753,0.46768 1.09857,0.74997 1.39624,2.2583 0.64575,3.31165 -0.48639,0.70782 -1.23273,1.02801 -1.97071,1.02801 -1.14044,0 -2.26837,-0.77102 -2.41931,-2.08136 -0.0461,-0.37497 -0.3103,-0.65725 -0.66247,-0.65725 -0.0294,0 -0.0587,0 -0.0881,0.004 -0.34802,0.0506 -0.6499,0.40027 -0.59954,0.74997 0.2138,2.13614 1.99163,3.3959 3.77777,3.3959 1.15728,0 2.31872,-0.52667 3.06085,-1.68954 0.45282,-0.65305 0.6499,-1.40302 0.6499,-2.1572 0.0336,-2.27097 -1.80298,-3.78775 -3.7359,-3.78775 z"
         fill-rule="evenodd"
         id="path79"
         clip-path="url(#clipPath110)" />
      <path
         fill="#C3DAFE"
         d="m 552.70056,332.56265 c -6.0965,0 -12.29785,3.41275 -14.9729,9.95599 -0.19708,0.40448 0.15094,0.90586 0.6499,0.90586 0.25153,0 0.54926,-0.15168 0.59955,-0.40448 2.36066,-5.81012 7.86591,-9.06278 13.50543,-9.06278 2.8302,0 5.69397,0.81739 8.20972,2.54483 0.35217,0.2486 0.6499,0.40027 0.95178,0.74997 0.13416,0.11798 0.30188,0.17694 0.46961,0.17694 0.19708,0 0.38995,-0.0843 0.52832,-0.27807 0.29767,-0.29914 0.24737,-0.74994 -0.0504,-1.00275 -2.77148,-2.41 -6.3103,-3.58551 -9.89105,-3.58551 z"
         fill-rule="evenodd"
         id="path80"
         clip-path="url(#clipPath109)" />
      <path
         fill="#C3DAFE"
         d="m 537.6396,344.8233 c -0.32703,0 -0.66248,0.23596 -0.70862,0.55615 -1.2998,6.31995 1.24951,12.99378 6.63739,16.60459 0.30188,0.25277 4.04621,3.00827 9.13635,5.11493 0.0504,0.0505 0.2013,0.0505 0.25159,0.0505 0.24738,0 0.59961,-0.198 0.6499,-0.4508 0.19709,-0.50138 0,-0.90165 -0.40252,-1.00278 -5.03986,-2.00552 -8.83448,-4.86633 -8.83448,-4.86633 -4.94342,-3.36222 -7.28729,-9.42932 -6.04199,-15.19733 0.0504,-0.35391 -0.19702,-0.75418 -0.59955,-0.80475 -0.0294,-0.004 -0.0587,-0.004 -0.0881,-0.004 z"
         fill-rule="evenodd"
         id="path81"
         clip-path="url(#clipPath108)" />
      <path
         fill="#C3DAFE"
         d="m 555.94165,337.85455 c -0.0293,0 -0.0586,0 -0.0922,0 l -5.29145,0.25278 c -1.49688,0.0506 -2.49481,1.55472 -1.94555,2.95773 -1.14881,0.10111 -1.99579,1.10388 -1.9455,2.30887 0.0503,1.20502 1.04822,2.05609 2.19708,2.05609 0.0964,0 0.0462,0 1.74427,-0.0506 0.35223,0 0.70019,-0.3497 0.70019,-0.75415 0,-0.34973 -0.39831,-0.69943 -0.75049,-0.69943 l -1.64782,0.10113 c -0.44867,0 -0.84699,-0.40448 -0.84699,-0.85531 0,-0.40024 0.34802,-0.80051 0.80084,-0.80051 h 0.54511 c 0.80084,-0.0506 1.19916,-1.00278 0.70019,-1.55472 -0.4486,-0.50137 -0.15094,-1.30609 0.54926,-1.40722 l 5.2915,-0.2486 c 0.44861,0 0.90149,0.40027 0.90149,0.85111 0,0.40026 -0.40252,0.80471 -0.75055,0.80471 h -0.49896 c -0.80084,0.0506 -1.19916,1.00278 -0.70019,1.60529 0.4486,0.50137 0.0503,1.35245 -0.59961,1.35245 l -0.89728,0.0506 c -0.34802,0 -0.70026,0.34971 -0.70026,0.75419 0,0.3497 0.40253,0.6994 0.75055,0.6994 l 0.89728,-0.10114 c 1.49689,-0.0463 2.49902,-1.55469 1.99585,-2.90716 1.00213,-0.15168 1.84906,-1.15442 1.79877,-2.35944 -0.0503,-1.12494 -1.04407,-2.05606 -2.20551,-2.05606 z"
         fill-rule="evenodd"
         id="path82"
         clip-path="url(#clipPath107)" />
      <path
         fill="#C3DAFE"
         d="m 559.44696,348.53943 c -0.99792,0 -1.14886,0.40027 -5.74432,2.91138 -1.2956,0.74997 -1.49683,2.50692 -0.39832,3.50967 -0.84698,0.60251 -1.19916,1.70639 -0.89728,2.65857 0.34381,0.90588 1.1698,1.4241 2.02521,1.4241 0.38153,0 0.76727,-0.10531 1.11951,-0.32022 l 1.14886,-0.65304 c 0.34796,-0.19803 0.44861,-0.64884 0.24738,-0.95221 -0.10065,-0.20645 -0.34387,-0.34128 -0.58283,-0.34128 -0.11322,0 -0.22223,0.0295 -0.31445,0.0927 l -1.19922,0.6994 c -0.12994,0.0758 -0.26831,0.10953 -0.40668,0.10953 -0.33123,0 -0.6499,-0.20645 -0.78827,-0.56036 -0.10064,-0.29914 0.0461,-0.80051 0.39832,-1.00275 0.74634,-0.45084 0.84698,-1.50415 0.10065,-2.05609 -0.45288,-0.40027 -0.35224,-1.10388 0.0964,-1.40723 4.94342,-2.75549 4.69605,-2.75549 5.09436,-2.75549 0.39832,0 0.79669,0.40027 0.79669,0.80051 0,0.70364 -0.69604,0.85531 -0.94763,1.00277 -0.6499,0.40448 -0.59961,1.40723 0.15094,1.70639 0.64991,0.25278 0.64991,1.15442 0.0504,1.50412 l -0.99793,0.55194 c -0.30188,0.20224 -0.45288,0.65308 -0.25158,0.95221 0.13836,0.20646 0.36895,0.34549 0.61218,0.34549 0.11316,0 0.22638,-0.0295 0.33539,-0.0927 l 0.99792,-0.55194 c 1.29981,-0.75418 1.55139,-2.50693 0.40253,-3.56024 1.94549,-1.15442 1.14886,-4.01526 -1.04822,-4.01526 z"
         fill-rule="evenodd"
         id="path83"
         clip-path="url(#clipPath106)" />
      <path
         fill="#C3DAFE"
         d="m 542.7633,345.2362 c -0.14673,0 -0.29346,0.0127 -0.44025,0.0421 -0.99792,0.25281 -1.79876,1.10389 -1.79876,2.1572 0,0.70361 0.30194,0.95221 0.85119,2.46057 0.0713,0.29914 0.3396,0.45502 0.5954,0.45502 0.088,0 0.17609,-0.0169 0.25159,-0.0548 0.39831,-0.1517 0.59955,-0.60251 0.39831,-0.90164 -0.6499,-1.70639 -0.69604,-1.70639 -0.69604,-1.9592 0,-0.4508 0.39831,-0.80051 0.74634,-0.80051 0.30188,0 0.70025,0.24857 0.80084,0.55195 0.14679,0.19799 0.19708,1.15441 1.09857,1.15441 0.29767,0 0.5954,-0.20224 0.79663,-0.50558 0.13837,-0.25702 0.41089,-0.38342 0.68347,-0.38342 0.31446,0 0.63312,0.16433 0.76313,0.48452 2,5.22028 2,5.01804 2,5.26664 0,0.53085 -0.43189,0.83844 -0.85535,0.83844 -0.30188,0 -0.59961,-0.15168 -0.74219,-0.48453 l -0.25152,-0.60251 c -0.15937,-0.39606 -0.50739,-0.5983 -0.85541,-0.5983 -0.31446,0 -0.6247,0.16434 -0.79242,0.4972 -0.15936,0.27807 -0.42768,0.41711 -0.70026,0.41711 -0.31445,0 -0.63727,-0.18961 -0.79663,-0.56882 l -0.25159,-0.6994 c -0.109,-0.25699 -0.37317,-0.43396 -0.62475,-0.43396 -0.0964,0 -0.18866,0.0253 -0.27252,0.08 -0.34803,0.15167 -0.54926,0.55194 -0.34803,0.85528 l 0.24738,0.69944 c 0.36059,0.92691 1.22015,1.48306 2.09228,1.48306 0.45282,0 0.90986,-0.15167 1.30402,-0.47611 0.38574,0.77524 1.19495,1.28507 2.0755,1.28507 0.25159,0 0.51154,-0.0421 0.77149,-0.13483 0.84698,-0.3497 1.39624,-1.2008 1.39624,-2.10666 0.15094,-0.6994 -0.0503,-0.6994 -1.99585,-5.81854 -0.32282,-0.87637 -1.1698,-1.39459 -2.03357,-1.39459 -0.47376,0 -0.956,0.15588 -1.36267,0.49295 -0.3816,-0.81317 -1.20337,-1.2977 -2.05457,-1.2977 z"
         fill-rule="evenodd"
         id="path84"
         clip-path="url(#clipPath105)" />
      <path
         fill="#C3DAFE"
         d="m 582.66315,321.9241 c -0.11743,0 -0.2348,0.0253 -0.35223,0.08 -2.64569,1.10388 -5.24115,2.85663 -7.74012,5.16549 -0.24737,0.25281 -0.34802,0.70362 0,1.00275 0.13416,0.13483 0.31446,0.22754 0.50733,0.22754 0.15936,0 0.33124,-0.0632 0.4906,-0.22754 2.05035,-1.90439 4.0965,-3.40854 6.29358,-4.51242 v 0 c -1.5011,4.91269 -4.79254,9.22711 -8.44037,12.79153 -0.0671,-0.0211 -0.13416,-0.0295 -0.19708,-0.0295 -0.47376,0 -0.8805,0.4466 -0.75049,0.93113 -0.39832,0.3497 -0.79669,0.75418 -1.14887,1.05334 -0.59961,-0.8511 -1.49688,-1.70639 -2.39416,-2.05609 0.24737,-0.40027 0.54925,-0.80475 0.79663,-1.30612 0.75055,0.60251 0.90149,0.85528 1.35016,0.85528 0.59955,0 0.89728,-0.80471 0.39831,-1.25555 l -0.89727,-0.80051 c 0.14672,-0.30337 0.10058,-0.20224 0.24737,-0.40448 0,0 0.54926,-0.80053 0.59961,-0.80053 l 1.69812,1.45358 c 0.13416,0.11377 0.30188,0.16431 0.46539,0.16431 0.19709,0 0.39417,-0.0758 0.53254,-0.21488 0.25152,-0.3497 0.20123,-0.74994 -0.0504,-1.00275 l -1.74841,-1.50415 c 0.40252,-0.6025 0.85113,-1.10388 1.3501,-1.60525 0.24737,-0.29913 0.24737,-0.75418 -0.0503,-1.00278 -0.13836,-0.11374 -0.30609,-0.17694 -0.47381,-0.17694 -0.19709,0 -0.38996,0.0843 -0.52411,0.27808 -0.99793,1.05331 -1.94556,2.25409 -2.94763,3.56021 0,0 -0.94757,1.25558 -2.19287,3.26111 -0.11744,-0.008 -0.23481,-0.0127 -0.35224,-0.0127 -1.86584,0 -3.59753,1.12076 -4.4906,2.82291 -0.40253,0.74997 -0.45282,1.50415 -0.75055,2.00552 -0.29767,0.50138 -0.75055,1.00278 -1.39624,1.35248 -0.6499,0.40448 -1.3501,0.60248 -2.09643,0.80472 -0.25159,0.0506 -0.70026,0.19803 -1.14887,0.24859 -0.8512,0.15168 -1.24951,1.30613 -0.54925,1.95917 0.4989,0.40027 0.99786,0.85111 1.54718,1.15445 0.11737,0.0674 0.24316,0.10114 0.36474,0.10114 0.2348,0 0.45282,-0.1222 0.58283,-0.35395 0.20129,-0.29913 0.0503,-0.75418 -0.24738,-0.90164 -0.30188,-0.20224 -0.59961,-0.4508 -0.95178,-0.70361 2.09643,-0.50137 3.8952,-1.15445 4.99377,-2.95773 0.44861,-0.75419 0.59955,-1.5589 0.84693,-2.10663 0.56604,-1.20078 1.84491,-2.06452 3.22015,-2.06452 0.81348,0 1.66461,0.30335 2.42352,1.00699 1.84491,1.70636 1.2453,4.71887 -1.04821,6.17246 -1.55976,0.96484 -3.6269,1.63897 -5.61853,1.63897 -0.49897,0 -0.99372,-0.0421 -1.47168,-0.13482 -0.0336,-0.004 -0.0671,-0.004 -0.10065,-0.004 -0.35639,0 -0.65827,0.23594 -0.74634,0.55616 -0.0503,0.40024 0.19708,0.75418 0.59961,0.80472 0.58283,0.10955 1.16559,0.16433 1.75262,0.16433 0.71277,0 1.4256,-0.0801 2.13837,-0.21487 0.2013,3.96048 2.84699,7.06988 6.24329,8.57825 1.64361,0.6994 2.69183,2.35522 2.69183,4.11215 0,1.40301 -0.74634,2.40579 -0.74634,2.40579 -2.92248,3.59814 -6.6416,5.0433 -10.72131,5.0433 -2.12158,0 -4.34381,-0.39184 -6.60382,-1.07861 -0.0587,-0.0168 -0.11737,-0.0211 -0.17609,-0.0211 -0.32287,0 -0.5954,0.21909 -0.72119,0.4719 -0.10065,0.35391 0.15094,0.75418 0.44867,0.85528 2.4151,0.74997 4.78412,1.16287 7.04407,1.16287 4.52417,0 8.61645,-1.6474 11.77789,-5.52783 0,-0.0506 0.10065,-0.0506 0.10065,-0.15167 1.99585,-3.0083 0.79663,-7.12466 -2.49896,-8.57825 -3.09436,-1.30191 -5.38794,-4.11218 -5.43824,-7.62606 1.59748,-0.50138 2.74219,-1.20078 2.79248,-1.25135 2.24744,-1.40722 3.19501,-3.91412 2.69605,-6.02078 4.99377,-4.01526 9.93719,-9.98126 11.63116,-16.55399 0.1258,-0.57724 -0.32287,-1.08282 -0.84277,-1.08282 z"
         fill-rule="evenodd"
         id="path85"
         clip-path="url(#clipPath104)" />
    </g>
  </g>
</svg>
