<?xml version="1.0" encoding="UTF-8" standalone="no"?>
<!-- Created with Inkscape (http://www.inkscape.org/) -->

<svg
   width="10.158878mm"
   height="12.698999mm"
   viewBox="0 0 10.158878 12.698999"
   version="1.1"
   id="svg1"
   inkscape:version="1.3 (0e150ed, 2023-07-21)"
   sodipodi:docname="icon8.svg"
   inkscape:export-filename="icon8.png"
   inkscape:export-xdpi="96"
   inkscape:export-ydpi="96"
   xmlns:inkscape="http://www.inkscape.org/namespaces/inkscape"
   xmlns:sodipodi="http://sodipodi.sourceforge.net/DTD/sodipodi-0.dtd"
   xmlns="http://www.w3.org/2000/svg"
   xmlns:svg="http://www.w3.org/2000/svg">
  <sodipodi:namedview
     id="namedview1"
     pagecolor="#ffffff"
     bordercolor="#000000"
     borderopacity="0.25"
     inkscape:showpageshadow="2"
     inkscape:pageopacity="0.0"
     inkscape:pagecheckerboard="0"
     inkscape:deskcolor="#d1d1d1"
     inkscape:document-units="mm"
     inkscape:zoom="1.5077061"
     inkscape:cx="43.44348"
     inkscape:cy="23.877333"
     inkscape:window-width="1312"
     inkscape:window-height="449"
     inkscape:window-x="0"
     inkscape:window-y="37"
     inkscape:window-maximized="0"
     inkscape:current-layer="layer1" />
  <defs
     id="defs1">
    <clipPath
       clipPathUnits="userSpaceOnUse"
       id="clipPath143">
      <g
         id="g144">
        <path
           d="M 0,0 H 960 V 540 H 0 Z"
           clip-rule="nonzero"
           id="path143" />
      </g>
    </clipPath>
    <clipPath
       clipPathUnits="userSpaceOnUse"
       id="clipPath142">
      <g
         id="g143">
        <path
           d="M 0,0 H 960 V 540 H 0 Z"
           clip-rule="nonzero"
           id="path142" />
      </g>
    </clipPath>
    <clipPath
       clipPathUnits="userSpaceOnUse"
       id="clipPath141">
      <g
         id="g142">
        <path
           d="M 0,0 H 960 V 540 H 0 Z"
           clip-rule="nonzero"
           id="path141" />
      </g>
    </clipPath>
    <clipPath
       clipPathUnits="userSpaceOnUse"
       id="clipPath140">
      <g
         id="g141">
        <path
           d="M 0,0 H 960 V 540 H 0 Z"
           clip-rule="nonzero"
           id="path140" />
      </g>
    </clipPath>
    <clipPath
       clipPathUnits="userSpaceOnUse"
       id="clipPath139">
      <g
         id="g140">
        <path
           d="M 0,0 H 960 V 540 H 0 Z"
           clip-rule="nonzero"
           id="path139" />
      </g>
    </clipPath>
    <clipPath
       clipPathUnits="userSpaceOnUse"
       id="clipPath138">
      <g
         id="g139">
        <path
           d="M 0,0 H 960 V 540 H 0 Z"
           clip-rule="nonzero"
           id="path138" />
      </g>
    </clipPath>
    <clipPath
       clipPathUnits="userSpaceOnUse"
       id="clipPath137">
      <g
         id="g138">
        <path
           d="M 0,0 H 960 V 540 H 0 Z"
           clip-rule="nonzero"
           id="path137" />
      </g>
    </clipPath>
    <clipPath
       clipPathUnits="userSpaceOnUse"
       id="clipPath136">
      <g
         id="g137">
        <path
           d="M 0,0 H 960 V 540 H 0 Z"
           clip-rule="nonzero"
           id="path136" />
      </g>
    </clipPath>
    <clipPath
       clipPathUnits="userSpaceOnUse"
       id="clipPath135">
      <g
         id="g136">
        <path
           d="M 0,0 H 960 V 540 H 0 Z"
           clip-rule="nonzero"
           id="path135" />
      </g>
    </clipPath>
    <clipPath
       clipPathUnits="userSpaceOnUse"
       id="clipPath134">
      <g
         id="g135">
        <path
           d="M 0,0 H 960 V 540 H 0 Z"
           clip-rule="nonzero"
           id="path134" />
      </g>
    </clipPath>
    <clipPath
       clipPathUnits="userSpaceOnUse"
       id="clipPath133">
      <g
         id="g134">
        <path
           d="M 0,0 H 960 V 540 H 0 Z"
           clip-rule="nonzero"
           id="path133" />
      </g>
    </clipPath>
  </defs>
  <g
     inkscape:label="Layer 1"
     inkscape:groupmode="layer"
     id="layer1"
     transform="translate(-101.86459,-141.02291)">
    <g
       id="g7"
       transform="matrix(0.26458333,0,0,0.26458333,-41.125747,33.305667)">
      <path
         fill="#C3DAFE"
         d="m 546.2108,433.82886 c -0.11395,0 -0.23663,0.0315 -0.35052,0.0991 l -2.65961,1.60736 c -0.62659,0.31967 -0.41626,1.33725 0.31109,1.33725 0.10517,0 0.26288,0 0.31543,-0.054 l 2.65967,-1.60736 c 0.46881,-0.21164 0.52136,-0.69339 0.36365,-1.01757 -0.1402,-0.22062 -0.38123,-0.36469 -0.63971,-0.36469 z"
         fill-rule="evenodd"
         id="path46"
         clip-path="url(#clipPath143)" />
      <path
         fill="#C3DAFE"
         d="m 572.9209,434.0945 c -0.25415,0 -0.52142,0.14856 -0.66162,0.3692 -0.21033,0.31967 -0.0525,0.80142 0.25854,1.01755 2.71216,1.60736 2.65961,1.66141 3.0802,1.66141 0.62659,0 0.88514,-1.01755 0.3111,-1.34174 l -2.65961,-1.60739 c -0.10077,-0.0675 -0.21032,-0.099 -0.32861,-0.099 z"
         fill-rule="evenodd"
         id="path47"
         clip-path="url(#clipPath142)" />
      <path
         fill="#C3DAFE"
         d="m 555.824,423.58127 c 0.73175,0 1.30573,0.64386 1.30573,1.33725 v 1.34171 h -1.51166 c -0.73169,0 -1.30573,-0.58982 -1.30573,-1.34171 0,-0.69339 0.57404,-1.33725 1.30573,-1.33725 z m 8.14099,0 c 0.72736,0 1.30133,0.64386 1.30133,1.33725 0,0.75189 -0.57397,1.34171 -1.30133,1.34171 h -1.46344 v -1.34171 c 0,-0.69339 0.57398,-1.33725 1.30573,-1.33725 z m 0.67474,18.11789 v 3.05716 h -9.7008 v -3.05716 z m 0.0526,4.50244 v 1.93155 h -0.0526 c 0,0.58981 -0.46881,1.07159 -1.04278,1.07159 h -7.56262 c -0.62659,0 -1.04279,-0.48178 -1.04279,-1.07159 v -1.93155 z m -9.12683,-24.17816 c -1.51606,0 -2.71222,1.28769 -2.71222,2.84103 0,1.55786 1.19616,2.84107 2.71222,2.84107 h 1.51165 v 5.79013 c 0,0.43225 0.31104,0.75192 0.73169,0.75192 0.36371,0 0.67475,-0.31967 0.67475,-0.75192 v -5.79013 h 2.55883 v 12.49429 h -2.55883 v -3.80908 c 0,-0.37369 -0.31104,-0.74741 -0.67475,-0.74741 -0.42065,0 -0.73169,0.37372 -0.73169,0.74741 v 3.91263 h -2.13824 c -0.10516,-2.08914 -0.94202,-4.02069 -2.50623,-5.46598 -1.14801,-1.07159 -2.08563,-2.4133 -2.65966,-3.85861 -0.12702,-0.26562 -0.43378,-0.45923 -0.74048,-0.45923 -0.0657,0 -0.13141,0.009 -0.19715,0.027 -0.31549,0.16208 -0.52142,0.64386 -0.36804,0.96802 0.62653,1.66141 1.66937,3.16074 2.9751,4.39441 1.25311,1.23367 2.03302,2.89508 2.03302,4.66452 v 7.66769 c 0,1.22916 0.7843,2.19721 1.8797,2.51688 0,0.58981 0.15771,1.17963 0.41626,1.76947 0.15332,0.27914 0.39435,0.43674 0.63531,0.43674 0.0877,0 0.1709,-0.018 0.25415,-0.063 0.36365,-0.21161 0.52137,-0.64386 0.36365,-0.96353 -0.15771,-0.31968 -0.25848,-0.7519 -0.25848,-1.12562 h 5.84063 c -0.0876,1.64341 -1.49414,2.84107 -3.01452,2.84107 -0.31549,0 -0.63532,-0.0495 -0.95081,-0.16211 -0.0964,-0.036 -0.19281,-0.054 -0.28045,-0.054 -0.29352,0 -0.53894,0.1846 -0.65723,0.43222 -0.10516,0.42774 0.10516,0.80146 0.41626,0.96354 0.51263,0.1936 1.02527,0.28366 1.52917,0.28366 2.26966,0 4.27204,-1.84601 4.31586,-4.30436 1.14795,-0.27014 1.92792,-1.28768 1.92792,-2.46734 v -7.60913 c 0,-1.61188 0.57397,-3.11121 1.56421,-4.29084 0.42059,-0.42773 0.36804,-0.90951 0.10516,-1.17965 -0.12268,-0.12607 -0.29797,-0.19361 -0.46887,-0.19361 -0.19275,0 -0.38556,0.0811 -0.52136,0.24765 -1.14801,1.34171 -1.8797,3.11118 -1.93232,4.9842 h -2.13818 V 427.7056 h 1.46344 c 1.51166,0 2.76477,-1.28321 2.76477,-2.84107 0,-1.55334 -1.25311,-2.84103 -2.76477,-2.84103 h -0.15771 c -1.51166,0 -2.76484,1.28769 -2.76484,2.84103 v 1.34174 h -2.55883 v -1.34174 c 0,-1.55334 -1.19617,-2.84103 -2.71216,-2.84103 z"
         fill-rule="evenodd"
         id="path48"
         clip-path="url(#clipPath141)" />
      <path
         fill="#C3DAFE"
         d="m 559.87695,414.00455 c -6.29193,0 -12.34729,5.00674 -12.34729,12.52133 0,0.69788 0.10516,1.34174 0.15771,1.9856 0.0482,0.34216 0.3111,0.5943 0.67481,0.5943 0.035,0 0.0701,0 0.10516,-0.004 0.36805,-0.0541 0.62653,-0.42773 0.57398,-0.80594 -0.0526,-0.58981 -0.15338,-1.12561 -0.15338,-1.76947 0,-6.15036 4.90301,-11.09405 10.81811,-11.09405 0.0613,0 0.12268,0 0.18842,0 5.78808,0.054 10.53772,5.03827 10.59027,10.99051 v 0.10354 c 0,2.4133 -0.7843,4.77262 -2.13819,6.70416 -0.26294,0.37369 -0.21032,0.74741 0.10517,1.01755 0.14892,0.11255 0.3023,0.1666 0.4469,0.1666 0.20154,0 0.38995,-0.10806 0.54333,-0.32868 1.61676,-2.1972 2.50183,-4.82214 2.50183,-7.55963 0.0526,0 0.0526,-0.0495 0.0526,-0.10354 -0.0526,-3.27329 -1.30573,-6.37998 -3.59729,-8.73926 -2.47559,-2.54389 -5.52515,-3.67853 -8.52216,-3.67853 z"
         fill-rule="evenodd"
         id="path49"
         clip-path="url(#clipPath140)" />
      <path
         fill="#C3DAFE"
         d="m 559.7893,407.1203 c -0.36365,0 -0.67914,0.32419 -0.67914,0.75192 v 3.16522 c 0,0.42774 0.31549,0.74741 0.67914,0.74741 0.41626,0 0.73175,-0.31967 0.73175,-0.74741 v -3.16522 c -0.0526,-0.48178 -0.31549,-0.75192 -0.73175,-0.75192 z"
         fill-rule="evenodd"
         id="path50"
         clip-path="url(#clipPath139)" />
      <path
         fill="#C3DAFE"
         d="m 550.51355,409.54263 c -0.11835,0 -0.24542,0.0315 -0.37683,0.0991 -0.3111,0.2161 -0.41626,0.64383 -0.25855,1.01755 l 1.56427,2.73297 c 0.15772,0.21612 0.4162,0.3782 0.62653,0.3782 0.57397,0 0.88507,-0.64383 0.62659,-1.07156 l -1.56421,-2.78702 c -0.14459,-0.22061 -0.36371,-0.3692 -0.6178,-0.3692 z"
         fill-rule="evenodd"
         id="path51"
         clip-path="url(#clipPath138)" />
      <path
         fill="#C3DAFE"
         d="m 543.75714,416.4584 c -0.25415,0 -0.51703,0.14407 -0.66162,0.36469 -0.15778,0.32418 -0.0526,0.80593 0.26288,1.02206 l 2.71222,1.60736 c 0.0964,0.0495 0.20593,0.072 0.31982,0.072 0.25415,0 0.5083,-0.11706 0.6178,-0.34219 0.21033,-0.42774 0.10516,-0.80142 -0.25849,-1.01755 l -2.664,-1.60739 c -0.0964,-0.0675 -0.21032,-0.099 -0.32861,-0.099 z"
         fill-rule="evenodd"
         id="path52"
         clip-path="url(#clipPath137)" />
      <path
         fill="#C3DAFE"
         d="m 541.1676,425.94055 c -0.42059,0 -0.73169,0.31967 -0.73169,0.74741 0,0.3782 0.3111,0.75192 0.73169,0.75192 h 3.12848 c 0.36365,0 0.73169,-0.37372 0.73169,-0.75192 0,-0.42774 -0.36804,-0.74741 -0.73169,-0.74741 z"
         fill-rule="evenodd"
         id="path53"
         clip-path="url(#clipPath136)" />
      <path
         fill="#C3DAFE"
         d="m 575.02405,426.2062 c -0.42059,0 -0.73169,0.31967 -0.73169,0.75189 0,0.37372 0.3111,0.74744 0.73169,0.74744 h 3.12848 c 0.36365,0 0.67914,-0.37372 0.67914,-0.74744 -0.0526,-0.43222 -0.36371,-0.75189 -0.67914,-0.75189 z"
         fill-rule="evenodd"
         id="path54"
         clip-path="url(#clipPath135)" />
      <path
         fill="#C3DAFE"
         d="m 575.68567,416.72855 c -0.11389,0 -0.23657,0.0315 -0.35052,0.0945 l -2.65961,1.61188 c -0.36365,0.21161 -0.46881,0.58981 -0.26288,1.01755 0.1095,0.22064 0.33734,0.36471 0.59149,0.36471 0.11395,0 0.23663,-0.0315 0.35053,-0.0991 l 2.71222,-1.60736 c 0.31109,-0.26565 0.41626,-0.6979 0.25848,-1.01757 -0.1402,-0.22062 -0.38117,-0.36469 -0.63971,-0.36469 z"
         fill-rule="evenodd"
         id="path55"
         clip-path="url(#clipPath134)" />
      <path
         fill="#C3DAFE"
         d="m 568.9775,409.69122 c -0.24536,0 -0.49512,0.13507 -0.63092,0.3782 l -1.56427,2.73298 c -0.26288,0.48626 0.0482,1.07608 0.56964,1.07608 0.26288,0 0.47321,-0.16208 0.62659,-0.32416 l 1.5686,-2.78702 c 0.25848,-0.31967 0.10077,-0.75192 -0.21033,-0.96353 -0.10955,-0.0765 -0.23223,-0.11255 -0.35931,-0.11255 z"
         fill-rule="evenodd"
         id="path56"
         clip-path="url(#clipPath133)" />
    </g>
  </g>
</svg>
