<?xml version="1.0" encoding="UTF-8" standalone="no"?>
<!-- Created with Inkscape (http://www.inkscape.org/) -->

<svg
   width="12.382322mm"
   height="12.699698mm"
   viewBox="0 0 12.382322 12.699698"
   version="1.1"
   id="svg1"
   inkscape:version="1.3 (0e150ed, 2023-07-21)"
   sodipodi:docname="icon4.svg"
   inkscape:export-filename="icon4.png"
   inkscape:export-xdpi="96"
   inkscape:export-ydpi="96"
   xmlns:inkscape="http://www.inkscape.org/namespaces/inkscape"
   xmlns:sodipodi="http://sodipodi.sourceforge.net/DTD/sodipodi-0.dtd"
   xmlns="http://www.w3.org/2000/svg"
   xmlns:svg="http://www.w3.org/2000/svg">
  <sodipodi:namedview
     id="namedview1"
     pagecolor="#ffffff"
     bordercolor="#000000"
     borderopacity="0.25"
     inkscape:showpageshadow="2"
     inkscape:pageopacity="0.0"
     inkscape:pagecheckerboard="0"
     inkscape:deskcolor="#d1d1d1"
     inkscape:document-units="mm"
     inkscape:zoom="2.6730708"
     inkscape:cx="48.072053"
     inkscape:cy="29.928126"
     inkscape:window-width="1312"
     inkscape:window-height="449"
     inkscape:window-x="0"
     inkscape:window-y="37"
     inkscape:window-maximized="0"
     inkscape:current-layer="layer1" />
  <defs
     id="defs1">
    <clipPath
       clipPathUnits="userSpaceOnUse"
       id="clipPath103">
      <g
         id="g104">
        <path
           d="M 0,0 H 960 V 540 H 0 Z"
           clip-rule="nonzero"
           id="path103" />
      </g>
    </clipPath>
    <clipPath
       clipPathUnits="userSpaceOnUse"
       id="clipPath102">
      <g
         id="g103">
        <path
           d="M 0,0 H 960 V 540 H 0 Z"
           clip-rule="nonzero"
           id="path102" />
      </g>
    </clipPath>
    <clipPath
       clipPathUnits="userSpaceOnUse"
       id="clipPath101">
      <g
         id="g102">
        <path
           d="M 0,0 H 960 V 540 H 0 Z"
           clip-rule="nonzero"
           id="path101" />
      </g>
    </clipPath>
    <clipPath
       clipPathUnits="userSpaceOnUse"
       id="clipPath100">
      <g
         id="g101">
        <path
           d="M 0,0 H 960 V 540 H 0 Z"
           clip-rule="nonzero"
           id="path100" />
      </g>
    </clipPath>
    <clipPath
       clipPathUnits="userSpaceOnUse"
       id="clipPath99">
      <g
         id="g100">
        <path
           d="M 0,0 H 960 V 540 H 0 Z"
           clip-rule="nonzero"
           id="path99" />
      </g>
    </clipPath>
    <clipPath
       clipPathUnits="userSpaceOnUse"
       id="clipPath98">
      <g
         id="g99">
        <path
           d="M 0,0 H 960 V 540 H 0 Z"
           clip-rule="nonzero"
           id="path98" />
      </g>
    </clipPath>
  </defs>
  <g
     inkscape:label="Layer 1"
     inkscape:groupmode="layer"
     id="layer1"
     transform="translate(-110.86041,-153.45833)">
    <g
       id="g2"
       transform="matrix(0.26458333,0,0,0.26458333,-31.017523,91.14351)">
      <path
         fill="#C3DAFE"
         d="m 573.01276,237.98837 2.30554,2.41283 0.63928,0.60426 2.50348,2.56496 1.91785,1.96492 h -7.36615 z m -25.92993,17.15602 c 2.84991,0 5.1596,2.41283 5.1596,5.28203 v 1.25925 h -0.29699 c -1.57135,-0.35495 -2.0622,-2.51847 -2.16113,-2.51847 -0.0495,-0.30002 -0.29285,-0.50287 -0.54035,-0.55356 -0.0495,-0.008 -0.0949,-0.0127 -0.1402,-0.0127 -0.2351,0 -0.43304,0.10565 -0.59393,0.31692 -2.06219,2.61567 -6.38452,2.61567 -6.43402,2.61567 h -0.49078 l -0.0495,0.0507 -0.099,0.0507 v -1.20853 c 0,-2.8692 2.35913,-5.28203 5.15545,-5.28203 z m -5.7453,8.45125 v 2.31564 c -0.54029,-0.0507 -0.98157,-0.55356 -0.98157,-1.10711 0,-0.35495 0.099,-0.65497 0.34644,-0.90851 0.24334,0 0.44128,-0.0972 0.58569,-0.30002 z m 11.09869,0.0507 c 0.1485,0.10141 0.297,0.2493 0.49085,0.2493 0.24743,0.20282 0.34643,0.50708 0.34643,0.85782 0.0948,0.60424 -0.34643,1.10708 -0.88672,1.1578 v -2.26492 z m -3.68304,-3.01709 c 0.34643,0.80286 1.03113,1.75784 2.21069,2.20999 v 3.21991 c -0.0495,2.01563 -1.67041,3.62558 -3.63361,3.62558 h -0.88262 c -1.96729,0 -3.5882,-1.66064 -3.5882,-3.62558 v -3.06778 c 1.27856,-0.10144 3.98004,-0.55356 5.89374,-2.36212 z m -0.49079,10.46262 v 1.0057 0.0507 l -1.42291,1.50855 -1.32806,-1.40714 v -1.15783 c 0.29693,0.0507 0.58978,0.0507 0.93622,0.0507 h 0.88262 c 0.34235,0 0.63929,-0.0507 0.93213,-0.0507 z m 23.27796,-34.10923 v 9.35553 c 0,0.45215 0.29284,0.7564 0.73413,0.7564 h 9.1355 v 34.71348 h -23.86774 v -2.91989 c 0,-3.41855 -2.30554,-5.12991 -3.53461,-5.53134 l -4.27282,-1.76209 v -0.95498 c 1.17956,-0.655 2.11163,-1.76209 2.45813,-3.16922 1.42291,0 2.55297,-1.15784 2.55297,-2.66638 0,-0.90851 -0.39184,-1.71137 -1.03112,-2.16352 v -2.01138 c 0,-3.52417 -2.55298,-6.39339 -5.89374,-6.74411 v -16.9025 z m -24.25959,-1.46205 c -0.44128,0 -0.73822,0.30425 -0.73822,0.75638 v 17.65888 c -3.5346,0.15213 -6.38043,3.16923 -6.38043,6.79057 v 2.01562 c -0.68878,0.50284 -1.08056,1.25501 -1.08056,2.16352 0,1.45785 1.13006,2.71707 2.60247,2.71707 0.39179,1.35644 1.32392,2.51425 2.45398,3.11853 v 0.95498 l -4.42132,1.76209 c -1.22492,0.45215 -3.48511,2.11279 -3.48511,5.53134 v 3.77347 c 0,0.45215 0.29694,0.75641 0.73828,0.75641 h 3.24176 c 0.44129,0 0.73413,-0.30426 0.73413,-0.75641 0,-0.45212 -0.29284,-0.75217 -0.73413,-0.75217 h -2.50763 v -3.12271 c 0,-3.16922 2.40863,-4.12421 2.50763,-4.12421 h 0.0949 l 4.02954,-1.60998 0.0494,0.0507 2.1571,2.16351 c 0.14844,0.10141 0.29694,0.15213 0.49079,0.15213 0.19794,0 0.39593,-0.0507 0.49493,-0.25354 l 2.11164,-2.16351 4.02539,1.60995 h 0.0495 c 0,0 2.55304,0.90851 2.55304,4.07773 v 3.01709 h -13.40839 c -0.44128,0 -0.73413,0.35074 -0.73413,0.75638 0,0.45215 0.29285,0.75217 0.73413,0.75217 h 39.43317 c 0.39184,0 0.73828,-0.30002 0.73828,-0.75217 l -0.1485,-36.32767 v -0.14788 -0.0507 c 0,0 0,-0.0507 -0.0495,-0.0507 l -0.0495,-0.0507 -0.0989,-0.10141 -5.6958,-5.83559 -4.17383,-4.27634 -0.0495,-0.0507 -0.0495,-0.10141 c 0,0 -0.0948,0 -0.0948,-0.0507 z"
         fill-rule="evenodd"
         id="path86"
         clip-path="url(#clipPath103)" />
      <path
         fill="#C3DAFE"
         d="m 556.0203,248.3496 c -0.44128,0 -0.73413,0.35495 -0.73413,0.75639 0,0.45214 0.29285,0.75638 0.73413,0.75638 h 11.63898 c 0.44134,0 0.73828,-0.30424 0.73828,-0.75638 0,-0.40144 -0.29694,-0.75639 -0.73828,-0.75639 z"
         fill-rule="evenodd"
         id="path87"
         clip-path="url(#clipPath102)" />
      <path
         fill="#C3DAFE"
         d="m 556.0203,253.58514 c -0.44128,0 -0.73413,0.30002 -0.73413,0.75217 0,0.45213 0.29285,0.75637 0.73413,0.75637 h 17.58221 c 0.44135,0 0.73413,-0.30424 0.73413,-0.75637 0,-0.45215 -0.29278,-0.75217 -0.73413,-0.75217 z"
         fill-rule="evenodd"
         id="path88"
         clip-path="url(#clipPath101)" />
      <path
         fill="#C3DAFE"
         d="m 556.0203,258.76575 c -0.44128,0 -0.73413,0.30002 -0.73413,0.75641 0,0.40143 0.29285,0.75213 0.73413,0.75213 h 17.58221 c 0.44135,0 0.73413,-0.3507 0.73413,-0.75213 0,-0.40567 -0.34228,-0.75641 -0.73413,-0.75641 z"
         fill-rule="evenodd"
         id="path89"
         clip-path="url(#clipPath100)" />
      <path
         fill="#C3DAFE"
         d="m 556.0203,263.94638 c -0.44128,0 -0.73413,0.35495 -0.73413,0.75638 0,0.45215 0.29285,0.75638 0.73413,0.75638 h 17.58221 c 0.44135,0 0.73413,-0.30423 0.73413,-0.75638 0,-0.40143 -0.34228,-0.75638 -0.73413,-0.75638 z"
         fill-rule="evenodd"
         id="path90"
         clip-path="url(#clipPath99)" />
      <path
         fill="#C3DAFE"
         d="m 556.0203,269.13123 c -0.44128,0 -0.73413,0.30002 -0.73413,0.75214 0,0.45214 0.29285,0.7564 0.73413,0.7564 h 17.58221 c 0.44135,0 0.73413,-0.30426 0.73413,-0.7564 0,-0.40143 -0.34228,-0.75214 -0.73413,-0.75214 z"
         fill-rule="evenodd"
         id="path91"
         clip-path="url(#clipPath98)" />
    </g>
  </g>
</svg>
